<svg id="Layer_1" data-name="Layer 1" xmlns="http://www.w3.org/2000/svg" xmlns:xlink="http://www.w3.org/1999/xlink" viewBox="0 0 191.8 192"><defs><style>.cls-1{fill:none;}.cls-2{fill:#510130;}.cls-3{clip-path:url(#clip-path);}.cls-4{fill:#829b79;}.cls-5{fill:#f06922;}.cls-6{fill:#2b102a;}.cls-7{fill:#fff;}.cls-8{fill:#f4d9bf;}.cls-9{fill:#fefefd;}.cls-10{fill:#f6d8d0;}.cls-11{fill:#46465a;}.cls-12{fill:#c9223e;}</style><clipPath id="clip-path"><circle class="cls-1" cx="95.9" cy="95.9" r="95.9"/></clipPath></defs><title>Caring</title><circle id="SVGID" class="cls-2" cx="95.9" cy="95.9" r="95.9"/><g class="cls-3"><rect class="cls-4" x="39.5" y="72" width="97.9" height="146.6"/><path class="cls-4" d="M81.1,82H28.7a4.93,4.93,0,0,1,4.9,5,5,5,0,0,1-4.9,5H81.1A4.93,4.93,0,0,0,86,87,4.87,4.87,0,0,0,81.1,82Z"/><path class="cls-4" d="M76,101.8H23.6a5,5,0,0,1,0,10H76a5,5,0,0,0,0-10Z"/><path class="cls-4" d="M85.9,121.6H33.5a4.93,4.93,0,0,1,4.9,5,5,5,0,0,1-4.9,5H85.9a5,5,0,0,0,0-10Z"/><path class="cls-4" d="M78.5,141.4H26.1a4.93,4.93,0,0,1,4.9,5,5,5,0,0,1-4.9,5H78.5a5,5,0,0,0,0-10Z"/><path class="cls-4" d="M73.5,72H21.1A4.93,4.93,0,0,1,26,77a5,5,0,0,1-4.9,5H73.5a5,5,0,0,0,0-10Z"/><path class="cls-4" d="M26,77a5,5,0,0,0-4.9-5H6.3a4.93,4.93,0,0,0-4.9,5,5,5,0,0,0,4.9,5H21.1A5,5,0,0,0,26,77Z"/><path class="cls-4" d="M83.4,91.9H31a4.93,4.93,0,0,1,4.9,5,5,5,0,0,1-4.9,5H83.4a5,5,0,0,0,0-10Z"/><path class="cls-4" d="M35.9,96.8a5,5,0,0,0-4.9-5H16.2a4.93,4.93,0,0,0-4.9,5,5,5,0,0,0,4.9,5H31A5,5,0,0,0,35.9,96.8Z"/><path class="cls-4" d="M76,111.7H23.6a5,5,0,0,1,0,10H76a5,5,0,0,0,0-10Z"/><path class="cls-4" d="M28.5,116.6a5,5,0,0,0-4.9-5H8.8a5,5,0,0,0,0,10H23.6A5,5,0,0,0,28.5,116.6Z"/><path class="cls-4" d="M83,150.8H30.6a4.93,4.93,0,0,1,4.9,5,5,5,0,0,1-4.9,5H83a4.93,4.93,0,0,0,4.9-5A4.87,4.87,0,0,0,83,150.8Z"/><path class="cls-4" d="M35.5,155.7a5,5,0,0,0-4.9-5H15.8a4.93,4.93,0,0,0-4.9,5,5,5,0,0,0,4.9,5H30.6A4.93,4.93,0,0,0,35.5,155.7Z"/><path class="cls-4" d="M73.9,160.7H21.5a5,5,0,0,1,0,10H73.9a5,5,0,0,0,0-10Z"/><path class="cls-4" d="M78.5,170.1H26.1a4.93,4.93,0,0,1,4.9,5,5,5,0,0,1-4.9,5H78.5a5,5,0,0,0,0-10Z"/><path class="cls-4" d="M31,175.1a5,5,0,0,0-4.9-5H11.3a4.93,4.93,0,0,0-4.9,5,5,5,0,0,0,4.9,5H26.1A5.13,5.13,0,0,0,31,175.1Z"/><path class="cls-4" d="M86.4,180H34a5,5,0,0,1,0,10H86.4a5,5,0,0,0,0-10Z"/><path class="cls-4" d="M91,189.4H38.6a5,5,0,0,1,0,10H91a5,5,0,0,0,0-10Z"/><path class="cls-4" d="M43.5,194.4a5,5,0,0,0-4.9-5H23.8a5,5,0,0,0,0,10H38.6A5,5,0,0,0,43.5,194.4Z"/><path class="cls-4" d="M91,131.5H38.6a4.93,4.93,0,0,1,4.9,5,5,5,0,0,1-4.9,5H91a5,5,0,0,0,0-10Z"/><path class="cls-4" d="M43.5,136.4a5,5,0,0,0-4.9-5H23.8a4.93,4.93,0,0,0-4.9,5,5,5,0,0,0,4.9,5H38.6A5,5,0,0,0,43.5,136.4Z"/><path class="cls-4" d="M108.9,82h52.4a4.93,4.93,0,0,0-4.9,5,5,5,0,0,0,4.9,5H108.9a5,5,0,0,1,0-10Z"/><path class="cls-4" d="M114.1,101.8h52.4a5,5,0,0,0,0,10H114.1a5,5,0,0,1,0-10Z"/><path class="cls-4" d="M104.2,121.6h52.4a4.93,4.93,0,0,0-4.9,5,5,5,0,0,0,4.9,5H104.2a5,5,0,0,1,0-10Z"/><path class="cls-4" d="M111.6,141.4H164a4.93,4.93,0,0,0-4.9,5,5,5,0,0,0,4.9,5H111.6a5,5,0,0,1,0-10Z"/><path class="cls-4" d="M116.5,72h52.4a4.93,4.93,0,0,0-4.9,5,5,5,0,0,0,4.9,5H116.5a4.93,4.93,0,0,1-4.9-5A5,5,0,0,1,116.5,72Z"/><path class="cls-4" d="M164,77a5,5,0,0,1,4.9-5h14.9a4.93,4.93,0,0,1,4.9,5,5,5,0,0,1-4.9,5H169A5.08,5.08,0,0,1,164,77Z"/><path class="cls-4" d="M106.7,91.9h52.4a4.93,4.93,0,0,0-4.9,5,5,5,0,0,0,4.9,5H106.7a4.93,4.93,0,0,1-4.9-5A4.81,4.81,0,0,1,106.7,91.9Z"/><path class="cls-4" d="M154.2,96.8a5,5,0,0,1,4.9-5h14.8a4.93,4.93,0,0,1,4.9,5,5,5,0,0,1-4.9,5H159.1A5,5,0,0,1,154.2,96.8Z"/><path class="cls-4" d="M114.1,111.7h52.4a5,5,0,0,0,0,10H114.1a5,5,0,0,1,0-10Z"/><path class="cls-4" d="M161.6,116.6a5,5,0,0,1,4.9-5h14.8a5,5,0,0,1,0,10H166.5A5,5,0,0,1,161.6,116.6Z"/><path class="cls-4" d="M107,150.8h52.4a4.93,4.93,0,0,0-4.9,5,5,5,0,0,0,4.9,5H107a5,5,0,0,1,0-10Z"/><path class="cls-4" d="M154.5,155.7a5,5,0,0,1,4.9-5h14.8a4.93,4.93,0,0,1,4.9,5,5,5,0,0,1-4.9,5H159.5A5,5,0,0,1,154.5,155.7Z"/><path class="cls-4" d="M116.2,160.7h52.4a5,5,0,0,0,0,10H116.2a4.93,4.93,0,0,1-4.9-5A4.87,4.87,0,0,1,116.2,160.7Z"/><path class="cls-4" d="M111.6,170.1H164a4.93,4.93,0,0,0-4.9,5,5,5,0,0,0,4.9,5H111.6a5,5,0,0,1,0-10Z"/><path class="cls-4" d="M159.1,175.1a5,5,0,0,1,4.9-5h14.8a4.93,4.93,0,0,1,4.9,5,5,5,0,0,1-4.9,5H164A5.06,5.06,0,0,1,159.1,175.1Z"/><path class="cls-4" d="M103.6,180H156a5,5,0,0,0,0,10H103.6a5,5,0,0,1,0-10Z"/><path class="cls-4" d="M99.1,189.4h52.4a5,5,0,0,0,0,10H99.1a4.93,4.93,0,0,1-4.9-5A4.87,4.87,0,0,1,99.1,189.4Z"/><path class="cls-4" d="M146.6,194.4a5,5,0,0,1,4.9-5h14.8a5,5,0,0,1,0,10H151.5A5,5,0,0,1,146.6,194.4Z"/><path class="cls-4" d="M99.1,131.5h52.4a4.93,4.93,0,0,0-4.9,5,5,5,0,0,0,4.9,5H99.1a4.93,4.93,0,0,1-4.9-5A4.81,4.81,0,0,1,99.1,131.5Z"/><path class="cls-4" d="M146.6,136.4a5,5,0,0,1,4.9-5h14.8a4.93,4.93,0,0,1,4.9,5,5,5,0,0,1-4.9,5H151.5A5,5,0,0,1,146.6,136.4Z"/><polygon class="cls-4" points="112.1 157.2 120.9 149.6 113.3 158.9 120.9 168.2 112.2 160.6 102.3 168.2 110.1 159 102.3 149.6 112.1 157.2"/></g><g class="cls-3"><polygon class="cls-5" points="159.3 145.7 146 135.3 115.1 174.1 128.6 184.7 159.3 145.7"/><rect class="cls-6" x="140.5" y="155.22" width="49.6" height="54" transform="translate(-80.11 199.6) rotate(-51.84)"/><rect class="cls-7" x="146.95" y="168.45" width="15.6" height="54" transform="translate(-94.55 196.36) rotate(-51.84)"/><rect class="cls-7" x="137.59" y="181.96" width="4.2" height="4.7" transform="translate(-91.54 180.26) rotate(-51.84)"/><rect class="cls-7" x="145.05" y="187.89" width="4.2" height="4.7" transform="translate(-93.35 188.4) rotate(-51.84)"/><path class="cls-8" d="M52.2,131.8C51,130.7,50,129.9,49,129c-5.4-4.8-10.8-9.6-16.3-14.3-3.1-2.6-5.5-3.3-8.5-1.7a5.27,5.27,0,0,0-1.2,8.6c5.1,4.5,10.1,9.2,15.2,13.8,2.1,1.9,4.2,3.7,6.4,5.6C44.8,135.9,47.2,132.9,52.2,131.8Z"/><path class="cls-8" d="M64.5,132.4a1.44,1.44,0,0,0-.2-.3c-3.8-3-7.6-6-11.5-8.9a8.5,8.5,0,0,1-3.9-5.5c-.6-2.9-1.7-5.8-2.6-8.7a5.65,5.65,0,0,0-4.2-4.1c-3.2-.8-6.3,1.4-6,4.6a47.06,47.06,0,0,0,1.2,5.4,6.81,6.81,0,0,0,2.5,4.1c4.3,3.8,8.5,7.6,12.8,11.3.9.8,1.6,1.9,2.9,2C58.4,132.4,61.4,132.4,64.5,132.4Z"/><path class="cls-8" d="M76,132.9q0-.15-.3-.3c-4.1-3.2-8.1-6.6-12.4-9.6a6.11,6.11,0,0,1-2.8-3.7,25.78,25.78,0,0,0-2-5.5,5.1,5.1,0,0,0-2.7-2.5c-2.6-.9-6.1.7-5.5,4.3.3,1.8,0,3.9,1.7,5.3L65.8,132a3.72,3.72,0,0,0,1.9.9Z"/><path class="cls-8" d="M68.2,119.8a4.37,4.37,0,0,0-3.3,1.6.76.76,0,0,0,.2,1.3c3.7,3,7.3,6,11.1,8.9a6.55,6.55,0,0,0,3,1.8c2.3.2,4.6-.1,6.9.3.2,0,.5-.1.5-.4s-.3-.5-.6-.7c-4.1-3.4-8.2-6.7-12.3-10.1C72,121.2,70.5,119.9,68.2,119.8Z"/><path class="cls-9" d="M100.5,173.1c-.1.2-.3.3-.3.4-.1.4.4.6.6.8l32.5,25.3,5.1,3.9c.3.2.6.5.9.1s-.2-.5-.4-.7-.5-.4-.7-.6l-9.3-7.2c-9.2-7.2-18.4-14.4-27.7-21.6A4.35,4.35,0,0,0,100.5,173.1Z"/><path class="cls-9" d="M141.8,211.9c-.2-.5-.7-.7-1.1-1.1-11-8.6-22.1-17.2-33.1-25.8l-4-3.1c-.2-.2-.4-.5-.8-.2-.4.5.1.6.3.8s.3.2.4.3l23,17.9c4.6,3.6,9.3,7.2,13.9,10.8.3.2.5.5.9.6C141.6,212.4,141.7,212.2,141.8,211.9Z"/><path class="cls-9" d="M144.4,220.3c-.5-.4-.9-.7-1.3-1l-36.3-28.2c-.4-.3-1-1.3-1.4-.7-.6.8.6,1,1,1.3L138,216.4l5.4,4.2c.2.2.4.4.7.3Z"/><path class="cls-10" d="M52.2,131.8c-4.9,1.1-7.4,4.1-7.6,9.2-2.3-2-4.4-3.8-6.4-5.6-5.1-4.6-10.1-9.2-15.2-13.8a5.27,5.27,0,0,1,1.2-8.6c3-1.6,5.4-.9,8.5,1.7,5.5,4.7,10.9,9.5,16.3,14.3A31.93,31.93,0,0,0,52.2,131.8Z"/><path class="cls-10" d="M64.5,132.4H55.4c-1.3,0-2-1.2-2.9-2-4.3-3.7-8.5-7.5-12.8-11.3a6.54,6.54,0,0,1-2.5-4.1,52.28,52.28,0,0,1-1.2-5.4c-.3-3.2,2.8-5.4,6-4.6a5.81,5.81,0,0,1,4.2,4.1c.9,2.9,1.9,5.7,2.6,8.7.5,2.5,1.9,4,3.9,5.5,3.9,2.8,7.7,5.9,11.5,8.9C64.4,132.2,64.4,132.4,64.5,132.4Z"/><path class="cls-10" d="M76,132.9H67.6a3.72,3.72,0,0,1-1.9-.9L51.9,120.9c-1.7-1.4-1.4-3.4-1.7-5.3-.6-3.6,2.9-5.2,5.5-4.3a5.07,5.07,0,0,1,2.7,2.5,21.31,21.31,0,0,1,2,5.5,7.36,7.36,0,0,0,2.8,3.7c4.3,3,8.2,6.4,12.4,9.6A1.38,1.38,0,0,1,76,132.9Z"/><path class="cls-10" d="M68.2,119.8c2.3.1,3.8,1.4,5.4,2.7,4.1,3.4,8.2,6.7,12.3,10.1.2.2.6.3.6.7,0,.2-.3.4-.5.4-2.3-.4-4.6-.1-6.9-.3-1.4-.1-2.1-1-3-1.8-3.7-2.9-7.4-6-11.1-8.9a.76.76,0,0,1-.2-1.3A4.75,4.75,0,0,1,68.2,119.8Z"/><path class="cls-11" d="M100.5,173.1a4.23,4.23,0,0,1,.7.5c9.2,7.2,18.4,14.4,27.7,21.6l9.3,7.2c.2.2.5.4.7.6s.7.3.4.7-.6.2-.9-.1l-5.1-3.9-32.5-25.3c-.3-.2-.7-.3-.6-.8A.85.85,0,0,1,100.5,173.1Z"/><path class="cls-11" d="M141.8,211.9c-.1.3-.3.5-.6.4l-.9-.6c-4.6-3.6-9.3-7.2-13.9-10.8l-23-17.9c-.1-.1-.3-.2-.4-.3s-.7-.4-.3-.8.6,0,.8.2l4,3.1c11,8.6,22.1,17.2,33.1,25.8A1.59,1.59,0,0,1,141.8,211.9Z"/><path class="cls-11" d="M144.4,220.3c-.1.2-.2.4-.4.4-.3.2-.5-.1-.7-.3l-5.4-4.2c-10.6-8.2-21.1-16.4-31.6-24.7-.4-.3-1.6-.6-1-1.3.4-.5,1,.4,1.4.7L143,219.1C143.6,219.6,144,219.9,144.4,220.3Z"/><path class="cls-7" d="M128.7,172.9a2.36,2.36,0,0,1-2.6,2.4,2.46,2.46,0,0,1-2.3-2.6,2.4,2.4,0,0,1,2.6-2.3A2.44,2.44,0,0,1,128.7,172.9Z"/><path class="cls-1" d="M139.2,139.2l-.2-.2v.5C139,139.3,139.1,139.2,139.2,139.2Z"/><path class="cls-10" d="M135.7,136.1l-5.9-5.2a26.66,26.66,0,0,0-7.8-5,16.85,16.85,0,0,0-11.5-.5c-4.2,1.3-7.6,3.9-11.6,5.7-4.8,2.1-9.5,4.3-15,3.8-4.6-.4-9.2-.4-13.8-.6-5.9-.3-11.7-.4-17.6-.6a5.83,5.83,0,0,0-5.3,3.1,6.32,6.32,0,0,0-.2,6.5c1.3,2.3,3.5,3.2,5.9,3.6L66.8,149c3.8.6,7.5,1.1,11.3,1.7,2.2.3,4.4.7,6.6,1.1.4.1.9.3.8.7-.1.6-.6.3-1,.2-2.5-.3-5-.7-7.5-1l-19.9-2.4c-.6-.1-1.1-.5-1.8,0a6,6,0,0,0,.8.8c5.6,4.2,11.2,8.3,16.7,12.5,3.8,2.9,8,4.5,12.7,4.1,3.2-.3,6.3-1,9.4-1.6,6.3-1.1,12.5-2.2,18.8-3.4,2.1-.4,3.8-.2,5.4,1.5a6.6,6.6,0,0,0,2.9,2c1.4-1,2.2-2.5,3.3-3.8,4.7-5.9,9.4-11.9,14.1-17.9.6-.8,1.3-1.5,1.9-2.2l-5.6-5.2"/></g><path class="cls-12" d="M88.2,32.4A31.94,31.94,0,0,0,68,22.5a30.94,30.94,0,0,0-16.2,2.4C40.2,30.3,33.6,39.4,32.5,52.1a31.93,31.93,0,0,0,9.3,25.7c15.6,15.7,31.3,31.3,46.9,47a6,6,0,0,0,4.2,1.9V37.3C91.2,35.5,89.7,34,88.2,32.4Z"/><path class="cls-5" d="M101.7,120c14.4-14.4,28.8-28.7,43-43.2,7.6-7.7,10.2-17.3,8.4-27.9a32.49,32.49,0,0,0-54.9-17c-1.7,1.7-3.4,3.5-5.2,5.4l-.1-.1v89.4a6,6,0,0,0,4-1.9C98.5,123.2,100.1,121.6,101.7,120Z"/></svg>