<?xml version="1.0" encoding="utf-8"?>
<!-- Generator: Adobe Illustrator 22.1.0, SVG Export Plug-In . SVG Version: 6.00 Build 0)  -->
<svg version="1.1" id="Layer_1" xmlns="http://www.w3.org/2000/svg" xmlns:xlink="http://www.w3.org/1999/xlink" x="0px" y="0px"
	 viewBox="0 0 1083.8 648" style="enable-background:new 0 0 1083.8 648;" xml:space="preserve">
<style type="text/css">
	.st0{fill:#F37344;}
	.st1{fill:#500130;}
	.st2{fill:#FEFAD7;}
	.st3{fill:#FFFFFF;}
	.st4{clip-path:url(#SVGID_2_);}
	.st5{fill:#FFF8B8;}
	.st6{fill:#F4BE71;}
	.st7{clip-path:url(#SVGID_4_);}
	.st8{fill:#FFFAD7;}
	.st9{clip-path:url(#SVGID_6_);}
	.st10{fill:#C8223E;}
	.st11{fill:#F27344;}
	.st12{fill:#2C112B;}
</style>
<path class="st0" d="M-30.2,468.9l320.5-2.3c0,0,46-11,77.4-41.2h777.4v89l-589.5,63.2l-589.5-63.2L-30.2,468.9z"/>
<path class="st2" d="M1084.4,117.2c-104.6,0-209.2,0-313.8,0c0-0.5,0-1,0-1.5c3.3,0,6.7-0.1,10,0c14.4,0.7,28.4-1.8,42.5-4.2
	c2.7-0.5,5.5-0.4,8.3-0.3c23.8,0.3,47.3-4,71-5.5c24.7-1.6,49-7.4,73.9-6.5c5.5,0.2,10.3-1.8,15.1-4c9.9-4.7,19.4-10.1,30.7-11.9
	c7.6-1.3,14.4,1.4,21.6,1.3c3.1,0,4.2,0.1,4.9-3.2c3.1-13.4,10-22.9,25.3-23c2.8,0,2.8-2.3,3.7-4c1.8-3.5,2.9-7.6,6.9-9.5
	C1084.4,68.9,1084.4,93,1084.4,117.2z"/>
<path class="st2" d="M-11,158.9c2.1-3.3,4.3-2.6,6.1-2.4c11.6,0.9,23-1.2,34.5-2c6.3-0.4,13.8-2.3,16.4-10.9c2-6.4,7.4-9.9,14.5-9.8
	c2.7,0.1,4.3-0.4,5.4-3.7c7.2-21.4,30.8-30.4,50.5-19c5,2.9,8.4,2.4,13,0c12.4-6.4,28.2-3.2,37.4,7.5c1.6,1.9,2.8,2,5,1.8
	c8.4-0.7,16.8-1.1,22.1,7.5c0.1,0.2,0.4,0.5,0.6,0.5c12,0,20.8,10.9,33.1,9.9c2.8-0.2,5.5,0.4,8,1.8c2.6,1.5,5.3,2.9,8.5,3
	c16,0.6,31.3,5.4,47.4,6.3c24.6,1.4,49.4,2.3,74,5.2c13.1,1.6,26.5,1.3,39.8,1.9c2.3,0.1,5.1-1,7,2.5
	C271,158.9,130.4,158.9-11,158.9z"/>
<path class="st2" d="M349.3,33.5c-2.5,0-4.9,0-7.4,0c-110.1,0-220.3-0.1-330.4,0.2C4,33.7,1,32,1.9,24.1C2.6,17.9,2.2,11.6,2,5.3
	c-0.1-4.6,2.7-6.8,5.9-4c8.9,7.7,19.1,5,28.9,5c8.1,0.1,14.4,3.9,20.1,9c2.2,1.9,4.2,3.3,7.3,3.1c22-1.3,43.6,3,65.4,4.4
	c8.2,0.5,16.5,0.5,24.7,1.4c14.2,1.4,28.6,0.6,42.8,1.9c24.8,2.3,49.7,0.3,74.5,1.5c20.7,1,41.4,2.7,62.2,2.9
	C339.1,30.6,344,32.8,349.3,33.5z"/>
<path class="st2" d="M914,248.3c-44.6,0-89.3,0-136.1,0c7.9-2.4,13.9-3.9,19.7-6c4.1-1.5,8.6-2.5,10.1-8c0.8-2.8,4.4-4.6,6.8-3.7
	c6.3,2.5,8.7-1.4,12.1-5.2c5.4-6.1,19-6.1,24.6,0.3c3.2,3.6,7.3,6.4,11.1,6.8C880.5,234.3,895.7,246.5,914,248.3z"/>
<ellipse class="st3" cx="723.4" cy="408.6" rx="73.5" ry="72.2"/>
<path class="st0" d="M700.3,436.7c0,0,5.6-3.3,16.9-13c11.3-9.8,28-23.5,33.4-28.5c5.4-5.1,33.9-28.2,37.7-32.9
	c3.9-4.7,8.9-14.1,19.9-24.2c11-10.1,37.7-33.6,40-36.5c2.4-2.9,9.2-6.9,9.2-6.9s27.6,25.6,33.8,31.1c6.2,5.4,7.1,2.5,16,7.9
	c8.9,5.4,22.8,12.6,25.2,14.4c2.4,1.8,6.2,1.8,6.2,1.8s34.4-46.2,48.3-58.2c13.9-11.9,24-27.5,31.4-35.8
	c7.4-8.3,26.4-26.4,29.9-28.5c3.6-2.2,8.6-11.2,8.6-11.2s13.9,19.9,21.1,26c7.1,6.1,19.3,28.9,25.2,40.1
	c4.5,8.5,12.6,18.7,12.6,18.7v33.4v151.8H746.6h-32.8L700.3,436.7z"/>
<g>
	<defs>
		<path id="SVGID_1_" d="M700.3,436.7c0,0,5.6-3.3,16.9-13c11.3-9.8,28-23.5,33.4-28.5c5.4-5.1,33.9-28.2,37.7-32.9
			c3.9-4.7,8.9-14.1,19.9-24.2c11-10.1,37.7-33.6,40-36.5c2.4-2.9,9.2-6.9,9.2-6.9s27.6,25.6,33.8,31.1c6.2,5.4,7.1,2.5,16,7.9
			c8.9,5.4,22.8,12.6,25.2,14.4c2.4,1.8,6.2,1.8,6.2,1.8s34.4-46.2,48.3-58.2c13.9-11.9,24-27.5,31.4-35.8
			c7.4-8.3,26.4-26.4,29.9-28.5c3.6-2.2,8.6-11.2,8.6-11.2s13.9,19.9,21.1,26c7.1,6.1,19.3,28.9,25.2,40.1
			c1.2,2.3,12.6,18.7,12.6,18.7v185.2H746.6h-32.8L700.3,436.7z"/>
	</defs>
	<clipPath id="SVGID_2_">
		<use xlink:href="#SVGID_1_"  style="overflow:visible;"/>
	</clipPath>
	<g class="st4">
		<path class="st5" d="M1055.2,210.6c-0.2,0.7-5.1,19.3-6.1,20.7c-1,1.4-7.9,9.9-9.7,12.3c-1.8,2.4-10.1,19.5-11.7,23.4
			c-1.6,3.9-5.5,9.9-5.5,9.9s13.6-10.6,18.2-14.5c4.5-3.9,6.1-7.9,7.5-9.4c1.4-1.4-4.2,14-5.9,16.9c-1.8,2.9-17.6,36.8-22.9,41.2
			c-5.3,4.3-19,14.7-22.1,18.1c-3.2,3.4-12.5,17.8-12.5,17.8s10.3-25.8,14.8-29.9c4.5-4.1,5.7-12,5.7-12s-19.4,14.4-24.1,20.2
			c-4.7,5.8-19.2,27.5-20.2,29.1c-1,1.7-9.9,20.2-9.9,20.2s-18.6,8.7-20.6,10.4c-2,1.7-10.5,8.9-10.5,8.9s6.3-11.8,10.1-14.4
			c3.8-2.7,9.7-8.9,10.9-10.8c1.2-1.9,4.7-13.2,4.7-13.2l-11.1,6.7c0,0,4.1-11.9,4.7-12.6c0.6-0.8,4.8-14.3,5.8-15.5
			c1-1.2,4.9-16.6,4.9-18.3c0-1.7,36.4-47,37.7-47.4c1.3-0.5,20.1-15.9,22-17.6c2-1.7,24.1-24.3,24.9-25.5
			C1035.3,223.8,1055.2,210.6,1055.2,210.6z"/>
		<path class="st5" d="M925,492.6c0,0,11.7-19,16.8-24.3c5.1-5.3,15.8-20.5,15.8-20.5s13.8-12.5,18-14.7
			c4.1-2.2,16.4-16.6,18.2-18.1c1.8-1.4,11.9-15.7,11.9-15.7s-5.5,15.2-6.9,17.6c-1.4,2.4-7.3,12.8-7.5,13.7
			c-0.2,1,7.1-8.9,10.5-11.8c3.4-2.9,11.5-13.7,12.7-16.1c1.2-2.4,8.3-13.7,9.7-17.6c1.4-3.9,14.6-20,14.6-20l9.7-6.7
			c0,0-7.3,9.2-8.3,10.6c-1,1.4-3,14.4-3,18.5c0,4.1-3.4,13.2-4.9,14.7c-1.6,1.4-9.9,9.2-9.9,9.2s-20.2,24.3-22.9,30.3
			c-2.8,6-9.7,25.3-9.7,25.3l2.2-20.5c0,0-13.6,22.4-14.4,27.9c-0.8,5.5-1.8,16.9-1.8,16.9L925,492.6z"/>
		<path class="st5" d="M1002.8,478.8c0,0,5.2-15.7,7.7-20.2c2.5-4.5,7.7-11,9.9-14.3c2.2-3.3,7.1-11,7.1-11s-3.4,11.4-4.1,13.7
			c-0.7,2.3-4.9,18.1-7.6,20.6l-5.8,1.8L1002.8,478.8z"/>
		<path class="st5" d="M852.6,294.4c0,0-4.5,17.6-7.5,21.4c-3,3.9-14.8,13-17,16.1c-2.2,3.1-14,19.4-14,19.4l14.2-8.3
			c0,0,7.9-5.8,10.1-7.2c2.2-1.4,20-6,20-6s-26.5,22.9-29.3,26.5c-2.8,3.6-9.3,12.8-9.3,12.8s-8.9,23.6-9.7,24.3
			c-0.8,0.7-8.1,12-8.7,13c-0.6,1-12.3,23.6-12.8,23.6c-0.6,0,6.1-22.2,9.3-28.4l2-18.1c0,0-7.1,9.6-8.3,11.3
			c-1.2,1.7-11.7,7-14.2,8.2c-2.6,1.2-19.6,14-22.1,16.4c-2.6,2.4-22.5,28.7-22.5,28.7l8.9-23.8l5.3-6.7l-15.6,14.9
			c0,0-9.9,3.1-11.7,4.3c-1.8,1.2-8.1,6-8.1,6l-4.2-5.8c0,0-4.9-5.8-5.5-6.5c-0.6-0.7,27.3-23.8,27.3-23.8s70-70.3,70.6-70.3
			c0.6,0,19.4-21.2,22.7-22.9c3.4-1.7,21.7-15.2,23.1-15.7C846.9,297.3,852.6,294.4,852.6,294.4z"/>
		<path class="st0" d="M800.8,359.3c0,0-5.2,11.4-6,15.2c-0.8,3.8-2.5,7-2.5,7l-3.5-0.6c0,0-16,7.6-16.5,7.8
			c-0.5,0.2-7.2,7.4-7.2,7.4s8.8-12.7,10.5-14.1c1.7-1.4,15.2-10.7,15.2-10.7L800.8,359.3z"/>
		<path class="st5" d="M750.6,488.7c0,0,6.1-10.6,6.9-11.3c0.8-0.7,8.5-6.7,8.5-6.7s12.6-16.6,14-17.6c1.4-1,11.1-12,11.1-12
			s-3.8,10.6-4.1,11.8c-0.4,1.2-6.9,15.4-6.9,16.4c0,1,13.4-12.5,13.4-12.5l6.1-11.1l8.5-6c0,0,8.7-14.7,8.9-15.4
			c0.2-0.7,21.7-28.2,21.7-28.2l9.1-12.8l12.3-13.5l12.1-6.7l-10.5,9.9l-10.9,18.5l-6.1,12.8l-1.4,9.9c0,0-13.2,10.4-15.6,11.8
			c-2.4,1.4-11.9,25.3-11.9,25.3l6.9-8.2l17.2-8.9c0,0-15.8,13.2-16.6,15.2c-0.8,1.9-2.6,11.8-2.8,12.8c-0.2,1,6.1,26.7,6.1,26.7
			s-44.5,9.2-44.9,8.4C781.5,496.4,750.6,488.7,750.6,488.7z"/>
	</g>
</g>
<path class="st6" d="M641.7,293c0,0-0.2-3.8,5.3-5.2c3.4-0.9,5.3,1.5,5.3,1.5s3.2-7.3,9.2-6.6c6,0.7,9.5,3.7,9.5,8.5
	c0,0,2.6-2,5.2-1c2.6,1.1,2.8,4.3,2.8,4.3s4.3,2.3,6.3,2.5c2,0.2,3.9-0.4,6.1,0c2.2,0.4,3,1,4.9,1.3c1.9,0.3,15.1,1.6,15.1,1.6
	s-29.8-0.7-32.6,0c-2.8,0.7-11.8,0-14.8,0c-3,0-8.8,0.3-8.8,0.3s-16.2,0.2-15.9,0C639.7,300,641.7,293,641.7,293z"/>
<path class="st0" d="M733.2,475c0,0-1.9-10.4-6.6-14.5c-4.7-4.1-11.6-15.8-15.9-20.3c-4.3-4.5-6.6-7.2-10.5-12.2
	c-3.9-5-7.8-10.8-11.6-13.1c-3.9-2.3-3.1-4.1-5.8-5.9c-2.7-1.8-5.8-4.1-7-4.1c-1.2,0,0-5.4-7.4-9.9c-7.4-4.5-17.1-14.5-18.2-15.4
	c-1.2-0.9-1.2-8.1-7.4-14c-6.2-5.9-10.1-21.7-16.7-24.9c-6.6-3.2-9.3-6.8-12.8-11.3c-3.5-4.5-7-13.1-11.3-15.4
	c-4.3-2.3-5.4-9-7.4-14c-1.9-5-21.7-39.8-26.8-46.5c-5-6.8-9.7-17.2-13.6-21.7c-3.9-4.5-6.2-19-11.3-19c-5,0-8.5,8.1-12.4,14.9
	c-3.9,6.8-10.5,19.9-15.5,29.8c-5,9.9-11.6,22.6-15.9,25.8c-4.3,3.2-5.8-2.3-10.1,6.8c-4.3,9-7.4,17.2-13.6,22.1
	c-6.2,5-10.1,5-17.1,12.7c-7,7.7-8.1,10.4-15.9,23c-7.8,12.7-15.1,23.5-20.2,28c-5,4.5-9.7,9.9-12.8,11.3
	c-3.1,1.4-13.6,8.6-20.6,14.5c-7,5.9-11.6,17.2-14.4,19.9c-2.7,2.7-6.6,8.1-11.6,11.7c-5,3.6-6.6,8.1-12,16.3
	c-5.4,8.1-10.1,13.6-15.1,20.3c-5,6.8-10.1,13.1-11.3,15.4c-1.2,2.3,150.2,0,152.9,0c2.7,0,229.3,1,229.3,1h30.7L733.2,475z"/>
<g>
	<defs>
		<path id="SVGID_3_" d="M733.2,459.5c0,0-1.9-9.8-6.6-13.6C722,442,715,431,710.7,426.7c-4.3-4.3-6.6-6.8-10.5-11.5
			c-3.9-4.7-7.8-10.2-11.6-12.3c-3.9-2.1-3.1-3.8-5.8-5.5c-2.7-1.7-5.8-3.8-7-3.8c-1.2,0,0-5.1-7.4-9.4
			c-7.4-4.3-17.1-13.6-18.2-14.5c-1.2-0.9-1.2-7.7-7.4-13.2c-6.2-5.5-10.1-20.4-16.7-23.4c-6.6-3-9.3-6.4-12.8-10.6
			c-3.5-4.3-7-12.3-11.3-14.5c-4.3-2.1-5.4-8.5-7.4-13.2c-1.9-4.7-21.7-37.4-26.8-43.8c-5-6.4-9.7-16.2-13.6-20.4
			c-3.9-4.3-6.2-17.9-11.3-17.9c-5,0-8.5,7.7-12.4,14c-3.9,6.4-10.5,18.7-15.5,28.1c-5,9.4-11.6,21.3-15.9,24.2
			c-4.3,3-5.8-2.1-10.1,6.4c-4.3,8.5-7.4,16.2-13.6,20.8c-6.2,4.7-10.1,4.7-17.1,11.9c-7,7.2-8.1,9.8-15.9,21.7
			c-7.8,11.9-15.1,22.1-20.2,26.4c-5,4.3-9.7,9.4-12.8,10.6c-3.1,1.3-13.6,8.1-20.6,13.6c-7,5.5-11.6,16.2-14.4,18.7
			c-2.7,2.5-6.6,7.7-11.6,11.1c-5,3.4-6.6,7.7-12,15.3c-5.4,7.7-10.1,12.8-15.1,19.1c-5,6.4-10.1,12.3-11.3,14.5
			c-1.2,2.1,150.2,0,152.9,0c2.7,0,229.3,0.9,229.3,0.9h30.7L733.2,459.5z"/>
	</defs>
	<clipPath id="SVGID_4_">
		<use xlink:href="#SVGID_3_"  style="overflow:visible;"/>
	</clipPath>
	<g class="st7">
		<path class="st5" d="M544.9,208.2c0,0-0.3,13.1,2.9,22.3c3.2,9.2,7.9,23,8.4,26.8c0.6,3.8,3.5,17.5,7.6,23.9
			c4.1,6.4,10.8,21.7,10.8,21.7s-14.8-16.3-16.3-18.5c-1.5-2.2-5.2-13.7-5.2-13.7s2.9,21.7,8.1,39.9c5.2,18.2,5.2,25,13.4,31
			c8.1,6,19.8,20,22.7,23.9c2.9,3.8,9,15,9.9,16.9c0.9,1.9,4.7,16.3,4.7,16.3s2.9-20.1,0-24.2c-2.9-4.1-5.8-13.1-5.8-13.1
			s16,18.2,22.7,23.9c6.7,5.7,11.1,11.5,14.8,16.3c3.8,4.8,11.9,13.7,16.3,17.5c4.4,3.8,15.7,18.8,15.7,18.8s-1.2-10.8-5.8-17.2
			c-4.7-6.4-6.1-16.3-6.1-16.3s10.5,7.7,18.6,12.4c8.1,4.8,14.3,8.3,18,11.8c3.8,3.5,12.5,16.9,15.7,19.1c3.2,2.2,11.9,14,13.1,17.2
			c1.2,3.2,6.7,13.4,6.7,13.4s8.7-5.7,9-8.1c0.3-2.4-20.1-43.2-22.4-44.5c-2.3-1.3-13.1-12.8-18.6-16.6
			c-5.5-3.8-25.6-24.2-30.6-27.4c-4.9-3.2-16.9-11.8-18.6-13.4c-1.7-1.6-6.4-18.2-6.4-18.2s-29.1-53.9-30-54.8
			c-0.9-1-22.1-23.6-25.9-29c-3.8-5.4-13.7-33.5-20.4-38.9C565.3,221.9,544.9,208.2,544.9,208.2z"/>
		<path class="st5" d="M549.3,350.4c0,0,4.5,18.3,6.6,23.6c2.1,5.3,5.2,9.6,10.9,15.7c5.6,6.2,15.7,19.6,17.1,21.3
			c1.4,1.7,12,14,12.6,15.1c0.6,1.1-8.5-24-11.8-31c-3.3-7-9.1-18.5-10.9-20.2c-1.7-1.7-2.9-3-5.4-6
			C565.8,366,549.3,350.4,549.3,350.4z"/>
	</g>
</g>
<path class="st8" d="M289.9,307.8c0,0,25.2-1.9,30.1-2.7c4.9-0.8,7-1.6,10.5-1.9c3.5-0.4,1.2-3.3,6.4-3.5c0,0,0.4-7,6.2-7
	c6.7,0,7.6,7.6,7.6,7.6s2-3.1,5-2.1c4.5,1.5,4.5,5,4.5,5s4.5-1.2,7,1.4c2.5,2.5,52,3.3,52,3.3H289.9z"/>
<path class="st0" d="M-61.2,473.8v-99.6l9,11c0,0,62.3-76.6,67.6-83c5.3-6.4,25.8-34.7,27.4-36.4c1.6-1.7,4.2-3.2,4.2-3.2
	s30,34.1,37.1,42.2c7.1,8.2,12.4,12.5,17.4,16.9c5,4.4,12.9,10.9,15.3,15c2.4,4.2,8.9,11.7,11.8,17c2.9,5.2,7.4,13.1,12.9,16.9
	c5.5,3.8,12.1,11.4,16,15.7c3.9,4.4,9.5,7.6,9.5,7.6s14.2-8.2,18.9-12.5c4.7-4.4,8.4-6.1,8.4-6.1s15,18.3,22.6,28
	c7.6,9.6,15.5,18.9,20.3,25c4.7,6.1,10,15.4,15.8,22.7c5.8,7.3,14.7,16.6,14.8,16.5c0,0,4.1,4.4,4.1,4.4l-328.6,1.9H-61.2z"/>
<g>
	<defs>
		<path id="SVGID_5_" d="M-61.2,473.7v-99.6l9,11c0,0,62.3-76.6,67.6-83c5.3-6.4,25.8-34.7,27.4-36.4c1.6-1.7,4.2-3.2,4.2-3.2
			s30,34.1,37.1,42.2c7.1,8.2,12.4,12.5,17.4,16.9c5,4.4,12.9,10.9,15.3,15c2.4,4.2,8.9,11.7,11.8,17c2.9,5.2,7.4,13.1,12.9,16.9
			c5.5,3.8,12.1,11.4,16,15.7c3.9,4.4,9.5,7.6,9.5,7.6s14.2-8.2,18.9-12.5c4.7-4.4,8.4-6.1,8.4-6.1s15,18.3,22.6,28
			c7.6,9.6,15.5,18.9,20.3,25c4.7,6.1,10,15.4,15.8,22.7c5.8,7.3,14.7,16.6,14.8,16.5c0,0,4.1,4.4,4.1,4.4l-328.6,1.9H-61.2z"/>
	</defs>
	<clipPath id="SVGID_6_">
		<use xlink:href="#SVGID_5_"  style="overflow:visible;"/>
	</clipPath>
	<g class="st9">
		<path class="st5" d="M38.5,258.5c0,0.9,11.6,22.7,16.8,27.4c5.3,4.7,13.4,11.1,13.4,11.1l6.1,7.6c0,0-6.3-3.2-8.9-4.7
			c-2.6-1.5-13.4-10.2-13.4-10.2s4.5,9.9,6.3,12.2c1.8,2.3,8.2,12.2,10.8,16.6c2.6,4.4,7.1,12.2,10.5,18.1c3.4,5.8,11,16,12.4,17.5
			c1.3,1.5,7.6,11.9,7.6,11.9s-5.5-16.9-8.7-20.7c-3.2-3.8-6.6-10.8-6.6-11.9c0-1.2,0.3-7.3,0.3-7.3s5,8.3,8.2,10.7
			c3.2,2.4,13.4,12.6,16.6,15.2c3.2,2.6,12.9,10.5,15,15.3c2.1,4.8,16,22.9,16,22.9l-7.9-16.9c0,0,15,13.7,19.2,16.9
			c4.2,3.2,11.6,8.7,12.9,10.5c1.3,1.7,8.7,7.6,8.7,7.6s-5-10.8-10-20.7c-5-9.9-10.5-21-11-22.4c-0.5-1.5-14.5-31.7-14.5-31.7
			S56.7,255.5,55.9,255c-0.8-0.6-8.9-2-10.3-2.3C44.3,252.3,38.5,258.5,38.5,258.5z"/>
		<path class="st5" d="M90.9,372.8c0,0,14.2,6,16.7,8c2.5,1.9,8.1,10.3,9.5,12c1.4,1.7,3.9,7.6,6,11.6c2.1,4.1,7,14.8,7.7,16.1
			c0.7,1.4,3,9.9,3,9.9l-7.7-11.6c0,0-12.1-15.7-13.7-16.3c-1.6-0.6-7-10.3-7.7-11.6c-0.7-1.4-8.2-10.5-8.2-10.5L90.9,372.8z"/>
		<path class="st5" d="M194.4,372.4v6.2c0,0-0.7,8.3,3.5,11.8c4.2,3.5,5.4,9.3,5.8,10.1c0.4,0.8,3.3,11.3,3.3,11.3l-17-13
			c0,0,9.3,16.3,10.2,17.7c0.9,1.4,11.7,14.8,12.5,15.5c0.7,0.8-1.8-9.9-1.8-9.9s14.4,20,16.3,21.9c1.9,1.9,8.1,8,11.2,9.3
			c3.2,1.4,13.9,7.4,15.3,10.3c1.4,2.9,3,6.3,3,6.3s14.4-4.2,15.3-4c0.9,0.2,10.1,7.2,9.1,4.9c-1.1-2.3-20.3-36.5-29.6-47.6
			c-9.3-11.1-40.7-43.3-43.1-44.5c-2.5-1.2-7.5-4.5-10-5.6C195.8,372,194.4,372.4,194.4,372.4z"/>
	</g>
</g>
<path class="st8" d="M564.7,235.7l34.4-2.6l14.4-4.2c0,0,2.6-1.7,4.2-1.7c0,0,0.5-2.8,3.5-2.6c0,0-0.7-6.1,4.5-7.3
	c5.2-1.2,8,2.4,8,2.4s0.3-11.5,12.3-11.5c12,0,14.3,8.7,14.3,8.7s4.5-0.5,5.4,3.8c0,0,9.7-5.9,13.4,4.2c0,0,11.8,2.4,15.8,4.9
	c4,2.6,28.7,5.9,28.7,5.9H564.7z"/>
<path class="st6" d="M307.1,342.8c0,0,5.5-1.2,6.5-1.3c1-0.1,2.3,0.2,2.8-0.4c0.6-0.6,1.2-2.6,4.4-2.8c0,0,1.2-6.3,5.6-6
	c4.4,0.2,6.4,4.2,7.1,7.1c0,0,1.4-2.9,4.9-1.9c3.5,1,3.9,4.5,3.9,4.5s3.4-1,4.8-0.6c1.4,0.4,3.2,2.3,5.3,2.3h-54.1L307.1,342.8z"/>
<path class="st6" d="M157,260.1l9.8-2.7c0,0,0.6-2.5,4.3-2.1c0,0-0.1-1.9,3-1.4c0,0-1.3-6.3,3.6-6.6c4.8-0.3,6.5,2.5,7.4,4.3
	c0,0,1.4-9.9,9.9-10.5c8.4-0.6,11.5,6.5,11.5,6.5s4.3-1.8,6.7,2.9c0,0,2.7-2.1,6.9-0.9c4.3,1.2,4.8,5,4.8,5s4.6-0.1,7.1,0.8
	c2.5,0.8,9.3,4.2,12.2,4.7H157z"/>
<path class="st10" d="M-33.8,443.6c0,0,51.7-12.4,72.5-8.3c20.8,4.1,215.3,89,237.8,91.7c22.5,2.7,98.6,0,98.6,0l173.6,32.5
	L1125.7,329v230.5l-539.5,25.9l-48.5,11l-360.4-32.7c0,0-15.6-11.4-84.9-10.3c-69.3,1.1-124.1,0-124.1,0L-33.8,443.6z"/>
<path class="st11" d="M-27.8,516.7l173.3,2.2l121,34.5l251,18.7l100.6-12.5L851.4,572l-85,44.6L648,608.9l-87.5,2.2
	c0,0-37.3,36.4-130.6,24.5s-457.7,5.6-457.7,5.6L-27.8,516.7z"/>
<polygon class="st1" points="-37.3,599.9 350.9,608.9 532,596.3 752.7,591.2 896.2,543.2 1132.5,514.4 1132.5,690.3 -37.3,690.3 "/>
<g>
	<path class="st10" d="M950.6,377.1c-0.2-3.7-0.2-7.2-0.5-10.7c-0.5-7.2-1.1-14.4-1.6-21.6c-0.2-2.8-1.9-4.7-4.3-5.9
		c-3.4-1.7-7.5-1-10.3,1.6c-1.2,1.1-1.8,2.3-1.9,3.9c-0.1,2.3-0.4,4.7-0.5,7c-0.5,8.2-1,16.5-1.4,24.7c0,0.3-0.1,0.5-0.1,0.8
		c-1.1-0.2-2.1-0.7-3-1.4c-1.8-1.6-2.6-3.7-3.1-5.9c-0.6-2.8-0.7-5.6-0.7-8.5c0-2.5-1.8-4.3-4.2-4.4c-2.4,0-4.4,1.8-4.4,4.3
		c0,2.7,0.1,5.4,0.4,8c0.4,3.5,1.4,6.8,3.4,9.7c2.6,3.9,6.2,6.3,10.9,7c0.6,0.1,0.8,0.4,0.8,0.9c0.2,6.6,1.2,13.2,2.3,19.8
		c-3.8,0.4-7.6,0.9-11.3,2c12.9,0,25.7,0,38.6,0c0-0.1,0-0.2,0-0.3c-3.9-0.6-7.7-1.2-11.6-1.8c0-0.1,0-0.3,0.1-0.4
		c0.5-2.6,1.3-5.2,1.6-7.9c0.4-3.8,0.6-7.5,0.8-11.3c0-0.7,0.2-0.9,0.9-1c6.1-0.9,10.2-4.4,12.7-9.9c2.2-4.9,2.5-10,2.3-15.3
		c-0.1-2.2-2.1-3.9-4.3-3.9c-2.2,0-4.1,1.7-4.3,4c-0.1,1.6,0,3.3-0.1,4.9c-0.2,2.9-0.7,5.8-2.3,8.3
		C954.2,375.6,952.7,376.7,950.6,377.1z"/>
	<path class="st10" d="M950.6,377.1c2.1-0.4,3.6-1.5,4.7-3.2c1.6-2.5,2.1-5.4,2.3-8.3c0.1-1.6,0-3.3,0.1-4.9c0.1-2.3,2-4,4.3-4
		c2.2,0,4.2,1.7,4.3,3.9c0.3,5.2-0.1,10.4-2.3,15.3c-2.5,5.5-6.6,9-12.7,9.9c-0.7,0.1-0.9,0.4-0.9,1c-0.2,3.8-0.4,7.6-0.8,11.3
		c-0.3,2.7-1,5.3-1.6,7.9c0,0.1-0.1,0.3-0.1,0.4c3.9,0.6,7.7,1.2,11.6,1.8c0,0.1,0,0.2,0,0.3c-12.9,0-25.7,0-38.6,0
		c3.7-1.1,7.5-1.6,11.3-2c-1.1-6.7-2.1-13.2-2.3-19.8c0-0.6-0.2-0.8-0.8-0.9c-4.7-0.7-8.3-3.1-10.9-7c-2-2.9-3.1-6.2-3.4-9.7
		c-0.3-2.7-0.4-5.3-0.4-8c0-2.5,2-4.3,4.4-4.3c2.4,0,4.2,1.9,4.2,4.4c0,2.9,0.1,5.7,0.7,8.5c0.5,2.2,1.4,4.3,3.1,5.9
		c0.9,0.8,1.9,1.3,3,1.4c0-0.3,0.1-0.5,0.1-0.8c0.5-8.2,1-16.5,1.4-24.7c0.1-2.3,0.4-4.7,0.5-7c0.1-1.6,0.7-2.8,1.9-3.9
		c2.8-2.6,7-3.3,10.3-1.6c2.4,1.2,4,3,4.3,5.9c0.5,7.2,1.1,14.4,1.6,21.6C950.4,370,950.4,373.5,950.6,377.1z"/>
</g>
<g>
	<path class="st10" d="M717.5,473.1c-0.2-3.7-0.2-7.2-0.5-10.7c-0.5-7.2-1.1-14.4-1.6-21.6c-0.2-2.8-1.9-4.7-4.3-5.9
		c-3.4-1.7-7.5-1-10.3,1.6c-1.2,1.1-1.8,2.3-1.9,3.9c-0.1,2.3-0.4,4.7-0.5,7c-0.5,8.2-1,16.5-1.4,24.7c0,0.3-0.1,0.5-0.1,0.8
		c-1.1-0.2-2.1-0.7-3-1.4c-1.8-1.6-2.6-3.7-3.1-5.9c-0.6-2.8-0.7-5.6-0.7-8.5c0-2.5-1.8-4.3-4.2-4.4c-2.4,0-4.4,1.8-4.4,4.3
		c0,2.7,0.1,5.4,0.4,8c0.4,3.5,1.4,6.8,3.4,9.7c2.6,3.9,6.2,6.3,10.9,7c0.6,0.1,0.8,0.4,0.8,0.9c0.2,6.6,1.2,13.2,2.3,19.8
		c-3.8,0.4-7.6,0.9-11.3,2c12.9,0,25.7,0,38.6,0c0-0.1,0-0.2,0-0.3c-3.9-0.6-7.7-1.2-11.6-1.8c0-0.1,0-0.3,0.1-0.4
		c0.5-2.6,1.3-5.2,1.6-7.9c0.4-3.8,0.6-7.5,0.8-11.3c0-0.7,0.2-0.9,0.9-1c6.1-0.9,10.2-4.4,12.7-9.9c2.2-4.9,2.5-10,2.3-15.3
		c-0.1-2.2-2.1-3.9-4.3-3.9c-2.2,0-4.1,1.7-4.3,4c-0.1,1.6,0,3.3-0.1,4.9c-0.2,2.9-0.7,5.8-2.3,8.3
		C721,471.5,719.6,472.6,717.5,473.1z"/>
	<path class="st10" d="M717.5,473.1c2.1-0.4,3.6-1.5,4.7-3.2c1.6-2.5,2.1-5.4,2.3-8.3c0.1-1.6,0-3.3,0.1-4.9c0.1-2.3,2-4,4.3-4
		c2.2,0,4.2,1.7,4.3,3.9c0.3,5.2-0.1,10.4-2.3,15.3c-2.5,5.5-6.6,9-12.7,9.9c-0.7,0.1-0.9,0.4-0.9,1c-0.2,3.8-0.4,7.6-0.8,11.3
		c-0.3,2.7-1,5.3-1.6,7.9c0,0.1-0.1,0.3-0.1,0.4c3.9,0.6,7.7,1.2,11.6,1.8c0,0.1,0,0.2,0,0.3c-12.9,0-25.7,0-38.6,0
		c3.7-1.1,7.5-1.6,11.3-2c-1.1-6.7-2.1-13.2-2.3-19.8c0-0.6-0.2-0.8-0.8-0.9c-4.7-0.7-8.3-3.1-10.9-7c-2-2.9-3.1-6.2-3.4-9.7
		c-0.3-2.7-0.4-5.3-0.4-8c0-2.5,2-4.3,4.4-4.3c2.4,0,4.2,1.9,4.2,4.4c0,2.9,0.1,5.7,0.7,8.5c0.5,2.2,1.4,4.3,3.1,5.9
		c0.9,0.8,1.9,1.3,3,1.4c0-0.3,0.1-0.5,0.1-0.8c0.5-8.2,1-16.5,1.4-24.7c0.1-2.3,0.4-4.7,0.5-7c0.1-1.6,0.7-2.8,1.9-3.9
		c2.8-2.6,7-3.3,10.3-1.6c2.4,1.2,4,3,4.3,5.9c0.5,7.2,1.1,14.4,1.6,21.6C717.2,465.9,717.3,469.4,717.5,473.1z"/>
</g>
<g>
	<path class="st10" d="M17.9,428c-0.1-2.4-0.2-4.7-0.3-7c-0.3-4.7-0.7-9.4-1-14.2c-0.1-1.8-1.2-3-2.8-3.8c-2.2-1.1-4.9-0.6-6.8,1
		c-0.8,0.7-1.2,1.5-1.2,2.6c-0.1,1.5-0.2,3.1-0.3,4.6c-0.3,5.4-0.6,10.8-0.9,16.2c0,0.2,0,0.4-0.1,0.5c-0.7-0.1-1.4-0.4-2-0.9
		c-1.1-1-1.7-2.4-2-3.9C0,421.3,0,419.4,0,417.6c0-1.6-1.2-2.8-2.8-2.9c-1.6,0-2.9,1.2-2.9,2.8c0,1.8,0.1,3.5,0.3,5.3
		c0.2,2.3,0.9,4.5,2.2,6.4c1.7,2.5,4.1,4.1,7.1,4.6c0.4,0.1,0.5,0.2,0.5,0.6c0.2,4.3,0.8,8.6,1.5,13c-2.5,0.3-5,0.6-7.4,1.3
		c8.4,0,16.8,0,25.3,0c0-0.1,0-0.1,0-0.2c-2.5-0.4-5.1-0.8-7.6-1.2c0-0.1,0-0.2,0-0.3c0.4-1.7,0.8-3.4,1-5.2
		c0.3-2.5,0.4-4.9,0.5-7.4c0-0.4,0.1-0.6,0.6-0.7c4-0.6,6.7-2.9,8.3-6.5c1.4-3.2,1.7-6.6,1.5-10c-0.1-1.5-1.4-2.6-2.8-2.6
		c-1.5,0-2.7,1.1-2.8,2.6c-0.1,1.1,0,2.1-0.1,3.2c-0.1,1.9-0.4,3.8-1.5,5.4C20.3,427,19.3,427.8,17.9,428z"/>
	<path class="st10" d="M17.9,428c1.4-0.3,2.4-1,3.1-2.1c1.1-1.7,1.4-3.5,1.5-5.4c0.1-1.1,0-2.1,0.1-3.2c0.1-1.5,1.3-2.6,2.8-2.6
		c1.5,0,2.8,1.1,2.8,2.6c0.2,3.4-0.1,6.8-1.5,10c-1.6,3.6-4.3,5.9-8.3,6.5c-0.4,0.1-0.6,0.2-0.6,0.7c-0.1,2.5-0.2,5-0.5,7.4
		c-0.2,1.7-0.7,3.4-1,5.2c0,0.1,0,0.2,0,0.3c2.5,0.4,5.1,0.8,7.6,1.2c0,0.1,0,0.1,0,0.2c-8.4,0-16.8,0-25.3,0c2.4-0.7,4.9-1,7.4-1.3
		c-0.7-4.4-1.3-8.6-1.5-13c0-0.4-0.1-0.6-0.5-0.6c-3.1-0.5-5.4-2-7.1-4.6c-1.3-1.9-2-4.1-2.2-6.4c-0.2-1.7-0.3-3.5-0.3-5.3
		c0-1.6,1.3-2.8,2.9-2.8c1.6,0,2.8,1.2,2.8,2.9c0,1.9,0,3.7,0.5,5.6c0.3,1.5,0.9,2.8,2,3.9c0.6,0.5,1.2,0.8,2,0.9
		c0-0.2,0-0.4,0.1-0.5c0.3-5.4,0.6-10.8,0.9-16.2c0.1-1.5,0.3-3.1,0.3-4.6c0-1.1,0.5-1.9,1.2-2.6c1.8-1.7,4.6-2.1,6.8-1
		c1.6,0.8,2.7,2,2.8,3.8c0.4,4.7,0.7,9.4,1,14.2C17.8,423.3,17.8,425.6,17.9,428z"/>
</g>
<g>
	<path class="st10" d="M876.7,409.4c0-2.9,0-5.8,0-8.6c0.7-2,2.2-2.6,3.8-1.7c0.9,0.6,1.1,1.5,1.1,2.4c0,1.7,0,3.4,0,5.1
		c1,0,1.9,0,2.8,0c0-0.4,0-0.7,0-1.1c0-5.7,0-11.3,0-17c0-1.5,0.4-2.5,1.9-3c0.3,0,0.7,0,1,0c1.6,0.7,1.9,1.2,1.9,3
		c0,4.5,0,8.9,0,13.4c0,0.3,0,0.6,0,0.9c1,0,1.9,0,2.8,0c0-1.8,0-3.5,0-5.2c0-0.6,0.1-1.2,0.4-1.7c0.4-0.8,1.3-1.1,2.2-1
		c1.1,0.1,1.8,0.7,2.2,1.7c0,3.1,0,6.2,0,9.3c-0.6,1.1-1.4,1.8-2.7,1.7c-0.7,0-1.4,0-2,0c-0.9,0-1.8,0-2.8,0c0,0.5,0,0.8,0,1.1
		c0,5.7,0,11.5,0,17.2c0,1.3-0.3,2.4-1.6,3c-0.6,0-1.1,0-1.7,0c-1.3-0.7-1.5-1.8-1.5-3.2c0-4.4,0-8.9,0-13.3c0-0.3,0-0.6,0-1
		c-1.5,0-3-0.1-4.4,0C878.4,411.5,877.2,411,876.7,409.4z"/>
</g>
<g>
	<path class="st10" d="M317.5,507.8c0-4.5,0-9,0-13.6c1.1-3.1,3.5-4.1,5.9-2.7c1.5,0.9,1.7,2.3,1.7,3.8c0,2.7,0,5.4,0,8.1
		c1.5,0,2.9,0,4.4,0c0-0.6,0-1.2,0-1.7c0-8.9,0-17.8,0-26.7c0-2.3,0.7-3.9,2.9-4.7c0.5,0,1.1,0,1.6,0c2.5,1.1,3,1.8,3,4.6
		c0,7,0,14,0,21c0,0.5,0,0.9,0,1.5c1.5,0,2.9,0,4.4,0c0-2.8,0-5.5,0-8.2c0-0.9,0.2-1.9,0.6-2.7c0.7-1.3,2-1.7,3.4-1.6
		c1.7,0.1,2.8,1.1,3.4,2.6c0,4.9,0,9.7,0,14.6c-0.9,1.8-2.2,2.8-4.3,2.7c-1.1,0-2.1,0-3.2,0c-1.4,0-2.9,0-4.4,0c0,0.7,0,1.3,0,1.8
		c0,9,0,18,0,27c0,2.1-0.5,3.7-2.5,4.7c-0.9,0-1.8,0-2.7,0c-2-1.1-2.4-2.9-2.4-5c0.1-6.9,0-13.9,0-20.8c0-0.5,0-0.9,0-1.5
		c-2.4,0-4.7-0.1-6.9,0C320,511.1,318.3,510.3,317.5,507.8z"/>
</g>
<g>
	<path class="st10" d="M438.4,488.7c0-9.7,0-19.3,0-29c2.4-6.6,7.4-8.8,12.6-5.7c3.1,1.9,3.6,4.9,3.6,8.1c0.1,5.7,0,11.5,0,17.3
		c3.3,0,6.2,0,9.3,0c0-1.4,0-2.5,0-3.6c0-19,0.1-38.1,0-57.1c0-4.9,1.5-8.4,6.3-10.1c1.1,0,2.3,0,3.4,0c5.3,2.2,6.4,3.9,6.4,9.9
		c0,14.9,0,29.9,0,44.8c0,1,0,2,0,3.1c3.3,0,6.3,0,9.4,0c0-6-0.1-11.7,0.1-17.5c0.1-1.9,0.4-4,1.3-5.7c1.5-2.8,4.2-3.6,7.3-3.5
		c3.7,0.2,6,2.3,7.4,5.7c0,10.4,0,20.9,0,31.3c-1.9,3.8-4.7,6-9.1,5.9c-2.3-0.1-4.5,0-6.8,0c-3.1,0-6.2,0-9.5,0c0,1.6,0,2.7,0,3.8
		c0,19.2-0.1,38.5,0.1,57.7c0,4.5-1.1,8-5.3,10c-1.9,0-3.8,0-5.7,0c-4.3-2.3-5.2-6.1-5.1-10.7c0.1-14.9,0.1-29.7,0.1-44.6
		c0-1,0-2,0-3.3c-5.2,0-10-0.2-14.8,0C443.9,495.9,440.1,494,438.4,488.7z"/>
</g>
<g>
	<path class="st11" d="M42.1,522.2c-2.6,0.6-5.3,1.5-7.9,2.7c-2.6,1.2-5,2.7-7.2,4.6c17.5,0,34.8,0,52.3,0c-2-1.8-4.2-3.3-6.6-4.3
		c-2.4-1.1-4.8-2-7.1-2.9c0.3-3.2-0.2-6.4-0.1-9.6c2.3-0.2,3.9-1.2,4.5-3.4c0.2-0.8,0.4-1.6,0.4-2.4c0-1.9-0.1-3.7-0.2-5.6
		c0-1-0.8-1.7-1.7-1.7c-0.9,0-1.6,0.8-1.6,1.8c0,1.2,0,2.4,0,3.6c-0.1,0.9-0.2,1.9-0.4,2.8c-0.2,0.8-0.4,0.8-1.2,0.7
		c0-0.1,0-0.2,0-0.3c-0.1-3.3-0.2-6.6-0.4-9.9c-0.1-1.3-0.1-2.6-0.2-4c-0.1-1-1-1.7-2-1.7c-1,0-1.9,0.8-1.9,1.8c-0.1,2-0.2,4-0.2,6
		c-0.1,1.8-0.2,3.7-0.2,5.5c-1.6-0.1-1.5,0.3-1.6-1.4c-0.1-1.4,0-2.7,0.1-4.1c0-0.8-0.5-1.5-1.3-1.7c-0.8-0.1-1.5,0.4-1.7,1.2
		c-0.1,0.3-0.1,0.6-0.2,0.8c-0.2,1.8-0.5,3.6-0.3,5.4c0.2,1.8,1.2,2.9,2.9,3.3c0.6,0.1,1.2,0.2,1.9,0.2c-0.1,3.8-0.3,7.5-0.5,11.3
		c-2-0.1-4-0.3-6-0.4c-0.3-9.4-0.7-18.8-1-28.2c0.6,0.1,1.2,0.3,1.8,0.2c3.2-0.3,6-1.8,7.4-5.4c0.8-2,1-4.2,1-6.3
		c-0.1-3.6-0.4-7.3-0.6-10.9c0-0.6-0.2-1.2-0.4-1.7c-0.6-1.2-2-1.7-3.2-1.4c-1.3,0.4-2.2,1.5-2.2,2.9c0.1,3.8,0.2,7.6-0.2,11.4
		c-0.1,1.1-0.5,2.2-0.8,3.3c-0.1,0.4-0.4,0.6-0.8,0.7c-0.7,0.1-1.5,0.2-2.3,0.3c0-0.7,0-1.5,0-2.3c-0.1-3.7-0.3-7.3-0.4-11
		c-0.1-2.3-0.1-4.7-0.3-7c-0.1-2.1-1.8-3.6-3.8-3.6c-2,0-3.7,1.5-3.8,3.5c-0.3,6.1-0.5,12.1-0.7,18.2c-0.1,3.8-0.3,7.5-0.4,11.3
		c0,0.9-0.1,1.8-0.1,2.7c-0.8-0.5-1.6-0.8-2.5-0.6c-0.4,0.1-0.6,0-0.7-0.5c-0.2-1.4-0.5-2.8-0.5-4.3c-0.1-1.9,0-3.9,0-5.8
		c0-1.6-1.1-2.9-2.7-3c-1.5-0.1-2.9,0.9-3.1,2.5c-0.2,1.7-0.4,3.4-0.5,5.1c-0.1,2.6-0.2,5.2,0.4,7.8c0.8,3.4,3.2,5.5,6.7,5.4
		c0.9,0,1.8,0,2.7-0.5c0,0.3,0,0.6,0,0.8c-0.1,3.4-0.3,6.8-0.4,10.2C42.2,517.2,42.1,519.6,42.1,522.2z"/>
	<path class="st11" d="M42.1,522.2c0.1-2.6,0.1-5,0.2-7.5c0.1-3.4,0.3-6.8,0.4-10.2c0-0.2,0-0.4,0-0.8c-0.9,0.5-1.8,0.5-2.7,0.5
		c-3.5,0-5.9-2-6.7-5.4c-0.6-2.6-0.5-5.2-0.4-7.8c0.1-1.7,0.3-3.4,0.5-5.1c0.2-1.6,1.6-2.6,3.1-2.5c1.5,0.1,2.7,1.4,2.7,3
		c0,1.9-0.1,3.9,0,5.8c0.1,1.4,0.4,2.8,0.5,4.3c0.1,0.4,0.3,0.5,0.7,0.5c0.9-0.1,1.7,0.1,2.5,0.6c0-0.9,0.1-1.8,0.1-2.7
		c0.1-3.8,0.3-7.5,0.4-11.3c0.2-6.1,0.4-12.1,0.7-18.2c0.1-1.9,1.8-3.5,3.8-3.5c2,0,3.7,1.5,3.8,3.6c0.1,2.3,0.2,4.7,0.3,7
		c0.1,3.7,0.3,7.3,0.4,11c0,0.8,0,1.6,0,2.3c0.8-0.1,1.6-0.2,2.3-0.3c0.4-0.1,0.7-0.3,0.8-0.7c0.3-1.1,0.6-2.2,0.8-3.3
		c0.5-3.8,0.3-7.6,0.2-11.4c0-1.4,0.8-2.5,2.2-2.9c1.2-0.3,2.6,0.2,3.2,1.4c0.3,0.5,0.4,1.1,0.4,1.7c0.2,3.6,0.5,7.3,0.6,10.9
		c0.1,2.1-0.2,4.3-1,6.3c-1.4,3.6-4.1,5.1-7.4,5.4c-0.6,0-1.2-0.1-1.8-0.2c0.3,9.4,0.7,18.8,1,28.2c2,0.1,4,0.3,6,0.4
		c0.1-3.7,0.3-7.5,0.5-11.3c-0.6-0.1-1.3-0.1-1.9-0.2c-1.7-0.4-2.7-1.5-2.9-3.3c-0.2-1.8,0.1-3.6,0.3-5.4c0-0.3,0.1-0.6,0.2-0.8
		c0.2-0.8,0.9-1.3,1.7-1.2c0.8,0.1,1.3,0.8,1.3,1.7c0,1.4-0.1,2.7-0.1,4.1c0.1,1.6,0,1.2,1.6,1.4c0.1-1.8,0.2-3.7,0.2-5.5
		c0.1-2,0.1-4,0.2-6c0-1,0.9-1.8,1.9-1.8c1,0,1.9,0.7,2,1.7c0.1,1.3,0.2,2.6,0.2,4c0.1,3.3,0.2,6.6,0.4,9.9c0,0.1,0,0.2,0,0.3
		c0.8,0.1,1.1,0,1.2-0.7c0.2-0.9,0.4-1.9,0.4-2.8c0.1-1.2,0-2.4,0-3.6c0-1,0.6-1.8,1.6-1.8c0.9,0,1.6,0.7,1.7,1.7
		c0.1,1.9,0.2,3.7,0.2,5.6c0,0.8-0.2,1.6-0.4,2.4c-0.6,2.2-2.2,3.2-4.5,3.4c-0.1,3.2,0.5,6.4,0.1,9.6c2.3,0.9,4.7,1.8,7.1,2.9
		c2.4,1.1,4.5,2.5,6.6,4.3c-17.5,0-34.8,0-52.3,0c2.2-2,4.6-3.4,7.2-4.6C36.8,523.7,39.5,522.8,42.1,522.2z"/>
</g>
<g>
	<path class="st12" d="M148.4,622.8c-3.7,0.9-7.4,2.1-11,3.8c-3.6,1.7-7,3.7-10,6.5c24.4,0,48.7,0,73.1,0c-2.8-2.5-5.9-4.5-9.2-6
		c-3.3-1.5-6.7-2.8-10-4c0.4-4.4-0.3-8.9-0.2-13.4c3.2-0.2,5.4-1.7,6.3-4.8c0.3-1.1,0.5-2.2,0.5-3.3c0-2.6-0.2-5.2-0.3-7.8
		c-0.1-1.4-1.1-2.4-2.3-2.4c-1.3,0-2.2,1.1-2.2,2.5c0,1.7,0.1,3.3,0,5c-0.1,1.3-0.3,2.7-0.6,3.9c-0.2,1.1-0.6,1.2-1.7,1
		c0-0.1,0-0.3-0.1-0.5c-0.2-4.6-0.3-9.2-0.5-13.8c-0.1-1.8-0.1-3.7-0.3-5.5c-0.1-1.4-1.4-2.4-2.8-2.4c-1.5,0-2.6,1.1-2.7,2.6
		c-0.1,2.8-0.2,5.6-0.3,8.4c-0.1,2.6-0.2,5.1-0.3,7.7c-2.3-0.2-2.1,0.4-2.2-1.9c-0.1-1.9,0-3.8,0.1-5.7c0-1.2-0.7-2.1-1.8-2.3
		c-1.1-0.2-2.1,0.5-2.4,1.7c-0.1,0.4-0.2,0.8-0.2,1.2c-0.3,2.5-0.7,5-0.4,7.5c0.3,2.5,1.7,4.1,4.1,4.6c0.8,0.2,1.7,0.2,2.6,0.3
		c-0.2,5.3-0.4,10.5-0.6,15.8c-2.8-0.2-5.6-0.4-8.4-0.6c-0.5-13.2-1-26.3-1.4-39.4c0.9,0.1,1.7,0.4,2.5,0.3
		c4.5-0.4,8.4-2.4,10.3-7.5c1.1-2.9,1.5-5.8,1.4-8.8c-0.1-5.1-0.5-10.2-0.8-15.2c-0.1-0.8-0.2-1.7-0.6-2.4c-0.8-1.6-2.8-2.4-4.5-1.9
		c-1.9,0.5-3.1,2.1-3,4c0.1,5.3,0.3,10.7-0.3,16c-0.2,1.6-0.7,3.1-1.1,4.7c-0.1,0.5-0.5,0.9-1.1,0.9c-1,0.1-2,0.3-3.2,0.5
		c0-1,0-2.2,0-3.3c-0.2-5.1-0.4-10.2-0.6-15.3c-0.1-3.3-0.2-6.5-0.4-9.8c-0.1-2.9-2.5-5.1-5.3-5.1c-2.8,0-5.1,2.1-5.3,4.8
		c-0.4,8.5-0.7,17-1,25.5c-0.2,5.3-0.4,10.5-0.6,15.8c0,1.2-0.1,2.5-0.2,3.8c-1.1-0.7-2.2-1.1-3.5-0.9c-0.6,0.1-0.9-0.1-1-0.7
		c-0.3-2-0.7-4-0.8-6c-0.1-2.7,0-5.4-0.1-8.1c0-2.2-1.6-4-3.7-4.2c-2.1-0.2-4,1.3-4.3,3.5c-0.3,2.4-0.6,4.8-0.7,7.2
		c-0.2,3.6-0.3,7.3,0.6,10.9c1.2,4.8,4.5,7.6,9.4,7.6c1.3,0,2.5,0,3.8-0.7c0,0.5,0,0.8,0,1.1c-0.2,4.7-0.4,9.5-0.5,14.2
		C148.6,615.8,148.5,619.2,148.4,622.8z"/>
	<path class="st12" d="M148.4,622.8c0.1-3.6,0.1-7,0.3-10.4c0.2-4.7,0.4-9.5,0.5-14.2c0-0.3,0-0.6,0-1.1c-1.2,0.8-2.5,0.7-3.8,0.7
		c-4.9,0-8.2-2.8-9.4-7.6c-0.9-3.6-0.8-7.2-0.6-10.9c0.1-2.4,0.4-4.8,0.7-7.2c0.3-2.2,2.2-3.6,4.3-3.5c2.1,0.2,3.7,2,3.7,4.2
		c0,2.7-0.1,5.4,0.1,8.1c0.1,2,0.5,4,0.8,6c0.1,0.6,0.4,0.8,1,0.7c1.2-0.2,2.3,0.2,3.5,0.9c0.1-1.3,0.1-2.6,0.2-3.8
		c0.2-5.3,0.4-10.5,0.6-15.8c0.3-8.5,0.6-17,1-25.5c0.1-2.7,2.5-4.8,5.3-4.8c2.8,0,5.2,2.2,5.3,5.1c0.2,3.3,0.2,6.5,0.4,9.8
		c0.2,5.1,0.4,10.2,0.6,15.3c0,1.1,0,2.2,0,3.3c1.2-0.2,2.2-0.3,3.2-0.5c0.6-0.1,0.9-0.4,1.1-0.9c0.4-1.5,0.9-3.1,1.1-4.7
		c0.7-5.3,0.4-10.6,0.3-16c0-2,1.2-3.5,3-4c1.7-0.5,3.7,0.3,4.5,1.9c0.4,0.7,0.5,1.6,0.6,2.4c0.3,5.1,0.7,10.2,0.8,15.2
		c0.1,3-0.3,6-1.4,8.8c-1.9,5.1-5.8,7.1-10.3,7.5c-0.8,0.1-1.6-0.2-2.5-0.3c0.5,13.1,1,26.3,1.4,39.4c2.8,0.2,5.6,0.4,8.4,0.6
		c0.2-5.2,0.4-10.5,0.6-15.8c-0.9-0.1-1.8-0.1-2.6-0.3c-2.4-0.5-3.8-2.1-4.1-4.6c-0.3-2.5,0.1-5,0.4-7.5c0.1-0.4,0.1-0.8,0.2-1.2
		c0.3-1.2,1.3-1.8,2.4-1.7c1.1,0.2,1.8,1.1,1.8,2.3c-0.1,1.9-0.2,3.8-0.1,5.7c0.1,2.3,0,1.7,2.2,1.9c0.1-2.6,0.2-5.1,0.3-7.7
		c0.1-2.8,0.2-5.6,0.3-8.4c0.1-1.4,1.2-2.5,2.7-2.6c1.4,0,2.6,0.9,2.8,2.4c0.2,1.8,0.2,3.7,0.3,5.5c0.2,4.6,0.3,9.2,0.5,13.8
		c0,0.2,0,0.3,0.1,0.5c1.2,0.2,1.5,0,1.7-1c0.3-1.3,0.5-2.6,0.6-3.9c0.1-1.7,0-3.3,0-5c0-1.4,0.9-2.5,2.2-2.5c1.3,0,2.3,1,2.3,2.4
		c0.1,2.6,0.3,5.2,0.3,7.8c0,1.1-0.2,2.2-0.5,3.3c-0.9,3.1-3.1,4.5-6.3,4.8c-0.1,4.5,0.6,9,0.2,13.4c3.2,1.3,6.6,2.6,10,4
		c3.3,1.5,6.4,3.5,9.2,6c-24.4,0-48.7,0-73.1,0c3.1-2.7,6.4-4.8,10-6.5C141,624.9,144.8,623.7,148.4,622.8z"/>
</g>
<g>
	<path class="st12" d="M201.9,654.3c-3.7,0.9-7.4,2.1-11,3.8c-3.6,1.7-7,3.7-10,6.5c24.4,0,48.7,0,73.1,0c-2.8-2.5-5.9-4.5-9.2-6
		c-3.3-1.5-6.7-2.8-10-4c0.4-4.4-0.3-8.9-0.2-13.4c3.2-0.2,5.4-1.7,6.3-4.8c0.3-1.1,0.5-2.2,0.5-3.3c0-2.6-0.2-5.2-0.3-7.8
		c-0.1-1.4-1.1-2.4-2.3-2.4c-1.3,0-2.2,1.1-2.2,2.5c0,1.7,0.1,3.3,0,5c-0.1,1.3-0.3,2.7-0.6,3.9c-0.2,1.1-0.6,1.2-1.7,1
		c0-0.1,0-0.3-0.1-0.5c-0.2-4.6-0.3-9.2-0.5-13.8c-0.1-1.8-0.1-3.7-0.3-5.5c-0.1-1.4-1.4-2.4-2.8-2.4c-1.5,0-2.6,1.1-2.7,2.6
		c-0.1,2.8-0.2,5.6-0.3,8.4c-0.1,2.6-0.2,5.1-0.3,7.7c-2.3-0.2-2.1,0.4-2.2-1.9c-0.1-1.9,0-3.8,0.1-5.7c0-1.2-0.7-2.1-1.8-2.3
		c-1.1-0.2-2.1,0.5-2.4,1.7c-0.1,0.4-0.2,0.8-0.2,1.2c-0.3,2.5-0.7,5-0.4,7.5c0.3,2.5,1.7,4.1,4.1,4.6c0.8,0.2,1.7,0.2,2.6,0.3
		c-0.2,5.3-0.4,10.5-0.6,15.8c-2.8-0.2-5.6-0.4-8.4-0.6c-0.5-13.2-1-26.3-1.4-39.4c0.9,0.1,1.7,0.4,2.5,0.3
		c4.5-0.4,8.4-2.4,10.3-7.5c1.1-2.9,1.5-5.8,1.4-8.8c-0.1-5.1-0.5-10.2-0.8-15.2c-0.1-0.8-0.2-1.7-0.6-2.4c-0.8-1.6-2.8-2.4-4.5-1.9
		c-1.9,0.5-3.1,2.1-3,4c0.1,5.3,0.3,10.7-0.3,16c-0.2,1.6-0.7,3.1-1.1,4.7c-0.1,0.5-0.5,0.9-1.1,0.9c-1,0.1-2,0.3-3.2,0.5
		c0-1,0-2.2,0-3.3c-0.2-5.1-0.4-10.2-0.6-15.3c-0.1-3.3-0.2-6.5-0.4-9.8c-0.1-2.9-2.5-5.1-5.3-5.1c-2.8,0-5.1,2.1-5.3,4.8
		c-0.4,8.5-0.7,17-1,25.5c-0.2,5.3-0.4,10.5-0.6,15.8c0,1.2-0.1,2.5-0.2,3.8c-1.1-0.7-2.2-1.1-3.5-0.9c-0.6,0.1-0.9-0.1-1-0.7
		c-0.3-2-0.7-4-0.8-6c-0.1-2.7,0-5.4-0.1-8.1c0-2.2-1.6-4-3.7-4.2c-2.1-0.2-4,1.3-4.3,3.5c-0.3,2.4-0.6,4.8-0.7,7.2
		c-0.2,3.6-0.3,7.3,0.6,10.9c1.2,4.8,4.5,7.6,9.4,7.6c1.3,0,2.5,0,3.8-0.7c0,0.5,0,0.8,0,1.1c-0.2,4.7-0.4,9.5-0.5,14.2
		C202.1,647.3,202,650.7,201.9,654.3z"/>
	<path class="st12" d="M201.9,654.3c0.1-3.6,0.1-7,0.3-10.4c0.2-4.7,0.4-9.5,0.5-14.2c0-0.3,0-0.6,0-1.1c-1.2,0.8-2.5,0.7-3.8,0.7
		c-4.9,0-8.2-2.8-9.4-7.6c-0.9-3.6-0.8-7.2-0.6-10.9c0.1-2.4,0.4-4.8,0.7-7.2c0.3-2.2,2.2-3.6,4.3-3.5c2.1,0.2,3.7,2,3.7,4.2
		c0,2.7-0.1,5.4,0.1,8.1c0.1,2,0.5,4,0.8,6c0.1,0.6,0.4,0.8,1,0.7c1.2-0.2,2.3,0.2,3.5,0.9c0.1-1.3,0.1-2.6,0.2-3.8
		c0.2-5.3,0.4-10.5,0.6-15.8c0.3-8.5,0.6-17,1-25.5c0.1-2.7,2.5-4.8,5.3-4.8c2.8,0,5.2,2.2,5.3,5.1c0.2,3.3,0.2,6.5,0.4,9.8
		c0.2,5.1,0.4,10.2,0.6,15.3c0,1.1,0,2.2,0,3.3c1.2-0.2,2.2-0.3,3.2-0.5c0.6-0.1,0.9-0.4,1.1-0.9c0.4-1.5,0.9-3.1,1.1-4.7
		c0.7-5.3,0.4-10.6,0.3-16c0-2,1.2-3.5,3-4c1.7-0.5,3.7,0.3,4.5,1.9c0.4,0.7,0.5,1.6,0.6,2.4c0.3,5.1,0.7,10.2,0.8,15.2
		c0.1,3-0.3,6-1.4,8.8c-1.9,5.1-5.8,7.1-10.3,7.5c-0.8,0.1-1.6-0.2-2.5-0.3c0.5,13.1,1,26.3,1.4,39.4c2.8,0.2,5.6,0.4,8.4,0.6
		c0.2-5.2,0.4-10.5,0.6-15.8c-0.9-0.1-1.8-0.1-2.6-0.3c-2.4-0.5-3.8-2.1-4.1-4.6c-0.3-2.5,0.1-5,0.4-7.5c0.1-0.4,0.1-0.8,0.2-1.2
		c0.3-1.2,1.3-1.8,2.4-1.7c1.1,0.2,1.8,1.1,1.8,2.3c-0.1,1.9-0.2,3.8-0.1,5.7c0.1,2.3,0,1.7,2.2,1.9c0.1-2.6,0.2-5.1,0.3-7.7
		c0.1-2.8,0.2-5.6,0.3-8.4c0.1-1.4,1.2-2.5,2.7-2.6c1.4,0,2.6,0.9,2.8,2.4c0.2,1.8,0.2,3.7,0.3,5.5c0.2,4.6,0.3,9.2,0.5,13.8
		c0,0.2,0,0.3,0.1,0.5c1.2,0.2,1.5,0,1.7-1c0.3-1.3,0.5-2.6,0.6-3.9c0.1-1.7,0-3.3,0-5c0-1.4,0.9-2.5,2.2-2.5c1.3,0,2.3,1,2.3,2.4
		c0.1,2.6,0.3,5.2,0.3,7.8c0,1.1-0.2,2.2-0.5,3.3c-0.9,3.1-3.1,4.5-6.3,4.8c-0.1,4.5,0.6,9,0.2,13.4c3.2,1.3,6.6,2.6,10,4
		c3.3,1.5,6.4,3.5,9.2,6c-24.4,0-48.7,0-73.1,0c3.1-2.7,6.4-4.8,10-6.5C194.5,656.4,198.3,655.2,201.9,654.3z"/>
</g>
<g>
	<path class="st1" d="M610,598.2c-2.6,0.6-5.3,1.5-7.9,2.7c-2.6,1.2-5,2.7-7.2,4.6c17.5,0,34.8,0,52.3,0c-2-1.8-4.2-3.3-6.6-4.3
		c-2.4-1.1-4.8-2-7.1-2.9c0.3-3.2-0.2-6.4-0.1-9.6c2.3-0.2,3.9-1.2,4.5-3.4c0.2-0.8,0.4-1.6,0.4-2.4c0-1.9-0.1-3.7-0.2-5.6
		c0-1-0.8-1.7-1.7-1.7c-0.9,0-1.6,0.8-1.6,1.8c0,1.2,0,2.4,0,3.6c-0.1,0.9-0.2,1.9-0.4,2.8c-0.2,0.8-0.4,0.8-1.2,0.7
		c0-0.1,0-0.2,0-0.3c-0.1-3.3-0.2-6.6-0.4-9.9c-0.1-1.3-0.1-2.6-0.2-4c-0.1-1-1-1.7-2-1.7c-1,0-1.9,0.8-1.9,1.8c-0.1,2-0.2,4-0.2,6
		c-0.1,1.8-0.2,3.7-0.2,5.5c-1.6-0.1-1.5,0.3-1.6-1.4c-0.1-1.4,0-2.7,0.1-4.1c0-0.8-0.5-1.5-1.3-1.7c-0.8-0.1-1.5,0.4-1.7,1.2
		c-0.1,0.3-0.1,0.6-0.2,0.8c-0.2,1.8-0.5,3.6-0.3,5.4c0.2,1.8,1.2,2.9,2.9,3.3c0.6,0.1,1.2,0.2,1.9,0.2c-0.1,3.8-0.3,7.5-0.5,11.3
		c-2-0.1-4-0.3-6-0.4c-0.3-9.4-0.7-18.8-1-28.2c0.6,0.1,1.2,0.3,1.8,0.2c3.2-0.3,6-1.8,7.4-5.4c0.8-2,1-4.2,1-6.3
		c-0.1-3.6-0.4-7.3-0.6-10.9c0-0.6-0.2-1.2-0.4-1.7c-0.6-1.2-2-1.7-3.2-1.4c-1.3,0.4-2.2,1.5-2.2,2.9c0.1,3.8,0.2,7.6-0.2,11.4
		c-0.1,1.1-0.5,2.2-0.8,3.3c-0.1,0.4-0.4,0.6-0.8,0.7c-0.7,0.1-1.5,0.2-2.3,0.3c0-0.7,0-1.5,0-2.3c-0.1-3.7-0.3-7.3-0.4-11
		c-0.1-2.3-0.1-4.7-0.3-7c-0.1-2.1-1.8-3.6-3.8-3.6c-2,0-3.7,1.5-3.8,3.5c-0.3,6.1-0.5,12.1-0.7,18.2c-0.1,3.8-0.3,7.5-0.4,11.3
		c0,0.9-0.1,1.8-0.1,2.7c-0.8-0.5-1.6-0.8-2.5-0.6c-0.4,0.1-0.6,0-0.7-0.5c-0.2-1.4-0.5-2.8-0.5-4.3c-0.1-1.9,0-3.9,0-5.8
		c0-1.6-1.1-2.9-2.7-3c-1.5-0.1-2.9,0.9-3.1,2.5c-0.2,1.7-0.4,3.4-0.5,5.1c-0.1,2.6-0.2,5.2,0.4,7.8c0.8,3.4,3.2,5.5,6.7,5.4
		c0.9,0,1.8,0,2.7-0.5c0,0.3,0,0.6,0,0.8c-0.1,3.4-0.3,6.8-0.4,10.2C610.1,593.2,610.1,595.6,610,598.2z"/>
	<path class="st1" d="M610,598.2c0.1-2.6,0.1-5,0.2-7.5c0.1-3.4,0.3-6.8,0.4-10.2c0-0.2,0-0.4,0-0.8c-0.9,0.5-1.8,0.5-2.7,0.5
		c-3.5,0-5.9-2-6.7-5.4c-0.6-2.6-0.5-5.2-0.4-7.8c0.1-1.7,0.3-3.4,0.5-5.1c0.2-1.6,1.6-2.6,3.1-2.5c1.5,0.1,2.7,1.4,2.7,3
		c0,1.9-0.1,3.9,0,5.8c0.1,1.4,0.4,2.8,0.5,4.3c0.1,0.4,0.3,0.5,0.7,0.5c0.9-0.1,1.7,0.1,2.5,0.6c0-0.9,0.1-1.8,0.1-2.7
		c0.1-3.8,0.3-7.5,0.4-11.3c0.2-6.1,0.4-12.1,0.7-18.2c0.1-1.9,1.8-3.5,3.8-3.5c2,0,3.7,1.5,3.8,3.6c0.1,2.3,0.2,4.7,0.3,7
		c0.1,3.7,0.3,7.3,0.4,11c0,0.8,0,1.6,0,2.3c0.8-0.1,1.6-0.2,2.3-0.3c0.4-0.1,0.7-0.3,0.8-0.7c0.3-1.1,0.6-2.2,0.8-3.3
		c0.5-3.8,0.3-7.6,0.2-11.4c0-1.4,0.8-2.5,2.2-2.9c1.2-0.3,2.6,0.2,3.2,1.4c0.3,0.5,0.4,1.1,0.4,1.7c0.2,3.6,0.5,7.3,0.6,10.9
		c0.1,2.1-0.2,4.3-1,6.3c-1.4,3.6-4.1,5.1-7.4,5.4c-0.6,0-1.2-0.1-1.8-0.2c0.3,9.4,0.7,18.8,1,28.2c2,0.1,4,0.3,6,0.4
		c0.1-3.7,0.3-7.5,0.5-11.3c-0.6-0.1-1.3-0.1-1.9-0.2c-1.7-0.4-2.7-1.5-2.9-3.3c-0.2-1.8,0.1-3.6,0.3-5.4c0-0.3,0.1-0.6,0.2-0.8
		c0.2-0.8,0.9-1.3,1.7-1.2c0.8,0.1,1.3,0.8,1.3,1.7c0,1.4-0.1,2.7-0.1,4.1c0.1,1.6,0,1.2,1.6,1.4c0.1-1.8,0.2-3.7,0.2-5.5
		c0.1-2,0.1-4,0.2-6c0-1,0.9-1.8,1.9-1.8c1,0,1.9,0.7,2,1.7c0.1,1.3,0.2,2.6,0.2,4c0.1,3.3,0.2,6.6,0.4,9.9c0,0.1,0,0.2,0,0.3
		c0.8,0.1,1.1,0,1.2-0.7c0.2-0.9,0.4-1.9,0.4-2.8c0.1-1.2,0-2.4,0-3.6c0-1,0.6-1.8,1.6-1.8c0.9,0,1.6,0.7,1.7,1.7
		c0.1,1.9,0.2,3.7,0.2,5.6c0,0.8-0.2,1.6-0.4,2.4c-0.6,2.2-2.2,3.2-4.5,3.4c-0.1,3.2,0.5,6.4,0.1,9.6c2.3,0.9,4.7,1.8,7.1,2.9
		c2.4,1.1,4.5,2.5,6.6,4.3c-17.5,0-34.8,0-52.3,0c2.2-2,4.6-3.4,7.2-4.6C604.7,599.7,607.4,598.8,610,598.2z"/>
</g>
<g>
	<path class="st1" d="M942.5,530.8c-2.6,0.6-5.3,1.5-7.9,2.7c-2.6,1.2-5,2.7-7.2,4.6c17.5,0,34.8,0,52.3,0c-2-1.8-4.2-3.3-6.6-4.3
		c-2.4-1.1-4.8-2-7.1-2.9c0.3-3.2-0.2-6.4-0.1-9.6c2.3-0.2,3.9-1.2,4.5-3.4c0.2-0.8,0.4-1.6,0.4-2.4c0-1.9-0.1-3.7-0.2-5.6
		c0-1-0.8-1.7-1.7-1.7c-0.9,0-1.6,0.8-1.6,1.8c0,1.2,0,2.4,0,3.6c-0.1,0.9-0.2,1.9-0.4,2.8c-0.2,0.8-0.4,0.8-1.2,0.7
		c0-0.1,0-0.2,0-0.3c-0.1-3.3-0.2-6.6-0.4-9.9c-0.1-1.3-0.1-2.6-0.2-4c-0.1-1-1-1.7-2-1.7c-1,0-1.9,0.8-1.9,1.8c-0.1,2-0.2,4-0.2,6
		c-0.1,1.8-0.2,3.7-0.2,5.5c-1.6-0.1-1.5,0.3-1.6-1.4c-0.1-1.4,0-2.7,0.1-4.1c0-0.8-0.5-1.5-1.3-1.7c-0.8-0.1-1.5,0.4-1.7,1.2
		c-0.1,0.3-0.1,0.6-0.2,0.8c-0.2,1.8-0.5,3.6-0.3,5.4c0.2,1.8,1.2,2.9,2.9,3.3c0.6,0.1,1.2,0.2,1.9,0.2c-0.1,3.8-0.3,7.5-0.5,11.3
		c-2-0.1-4-0.3-6-0.4c-0.3-9.4-0.7-18.8-1-28.2c0.6,0.1,1.2,0.3,1.8,0.2c3.2-0.3,6-1.8,7.4-5.4c0.8-2,1-4.2,1-6.3
		c-0.1-3.6-0.4-7.3-0.6-10.9c0-0.6-0.2-1.2-0.4-1.7c-0.6-1.2-2-1.7-3.2-1.4c-1.3,0.4-2.2,1.5-2.2,2.9c0.1,3.8,0.2,7.6-0.2,11.4
		c-0.1,1.1-0.5,2.2-0.8,3.3c-0.1,0.4-0.4,0.6-0.8,0.7c-0.7,0.1-1.5,0.2-2.3,0.3c0-0.7,0-1.5,0-2.3c-0.1-3.7-0.3-7.3-0.4-11
		c-0.1-2.3-0.1-4.7-0.3-7c-0.1-2.1-1.8-3.6-3.8-3.6c-2,0-3.7,1.5-3.8,3.5c-0.3,6.1-0.5,12.1-0.7,18.2c-0.1,3.8-0.3,7.5-0.4,11.3
		c0,0.9-0.1,1.8-0.1,2.7c-0.8-0.5-1.6-0.8-2.5-0.6c-0.4,0.1-0.6,0-0.7-0.5c-0.2-1.4-0.5-2.8-0.5-4.3c-0.1-1.9,0-3.9,0-5.8
		c0-1.6-1.1-2.9-2.7-3c-1.5-0.1-2.9,0.9-3.1,2.5c-0.2,1.7-0.4,3.4-0.5,5.1c-0.1,2.6-0.2,5.2,0.4,7.8c0.8,3.4,3.2,5.5,6.7,5.4
		c0.9,0,1.8,0,2.7-0.5c0,0.3,0,0.6,0,0.8c-0.1,3.4-0.3,6.8-0.4,10.2C942.6,525.8,942.6,528.2,942.5,530.8z"/>
	<path class="st1" d="M942.5,530.8c0.1-2.6,0.1-5,0.2-7.5c0.1-3.4,0.3-6.8,0.4-10.2c0-0.2,0-0.4,0-0.8c-0.9,0.5-1.8,0.5-2.7,0.5
		c-3.5,0-5.9-2-6.7-5.4c-0.6-2.6-0.5-5.2-0.4-7.8c0.1-1.7,0.3-3.4,0.5-5.1c0.2-1.6,1.6-2.6,3.1-2.5c1.5,0.1,2.7,1.4,2.7,3
		c0,1.9-0.1,3.9,0,5.8c0.1,1.4,0.4,2.8,0.5,4.3c0.1,0.4,0.3,0.5,0.7,0.5c0.9-0.1,1.7,0.1,2.5,0.6c0-0.9,0.1-1.8,0.1-2.7
		c0.1-3.8,0.3-7.5,0.4-11.3c0.2-6.1,0.4-12.1,0.7-18.2c0.1-1.9,1.8-3.5,3.8-3.5c2,0,3.7,1.5,3.8,3.6c0.1,2.3,0.2,4.7,0.3,7
		c0.1,3.7,0.3,7.3,0.4,11c0,0.8,0,1.6,0,2.3c0.8-0.1,1.6-0.2,2.3-0.3c0.4-0.1,0.7-0.3,0.8-0.7c0.3-1.1,0.6-2.2,0.8-3.3
		c0.5-3.8,0.3-7.6,0.2-11.4c0-1.4,0.8-2.5,2.2-2.9c1.2-0.3,2.6,0.2,3.2,1.4c0.3,0.5,0.4,1.1,0.4,1.7c0.2,3.6,0.5,7.3,0.6,10.9
		c0.1,2.1-0.2,4.3-1,6.3c-1.4,3.6-4.1,5.1-7.4,5.4c-0.6,0-1.2-0.1-1.8-0.2c0.3,9.4,0.7,18.8,1,28.2c2,0.1,4,0.3,6,0.4
		c0.1-3.7,0.3-7.5,0.5-11.3c-0.6-0.1-1.3-0.1-1.9-0.2c-1.7-0.4-2.7-1.5-2.9-3.3c-0.2-1.8,0.1-3.6,0.3-5.4c0-0.3,0.1-0.6,0.2-0.8
		c0.2-0.8,0.9-1.3,1.7-1.2c0.8,0.1,1.3,0.8,1.3,1.7c0,1.4-0.1,2.7-0.1,4.1c0.1,1.6,0,1.2,1.6,1.4c0.1-1.8,0.2-3.7,0.2-5.5
		c0.1-2,0.1-4,0.2-6c0-1,0.9-1.8,1.9-1.8c1,0,1.9,0.7,2,1.7c0.1,1.3,0.2,2.6,0.2,4c0.1,3.3,0.2,6.6,0.4,9.9c0,0.1,0,0.2,0,0.3
		c0.8,0.1,1.1,0,1.2-0.7c0.2-0.9,0.4-1.9,0.4-2.8c0.1-1.2,0-2.4,0-3.6c0-1,0.6-1.8,1.6-1.8c0.9,0,1.6,0.7,1.7,1.7
		c0.1,1.9,0.2,3.7,0.2,5.6c0,0.8-0.2,1.6-0.4,2.4c-0.6,2.2-2.2,3.2-4.5,3.4c-0.1,3.2,0.5,6.4,0.1,9.6c2.3,0.9,4.7,1.8,7.1,2.9
		c2.4,1.1,4.5,2.5,6.6,4.3c-17.5,0-34.8,0-52.3,0c2.2-2,4.6-3.4,7.2-4.6C937.2,532.3,939.9,531.4,942.5,530.8z"/>
</g>
<g>
	<path class="st10" d="M138.3,489.1c-2.6,0.6-5.3,1.5-7.9,2.7c-2.6,1.2-5,2.7-7.2,4.6c17.5,0,34.8,0,52.3,0c-2-1.8-4.2-3.3-6.6-4.3
		c-2.4-1.1-4.8-2-7.1-2.9c0.3-3.2-0.2-6.4-0.1-9.6c2.3-0.2,3.9-1.2,4.5-3.4c0.2-0.8,0.4-1.6,0.4-2.4c0-1.9-0.1-3.7-0.2-5.6
		c0-1-0.8-1.7-1.7-1.7c-0.9,0-1.6,0.8-1.6,1.8c0,1.2,0,2.4,0,3.6c-0.1,0.9-0.2,1.9-0.4,2.8c-0.2,0.8-0.4,0.8-1.2,0.7
		c0-0.1,0-0.2,0-0.3c-0.1-3.3-0.2-6.6-0.4-9.9c-0.1-1.3-0.1-2.6-0.2-4c-0.1-1-1-1.7-2-1.7c-1,0-1.9,0.8-1.9,1.8c-0.1,2-0.2,4-0.2,6
		c-0.1,1.8-0.2,3.7-0.2,5.5c-1.6-0.1-1.5,0.3-1.6-1.4c-0.1-1.4,0-2.7,0.1-4.1c0-0.8-0.5-1.5-1.3-1.7c-0.8-0.1-1.5,0.4-1.7,1.2
		c-0.1,0.3-0.1,0.6-0.2,0.8c-0.2,1.8-0.5,3.6-0.3,5.4c0.2,1.8,1.2,2.9,2.9,3.3c0.6,0.1,1.2,0.2,1.9,0.2c-0.1,3.8-0.3,7.5-0.5,11.3
		c-2-0.1-4-0.3-6-0.4c-0.3-9.4-0.7-18.8-1-28.2c0.6,0.1,1.2,0.3,1.8,0.2c3.2-0.3,6-1.8,7.4-5.4c0.8-2,1-4.2,1-6.3
		c-0.1-3.6-0.4-7.3-0.6-10.9c0-0.6-0.2-1.2-0.4-1.7c-0.6-1.2-2-1.7-3.2-1.4c-1.3,0.4-2.2,1.5-2.2,2.9c0.1,3.8,0.2,7.6-0.2,11.4
		c-0.1,1.1-0.5,2.2-0.8,3.3c-0.1,0.4-0.4,0.6-0.8,0.7c-0.7,0.1-1.5,0.2-2.3,0.3c0-0.7,0-1.5,0-2.3c-0.1-3.7-0.3-7.3-0.4-11
		c-0.1-2.3-0.1-4.7-0.3-7c-0.1-2.1-1.8-3.6-3.8-3.6c-2,0-3.7,1.5-3.8,3.5c-0.3,6.1-0.5,12.1-0.7,18.2c-0.1,3.8-0.3,7.5-0.4,11.3
		c0,0.9-0.1,1.8-0.1,2.7c-0.8-0.5-1.6-0.8-2.5-0.6c-0.4,0.1-0.6,0-0.7-0.5c-0.2-1.4-0.5-2.8-0.5-4.3c-0.1-1.9,0-3.9,0-5.8
		c0-1.6-1.1-2.9-2.7-3c-1.5-0.1-2.9,0.9-3.1,2.5c-0.2,1.7-0.4,3.4-0.5,5.1c-0.1,2.6-0.2,5.2,0.4,7.8c0.8,3.4,3.2,5.5,6.7,5.4
		c0.9,0,1.8,0,2.7-0.5c0,0.3,0,0.6,0,0.8c-0.1,3.4-0.3,6.8-0.4,10.2C138.4,484.1,138.3,486.6,138.3,489.1z"/>
	<path class="st10" d="M138.3,489.1c0.1-2.6,0.1-5,0.2-7.5c0.1-3.4,0.3-6.8,0.4-10.2c0-0.2,0-0.4,0-0.8c-0.9,0.5-1.8,0.5-2.7,0.5
		c-3.5,0-5.9-2-6.7-5.4c-0.6-2.6-0.5-5.2-0.4-7.8c0.1-1.7,0.3-3.4,0.5-5.1c0.2-1.6,1.6-2.6,3.1-2.5c1.5,0.1,2.7,1.4,2.7,3
		c0,1.9-0.1,3.9,0,5.8c0.1,1.4,0.4,2.8,0.5,4.3c0.1,0.4,0.3,0.5,0.7,0.5c0.9-0.1,1.7,0.1,2.5,0.6c0-0.9,0.1-1.8,0.1-2.7
		c0.1-3.8,0.3-7.5,0.4-11.3c0.2-6.1,0.4-12.1,0.7-18.2c0.1-1.9,1.8-3.5,3.8-3.5c2,0,3.7,1.5,3.8,3.6c0.1,2.3,0.2,4.7,0.3,7
		c0.1,3.7,0.3,7.3,0.4,11c0,0.8,0,1.6,0,2.3c0.8-0.1,1.6-0.2,2.3-0.3c0.4-0.1,0.7-0.3,0.8-0.7c0.3-1.1,0.6-2.2,0.8-3.3
		c0.5-3.8,0.3-7.6,0.2-11.4c0-1.4,0.8-2.5,2.2-2.9c1.2-0.3,2.6,0.2,3.2,1.4c0.3,0.5,0.4,1.1,0.4,1.7c0.2,3.6,0.5,7.3,0.6,10.9
		c0.1,2.1-0.2,4.3-1,6.3c-1.4,3.6-4.1,5.1-7.4,5.4c-0.6,0-1.2-0.1-1.8-0.2c0.3,9.4,0.7,18.8,1,28.2c2,0.1,4,0.3,6,0.4
		c0.1-3.7,0.3-7.5,0.5-11.3c-0.6-0.1-1.3-0.1-1.9-0.2c-1.7-0.4-2.7-1.5-2.9-3.3c-0.2-1.8,0.1-3.6,0.3-5.4c0-0.3,0.1-0.6,0.2-0.8
		c0.2-0.8,0.9-1.3,1.7-1.2c0.8,0.1,1.3,0.8,1.3,1.7c0,1.4-0.1,2.7-0.1,4.1c0.1,1.6,0,1.2,1.6,1.4c0.1-1.8,0.2-3.7,0.2-5.5
		c0.1-2,0.1-4,0.2-6c0-1,0.9-1.8,1.9-1.8c1,0,1.9,0.7,2,1.7c0.1,1.3,0.2,2.6,0.2,4c0.1,3.3,0.2,6.6,0.4,9.9c0,0.1,0,0.2,0,0.3
		c0.8,0.1,1.1,0,1.2-0.7c0.2-0.9,0.4-1.9,0.4-2.8c0.1-1.2,0-2.4,0-3.6c0-1,0.6-1.8,1.6-1.8c0.9,0,1.6,0.7,1.7,1.7
		c0.1,1.9,0.2,3.7,0.2,5.6c0,0.8-0.2,1.6-0.4,2.4c-0.6,2.2-2.2,3.2-4.5,3.4c-0.1,3.2,0.5,6.4,0.1,9.6c2.3,0.9,4.7,1.8,7.1,2.9
		c2.4,1.1,4.5,2.5,6.6,4.3c-17.5,0-34.8,0-52.3,0c2.2-2,4.6-3.4,7.2-4.6C133,490.6,135.7,489.8,138.3,489.1z"/>
</g>
<g>
	<path class="st1" d="M902.9,543.1c-2.6,0.6-5.3,1.5-7.9,2.7c-2.6,1.2-5,2.7-7.2,4.6c17.5,0,34.8,0,52.3,0c-2-1.8-4.2-3.3-6.6-4.3
		c-2.4-1.1-4.8-2-7.1-2.9c0.3-3.2-0.2-6.4-0.1-9.6c2.3-0.2,3.9-1.2,4.5-3.4c0.2-0.8,0.4-1.6,0.4-2.4c0-1.9-0.1-3.7-0.2-5.6
		c0-1-0.8-1.7-1.7-1.7c-0.9,0-1.6,0.8-1.6,1.8c0,1.2,0,2.4,0,3.6c-0.1,0.9-0.2,1.9-0.4,2.8c-0.2,0.8-0.4,0.8-1.2,0.7
		c0-0.1,0-0.2,0-0.3c-0.1-3.3-0.2-6.6-0.4-9.9c-0.1-1.3-0.1-2.6-0.2-4c-0.1-1-1-1.7-2-1.7c-1,0-1.9,0.8-1.9,1.8c-0.1,2-0.2,4-0.2,6
		c-0.1,1.8-0.2,3.7-0.2,5.5c-1.6-0.1-1.5,0.3-1.6-1.4c-0.1-1.4,0-2.7,0.1-4.1c0-0.8-0.5-1.5-1.3-1.7c-0.8-0.1-1.5,0.4-1.7,1.2
		c-0.1,0.3-0.1,0.6-0.2,0.8c-0.2,1.8-0.5,3.6-0.3,5.4c0.2,1.8,1.2,2.9,2.9,3.3c0.6,0.1,1.2,0.2,1.9,0.2c-0.1,3.8-0.3,7.5-0.5,11.3
		c-2-0.1-4-0.3-6-0.4c-0.3-9.4-0.7-18.8-1-28.2c0.6,0.1,1.2,0.3,1.8,0.2c3.2-0.3,6-1.8,7.4-5.4c0.8-2,1-4.2,1-6.3
		c-0.1-3.6-0.4-7.3-0.6-10.9c0-0.6-0.2-1.2-0.4-1.7c-0.6-1.2-2-1.7-3.2-1.4c-1.3,0.4-2.2,1.5-2.2,2.9c0.1,3.8,0.2,7.6-0.2,11.4
		c-0.1,1.1-0.5,2.2-0.8,3.3c-0.1,0.4-0.4,0.6-0.8,0.7c-0.7,0.1-1.5,0.2-2.3,0.3c0-0.7,0-1.5,0-2.3c-0.1-3.7-0.3-7.3-0.4-11
		c-0.1-2.3-0.1-4.7-0.3-7c-0.1-2.1-1.8-3.6-3.8-3.6c-2,0-3.7,1.5-3.8,3.5c-0.3,6.1-0.5,12.1-0.7,18.2c-0.1,3.8-0.3,7.5-0.4,11.3
		c0,0.9-0.1,1.8-0.1,2.7c-0.8-0.5-1.6-0.8-2.5-0.6c-0.4,0.1-0.6,0-0.7-0.5c-0.2-1.4-0.5-2.8-0.5-4.3c-0.1-1.9,0-3.9,0-5.8
		c0-1.6-1.1-2.9-2.7-3c-1.5-0.1-2.9,0.9-3.1,2.5c-0.2,1.7-0.4,3.4-0.5,5.1c-0.1,2.6-0.2,5.2,0.4,7.8c0.8,3.4,3.2,5.5,6.7,5.4
		c0.9,0,1.8,0,2.7-0.5c0,0.3,0,0.6,0,0.8c-0.1,3.4-0.3,6.8-0.4,10.2C903,538.1,902.9,540.5,902.9,543.1z"/>
	<path class="st1" d="M902.9,543.1c0.1-2.6,0.1-5,0.2-7.5c0.1-3.4,0.3-6.8,0.4-10.2c0-0.2,0-0.4,0-0.8c-0.9,0.5-1.8,0.5-2.7,0.5
		c-3.5,0-5.9-2-6.7-5.4c-0.6-2.6-0.5-5.2-0.4-7.8c0.1-1.7,0.3-3.4,0.5-5.1c0.2-1.6,1.6-2.6,3.1-2.5c1.5,0.1,2.7,1.4,2.7,3
		c0,1.9-0.1,3.9,0,5.8c0.1,1.4,0.4,2.8,0.5,4.3c0.1,0.4,0.3,0.5,0.7,0.5c0.9-0.1,1.7,0.1,2.5,0.6c0-0.9,0.1-1.8,0.1-2.7
		c0.1-3.8,0.3-7.5,0.4-11.3c0.2-6.1,0.4-12.1,0.7-18.2c0.1-1.9,1.8-3.5,3.8-3.5c2,0,3.7,1.5,3.8,3.6c0.1,2.3,0.2,4.7,0.3,7
		c0.1,3.7,0.3,7.3,0.4,11c0,0.8,0,1.6,0,2.3c0.8-0.1,1.6-0.2,2.3-0.3c0.4-0.1,0.7-0.3,0.8-0.7c0.3-1.1,0.6-2.2,0.8-3.3
		c0.5-3.8,0.3-7.6,0.2-11.4c0-1.4,0.8-2.5,2.2-2.9c1.2-0.3,2.6,0.2,3.2,1.4c0.3,0.5,0.4,1.1,0.4,1.7c0.2,3.6,0.5,7.3,0.6,10.9
		c0.1,2.1-0.2,4.3-1,6.3c-1.4,3.6-4.1,5.1-7.4,5.4c-0.6,0-1.2-0.1-1.8-0.2c0.3,9.4,0.7,18.8,1,28.2c2,0.1,4,0.3,6,0.4
		c0.1-3.7,0.3-7.5,0.5-11.3c-0.6-0.1-1.3-0.1-1.9-0.2c-1.7-0.4-2.7-1.5-2.9-3.3c-0.2-1.8,0.1-3.6,0.3-5.4c0-0.3,0.1-0.6,0.2-0.8
		c0.2-0.8,0.9-1.3,1.7-1.2c0.8,0.1,1.3,0.8,1.3,1.7c0,1.4-0.1,2.7-0.1,4.1c0.1,1.6,0,1.2,1.6,1.4c0.1-1.8,0.2-3.7,0.2-5.5
		c0.1-2,0.1-4,0.2-6c0-1,0.9-1.8,1.9-1.8c1,0,1.9,0.7,2,1.7c0.1,1.3,0.2,2.6,0.2,4c0.1,3.3,0.2,6.6,0.4,9.9c0,0.1,0,0.2,0,0.3
		c0.8,0.1,1.1,0,1.2-0.7c0.2-0.9,0.4-1.9,0.4-2.8c0.1-1.2,0-2.4,0-3.6c0-1,0.6-1.8,1.6-1.8c0.9,0,1.6,0.7,1.7,1.7
		c0.1,1.9,0.2,3.7,0.2,5.6c0,0.8-0.2,1.6-0.4,2.4c-0.6,2.2-2.2,3.2-4.5,3.4c-0.1,3.2,0.5,6.4,0.1,9.6c2.3,0.9,4.7,1.8,7.1,2.9
		c2.4,1.1,4.5,2.5,6.6,4.3c-17.5,0-34.8,0-52.3,0c2.2-2,4.6-3.4,7.2-4.6C897.6,544.6,900.2,543.7,902.9,543.1z"/>
</g>
<path class="st12" d="M-37.3,608.8c-0.1-9.7-0.1-19.4-0.2-29.1c4.4-0.8,4.3,2.5,4.8,5.1c0.5,3.2,0.2,6.5,0.5,11.2
	c0.1-7.6-0.2-13.8,0.2-19.9c0.3-4.2,2.1-7.4,6.8-7.6c4.6-0.2,5.9,3.3,6.5,7c1,5.6,1.2,11.2,1,14.2c-0.2-9.6-1.1-21.9-0.7-34.2
	c0.1-2.5-0.1-5,0.5-7.5c1-4.1,3.4-7,7.9-6.9c4.9,0.1,6.3,3.7,6.6,7.8c0.6,8.7-0.2,17.4,0.9,26.2c1.4-3.8,0.9-7.7,1.1-11.6
	c0.1-3.3-0.2-6.5,0.6-9.7c0.7-2.9,2.3-5.4,5.5-5.4c2.9,0,4.9,2.3,5.1,4.9c1,12.2,3.6,24.8-8.5,33.9c-3.1,2.3-4.3,5.5-4.7,9.1
	c-0.7,5.7-3.1,10.5-7.8,14.2c-6.8,7.9-4.1,17.2-3.8,26c0.2,4.1,4.3,3.5,7.3,3.5c17.1,0.1,34.2,0.1,51.3,0c5.8,0,11.7,0.6,17.6-0.5
	c-0.5-4.1-4.3-5.9-5.5-9.1c-0.9-2.4-1.6-4.8-1.6-7.3c0-3.3,0-6.9,3.7-8.4c3.4-1.4,5.7,1.2,7.9,3.3c0.9,0.8,1.5,2,2.9,2.9
	c1.9-5.2-0.7-11,2.2-15.9c3.8-2,3.6,1.6,4.2,3.3c2.1,5.6,1.6,11.3,0.1,17.6c4.9-0.7,10.6-4.9,13.3,0.5c2.6,5.3-2.7,9.5-6.3,13.8
	c7.6,0.1,14.8,0.2,21.9,0c6.5-0.2,8.5-4.1,5-9.4c-0.7-1.1-1.5-2.1-2.6-2.8c-10.5-6.6-13.5-16.4-12.4-28c-0.2-7.5-0.3-15.1,0-22.6
	c0.2-3.9,1-8.1,6.1-8c5.1,0.1,5.8,4.3,6,8.2c0.4,6.8,0.2,13.6,0.1,20.3c-0.1,5.8-1.6,11.9,3.9,17.7c2.1-6.2-0.6-13.3,6.3-16.6
	c1.9-0.7,3.8-0.7,5.7,0c6.7,3.3,4.6,10.2,6.1,16.8c4.5-6.4,2.3-12.4,2.8-18c-0.1-2.5-0.1-5,0.9-7.3c2.2-5.2,5.4-5.7,10.1-1.5
	c1.1,4.4,1.6,8.9,2.2,13.3c1.2,9.6-1.2,17.9-9.8,23.7c-2.1,1.4-3.9,3.2-6,5.4c4.3,0.1,7.8-1.2,11.3-3c14.8-7.6,29.9-6.7,45-1.1
	c2.6,1,5.2,2.2,8,2.3c4.7,0.1,8.3,1.9,10.9,5.9c2.6,4.2,6.7,5.5,11.3,4.2c4.7-1.3,24.2,0.4,26.9-0.1c4.2-0.7,7.3-3.4,10.5-6
	c6.5-5.2,8.9-4.5,11.3,3.3c1.2,4,4.2,3.1,6.8,3.1c17.7,0.1,35.4,0,53,0.1c3.6,0,7.3-0.6,10.7,0.5c12.5,4,24.8,1,37.2-0.5
	c3.7-0.4,5.6-2.1,5.6-5.7c0.1-10.3,0.5-20.6-0.2-30.9c-0.4-6-4.4-10-8.9-13.6c-4.6-3.6-8.9-7.5-12.3-12.4c-3.5-4.3-4.7-9.3-4.8-14.7
	c0-17.2-0.2-34.4,0.1-51.6c-0.1-3.2-0.2-6.5,0.2-9.7c0.6-5.2,3.6-8.3,8.8-8.7c5.7-0.4,9,2.7,10.3,8c0.8,3.2,0.7,6.4,0.5,9.7
	c0.1,16.1,0,32.2,0.1,48.2c0,3.8,0.1,7.6,2.2,11c1.6,2.6,3.4,5.3,7.3,3.4c2.3-2.6,1.5-5.8,1.5-8.7c0.2-26.3-0.1-52.7-0.2-79
	c0-3.8-0.2-7.5,0.6-11.3c1.3-4.6,4.4-7.2,9.3-7c5.2,0.2,8.3,3,9.6,7.9c1,11.5,0.7,23,0.2,34.4c-0.1,0.9-0.3,1.8-0.6,2.7
	c-1.6,19-0.4,38.1-0.6,57.1c0,1.3,0.9,2.3,2,3.1c7.8,1.1,8.9-4.7,9.8-9.8c1.4-7.7,0.4-15.5,0.6-23.2c0.1-4.8-0.2-9.5,0.2-14.3
	c0.5-5.4,3.2-9.2,9.1-9.1c5.9,0.1,8.8,3.9,8.9,9.3c0.2,14.2,0.9,28.5-0.4,42.7c-1.4,8.5-6.4,14.8-13.3,19.5
	c-7.8,5.3-11.3,12.6-11.9,21.7c-0.5,8-0.2,16.1-0.3,24.1c0,4.8,2.5,6.8,7.1,6.8c27.2,0.1,54.3,0.1,81.5,0c4.4,0,6.6-2.1,6.7-6.4
	c0.1-10.8,0.4-21.6-0.2-32.4c-0.3-5.5-2.8-10.3-6.5-14.2c-6.8-7.1-9.4-15.2-8.5-24.8c0.6-5.5-0.5-11.1,0.7-16.5c2-4.1,5.1-6.3,9.8-5
	c4.7,1.3,5.8,5.1,6.1,9.4c0.2,3.6-0.2,7.3,1,10.8c1.1-7.9,0.5-15.9,0.8-23.8c0.1-3.6,0.5-7.1,4.3-9c5.2-2.7,11.1,0.2,12,6.2
	c0.9,6.2,0.1,12.5,0.5,18.7c0.1,2.2-1.6,4.8,1.2,6.4c0.9-16.9,0.4-33.7,0.2-50.5c0-4.8-0.2-9.5,0.4-14.3c0.9-4.7,3.6-7.7,8.6-7.9
	c4.1-0.2,6.6,2.1,7.5,6c1,13.2-0.1,26.5,0.3,39.7c0.1,2.7-0.7,5.5,0.9,8c4.7-0.2,3.8-4,3.9-6.5c0.4-6.9,0.1-13.9,0.1-20.8
	c-0.2-3.8-0.4-7.5,0.7-11.2c0.9-2.8,2.6-5.1,5.8-5.2c3.6-0.2,5.4,2.4,6.4,5.4c1.1,3.6,0.7,7.4,0.7,11.2c0.2,3.8-0.2,7.5,0,11.3
	c0.8,12.6-1.8,23.6-14.3,30.1c-1.4,0.7-2.1,2.1-3,3.4c0.1,13.3-4.7,24.8-13.7,34.8c-2.2,2.5-2.6,6-2.7,9.3
	c-0.2,10.1,0,20.1-0.1,30.2c-0.1,5.4,2.4,7.8,7.9,7.7c39.2-0.6,78.4,2.3,117.4-3.7c10.2-1.6,20.5-0.7,30.7-0.6
	c6.2,0.1,8.7-2,8.7-8.3c0-7.4-2-13.2-8.3-17.6c-9.8-6.9-13.6-16.5-13.4-28.1c0.2-13.3,0-26.7,0.1-40c0-4-0.2-8.1,2.6-11.5
	c3.3-2.8,6.6-3.6,10.1-0.4c2.7,3.4,2.5,7.5,2.5,11.5c0.1,13.8,0,27.6,0.1,41.5c0,4.8,0.7,9.4,5.1,13.4c1.8-4.6,0.9-8.6,1.2-12.5
	c0.6-7.6,4.7-12.4,10.7-12.4c6,0,10.1,4.8,10.6,12.5c0.3,4-0.3,8,0.6,13.1c4.4-3.8,5.5-8.1,5.6-12.8c0.2-7.5-0.1-15.1,0.2-22.6
	c0.2-4.4,0.8-9.1,6.7-9.3c5.8-0.2,8,4,8.3,9c0.4,9,0.6,18.1-0.3,27.1c-0.8,8.2-4.3,14.9-10.9,20c-2,1.6-4,3.1-5.8,4.9
	c-3.9,4.1-6,14.5-3.5,19.1c2.8,5.3,8.1,3.1,12.4,3.2c11.7,0.4,23.6-1,34.8,3.8c2.1,0.9,4.5,0.8,6.8,0.8c18.2,0.1,36.4,0.1,54.5,0
	c7.9-0.1,8.9-1,9-8.7c0.2-8.8,0-17.6,0-26.4c0-5.5-1.6-10.5-5.5-14.5c-9.8-9.8-8.9-21.9-7.8-34c0.4-4,3.1-6.3,7.3-6.2
	c4.3,0.1,6.4,2.7,7,6.6c0.7,4.5,0.2,9,0.5,14.1c0.1-7.7-0.2-15,0.1-22.2c0.4-6.8,3.7-10.8,8.6-10.4c6.2,0.6,7.7,5.1,8,10.2
	c0.3,7.2,0,14.4,0.2,22.2c0.4-20.3-0.4-39.9,0.4-59.5c0.7-3.9,2.6-7.1,7-7.5c3.7-0.3,5.9,2.1,7.2,5.3c1.9,13.2-0.3,26.5,1.3,40.5
	c3.3-3.3,2.6-6.7,2.7-9.8c0.2-6.8-0.3-13.6,0.3-20.4c0.3-3.2,1.5-6.1,5.3-6.4c3.7-0.2,4.8,2.8,5.2,5.5c1.7,11,4.6,23.2-1.4,32.5
	c-6.6,10.3-13.9,19.8-15.7,32.1c0,0.3-0.3,0.6-0.4,0.7c-15.5,14.2-9.5,32.7-10.4,49.8c-0.2,3.8,1.7,6.4,6,6.2c4.7-0.2,4-3.7,3.7-6.7
	c-0.3-3.8-0.7-7.5,0.5-11.2c0.8-2.5,1.9-4.9,4.8-5.4c3-0.5,5,1.7,5.9,4c2.1,5.8,5.3,7.3,10.8,4c1.8-1.1,4.6-1.8,6.4,0.4
	c1.6,1.9,1,4.3,0.3,6.5c-1.1,3.1-3,5.7-5.9,8.6c7.3,0.1,13.7-0.2,20,0.1c6.3,0.3,9.9-2.2,11.9-8.2c3.8-11.5,4.1-11.5,16.1-11.4
	c8,0.1,16.2-1.5,23.2,5c2.8,2.6,7.9,1.1,12,0.9c6.9-0.3,12.6,1.7,16.6,7.5c3.1,4.6,7.7,6.2,13.2,6.2c10.8-0.1,21.5-0.2,32.3,0
	c5.7,0.1,8.6-1.9,8.5-7.8c-0.1-16.8,0.2-33.7-0.1-50.5c-0.2-10-3.4-19-12-25c-17.1-12-23.6-28.4-21.8-48.5
	c-0.4-25.9-0.1-51.8-0.2-77.7c0-1.5,0-3,0.3-4.5c1-6.2,5.5-10.3,11.3-10.3c5.8,0,10.4,4,11.3,10.2c0.7,5,0.3,10,0.4,15.1
	c0.1,8-0.5,16.1,1,24.1c0.4,9.3,0.8,18.5-1.2,27.7c0,5.3,0.2,10.6-0.1,15.9c-0.2,5.3,0.4,10.5,1.8,15.6c1.2,4.5,3.7,8.2,7.3,11.2
	c1.3,1.1,2.8,2.7,4.7,2.1c2.5-0.8,1.8-3.3,1.9-5.2c0.8-20.2,2.1-40.4-0.1-60.7c-0.3-25.4-0.1-50.7-0.1-76.1c0-4.3,0.3-8.6,3-12.2
	c2.9-3.9,6.8-6.2,11.9-5.3c5.1,0.9,7.9,4.2,9.2,9c0.7,2.4,0.7,5,0.7,7.5c0,37.7,0.2,75.3-0.1,113c-0.4,8.7-0.2,17.4-0.1,26.1
	c0,1.7-0.4,3.8,1.7,4.6c1.9,0.8,3.3-0.8,4.6-1.9c6.5-5.2,9.6-12,9.4-20.3c-0.1-2.7,0-5.5-0.1-8.2c-0.3-13.8-0.1-27.6-0.1-41.4
	c0-2.5,0.1-5,0.8-7.5c1.8-6.1,6.2-9.4,12.3-9.1c6,0.3,10.2,4.1,11.2,10.4c0.8,5,0.4,10,0.4,15c-0.1,11,0.3,22.1-0.2,33.1
	c1.5,19.9-5.7,35.8-22,47.8c-8.1,6-11.9,14.1-11.8,24.1c0.1,16.8,0,33.7,0,50.5c0,8.5,0.7,9.1,9.1,9.2c9.5,0.1,18.9,0,28.4,0
	c3.3,0,6.7-0.2,9.5,2.2c0,28.7,0,57.4,0,86.1c-381.1,0-762.3,0-1143.4,0c-10.1,0-10.1,0-10.1-9.8c0.1-25.4,0.2-50.8,0.3-76.2
	C-33.4,630.9-34.3,619.9-37.3,608.8z"/>
</svg>
