<svg id="Layer_1" data-name="Layer 1" xmlns="http://www.w3.org/2000/svg" xmlns:xlink="http://www.w3.org/1999/xlink" viewBox="0 0 992.62 648"><defs><style>.cls-1{fill:none;}.cls-2{fill:#f37344;}.cls-3{fill:#500130;}.cls-4{fill:#fefad7;}.cls-5{fill:#fff;}.cls-6{clip-path:url(#clip-path);}.cls-7{fill:#fff8b8;}.cls-8{fill:#f4be71;}.cls-9{clip-path:url(#clip-path-2);}.cls-10{fill:#fffad7;}.cls-11{clip-path:url(#clip-path-3);}.cls-12{fill:#c8223e;}.cls-13{fill:#f27344;}.cls-14{fill:#2c112b;}</style><clipPath id="clip-path"><path class="cls-1" d="M634.12,425s5-2.86,14.86-11.43,24.58-20.64,29.36-25.09,29.8-24.77,33.19-28.89,7.82-12.39,17.46-21.28,33.1-29.53,35.19-32.07,8.08-6,8.08-6S796.5,322.79,802,327.55s6.25,2.23,14.07,7,20.07,11.11,22.16,12.7,5.47,1.59,5.47,1.59,30.23-40.65,42.48-51.13,21.11-24.13,27.63-31.44,23.2-23.18,26.32-25.08,7.56-9.85,7.56-9.85,12.25,17.47,18.51,22.87,16.94,25.4,22.15,35.25c1,2,11.06,16.4,11.06,16.4V468.66H645.94Z"/></clipPath><clipPath id="clip-path-2"><path class="cls-1" d="M663,445.05s-1.7-8.59-5.79-12S647,420,643.23,416.28A124.38,124.38,0,0,1,634,406.19c-3.41-4.11-6.82-9-10.23-10.84s-2.73-3.36-5.12-4.86-5.11-3.36-6.14-3.36,0-4.49-6.48-8.22-15-12-16-12.71-1-6.73-6.48-11.58-8.86-17.94-14.66-20.56-8.19-5.6-11.26-9.34-6.14-10.84-9.89-12.71-4.77-7.47-6.48-11.58-19.1-32.89-23.53-38.49-8.53-14.2-11.94-17.94-5.46-15.7-9.89-15.7S488.39,235,485,240.64s-9.21,16.44-13.64,24.66-10.23,18.69-14,21.3-5.12-1.87-8.87,5.61-6.48,14.2-11.94,18.31-8.87,4.11-15,10.46-7.17,8.6-14,19.06-13.3,19.43-17.74,23.17-8.52,8.22-11.25,9.35-11.94,7.09-18.08,11.95-10.23,14.2-12.62,16.45-5.8,6.72-10.23,9.71-5.79,6.73-10.57,13.45-8.87,11.22-13.3,16.82-8.87,10.84-9.9,12.71,132,0,134.39,0l201.57.83h26.95Z"/></clipPath><clipPath id="clip-path-3"><path class="cls-1" d="M-35.37,457.56V370l7.94,9.71S27.37,312.37,32,306.74s22.66-30.47,24-32a16.92,16.92,0,0,1,3.7-2.82S86.11,301.87,92.36,309a135.79,135.79,0,0,0,15.26,14.85C112,327.73,119,333.44,121,337.11s7.87,10.33,10.41,14.93,6.47,11.52,11.33,14.85,10.64,10,14.11,13.82a40,40,0,0,0,8.32,6.66s12.49-7.17,16.65-11a33.2,33.2,0,0,1,7.4-5.37s13.18,16.12,19.89,24.57,13.64,16.64,17.81,22,8.78,13.57,13.87,20,13,14.57,13,14.53,3.63,3.83,3.63,3.83l-288.89,1.66Z"/></clipPath></defs><title>footer-image</title><path class="cls-2" d="M-8.06,453.34l281.74-2s40.43-9.67,68-36.24h683.38v78.26L506.9,548.9-11.28,493.36Z"/><path class="cls-3" d="M-2.55,586.15a7.31,7.31,0,0,1,3.7,7.06c-.15,5.85-.11,11.71,0,17.57.05,2.75-.41,4.8-3.8,4.56Q-2.6,600.75-2.55,586.15Z"/><path class="cls-4" d="M994.75,144.14H718.86l0-1.32c2.94,0,5.88-.12,8.81,0,12.63.61,25-1.57,37.33-3.69a39.16,39.16,0,0,1,7.27-.3c21,.31,41.6-3.51,62.39-4.86,21.73-1.42,43.11-6.48,65-5.74,4.84.16,9-1.56,13.26-3.56,8.72-4.13,17.07-8.85,27-10.49,6.63-1.11,12.63,1.2,19,1.14,2.73,0,3.67.12,4.35-2.79,2.73-11.75,8.82-20.09,22.23-20.21,2.43,0,2.5-2,3.27-3.55,1.58-3.11,2.51-6.71,6.1-8.36Z"/><path class="cls-4" d="M8.82,180.86c1.81-2.93,3.79-2.26,5.33-2.14,10.18.8,20.25-1.06,30.32-1.75,5.58-.38,12.13-2,14.45-9.6,1.72-5.66,6.48-8.75,12.76-8.63,2.37,0,3.79-.36,4.75-3.21,6.34-18.8,27.08-26.76,44.36-16.72,4.42,2.57,7.38,2.1,11.4,0A27.21,27.21,0,0,1,165,145.41c1.41,1.65,2.47,1.76,4.42,1.59,7.36-.65,14.74-.95,19.38,6.59.11.17.34.4.51.4,10.57,0,18.28,9.57,29.1,8.73a12.25,12.25,0,0,1,7,1.59c2.33,1.27,4.69,2.5,7.43,2.61,14,.53,27.51,4.71,41.66,5.53,21.66,1.25,43.41,2,65,4.56,11.56,1.37,23.3,1.12,34.95,1.69,2,.1,4.47-.91,6.16,2.16Z"/><path class="cls-4" d="M304.5,28.65H298q-145.21,0-290.44.16c-6.62,0-9.22-1.46-8.44-8.36.61-5.46.21-11,.1-16.57C-.84-.2,1.6-2.14,4.44.33c7.78,6.78,16.74,4.36,25.42,4.42,7.09,0,12.66,3.39,17.67,7.9,1.9,1.71,3.72,2.91,6.41,2.75,19.34-1.17,38.34,2.66,57.52,3.85,7.24.44,14.47.47,21.74,1.21,12.46,1.27,25.12.54,37.6,1.7,21.83,2,43.69.27,65.48,1.35,18.24.91,36.44,2.41,54.72,2.58C295.54,26.13,299.89,28.08,304.5,28.65Z"/><path class="cls-4" d="M821.91,259.41H702.31c7-2.07,12.22-3.41,17.3-5.24,3.61-1.3,7.56-2.24,8.88-7,.67-2.42,3.89-4,5.94-3.23,5.5,2.16,7.65-1.2,10.67-4.59,4.79-5.35,16.73-5.33,21.61.24,2.81,3.19,6.42,5.66,9.73,6C792.53,247.14,805.84,257.83,821.91,259.41Z"/><ellipse class="cls-5" cx="654.37" cy="400.3" rx="64.59" ry="63.49"/><path class="cls-2" d="M634.12,425s5-2.86,14.86-11.43,24.58-20.64,29.36-25.09,29.8-24.77,33.19-28.89,7.82-12.39,17.46-21.28,33.1-29.53,35.19-32.07,8.08-6,8.08-6S796.5,322.79,802,327.55s6.25,2.23,14.07,7,20.07,11.11,22.16,12.7,5.47,1.59,5.47,1.59,30.23-40.65,42.48-51.13,21.11-24.13,27.63-31.44,23.2-23.18,26.32-25.08,7.56-9.85,7.56-9.85,12.25,17.47,18.51,22.87,16.94,25.4,22.15,35.25c4,7.48,11.06,16.4,11.06,16.4V468.66H645.94Z"/><g class="cls-6"><path class="cls-7" d="M946.1,226.25c-.18.64-4.52,16.94-5.39,18.21s-7,8.68-8.51,10.8S923.33,272.4,922,275.79a68.49,68.49,0,0,1-4.87,8.68s12-9.31,16-12.7,5.38-7,6.6-8.26-3.65,12.28-5.21,14.82S919,310.72,914.3,314.53s-16.68,12.92-19.46,15.88-11,15.67-11,15.67,9-22.65,13-26.25S902,309.24,902,309.24s-17,12.7-21.2,17.79S863.91,351.16,863,352.64s-8.68,17.78-8.68,17.78S838,378,836.29,379.53l-9.21,7.83s5.56-10.37,8.86-12.7a52.6,52.6,0,0,0,9.55-9.53c1-1.69,4.17-11.64,4.17-11.64l-9.73,5.92s3.63-10.43,4.13-11.1,4.22-12.61,5.08-13.66,4.35-14.61,4.35-16.09,32-41.29,33.1-41.71,17.63-14,19.37-15.46S927.16,240,927.85,239,946.1,226.25,946.1,226.25Z"/><path class="cls-7" d="M831.59,474.16s10.26-16.73,14.77-21.38,13.9-18,13.9-18,12.16-11,15.81-12.91,14.43-14.61,16-15.88,10.43-13.76,10.43-13.76-4.87,13.34-6.09,15.45-6.42,11.22-6.6,12.07,6.26-7.83,9.21-10.37,10.08-12.07,11.12-14.19,7.3-12.07,8.52-15.45,12.85-17.57,12.85-17.57l8.52-5.93s-6.43,8-7.3,9.31-2.61,12.71-2.61,16.3-3,11.65-4.34,12.92-8.69,8-8.69,8-17.72,21.39-20.16,26.68-8.51,22.23-8.51,22.23l1.91-18s-12,19.69-12.68,24.56-1.57,14.82-1.57,14.82Z"/><path class="cls-7" d="M900,462s4.56-13.82,6.78-17.79,6.77-9.68,8.73-12.54,6.25-9.68,6.25-9.68-3,10-3.65,12.06-4.3,15.88-6.65,18.1l-5.08,1.59Z"/><path class="cls-7" d="M768,299.93s-4,15.45-6.6,18.84-13,11.43-14.95,14.18-12.33,17-12.33,17l12.51-7.3s7-5.08,8.86-6.35S773,331.05,773,331.05s-23.29,20.11-25.72,23.28-8.16,11.22-8.16,11.22-7.82,20.75-8.52,21.39-7.12,10.58-7.64,11.43-10.78,20.75-11.3,20.75,5.39-19.48,8.17-25l1.74-15.87s-6.26,8.46-7.3,9.95-10.25,6.14-12.51,7.19-17.2,12.28-19.46,14.4S662.54,435,662.54,435l7.81-21,4.69-5.92-13.73,13.12S652.62,424,651.06,425s-7.12,5.3-7.12,5.3l-3.65-5.08s-4.34-5.09-4.86-5.72,24-21,24-21,61.51-61.82,62-61.82,17-18.63,20-20.11,19.11-13.34,20.33-13.76S768,299.93,768,299.93Z"/><path class="cls-2" d="M722.46,357s-4.57,10-5.25,13.37a25.88,25.88,0,0,1-2.17,6.13L712,375.9s-14.06,6.68-14.51,6.82-6.29,6.55-6.29,6.55,7.77-11.14,9.26-12.39,13.37-9.42,13.37-9.42Z"/><path class="cls-7" d="M678.34,470.77s5.39-9.31,6.08-9.95,7.48-5.93,7.48-5.93,11.11-14.6,12.33-15.45S714,428.85,714,428.85s-3.3,9.32-3.65,10.38-6.09,13.55-6.08,14.39,11.82-11,11.82-11l5.38-9.73,7.47-5.3s7.65-12.91,7.82-13.54,19.12-24.77,19.12-24.77l8-11.23,10.77-11.85,10.6-5.93L776,368.94l-9.55,16.3-5.39,11.22-1.22,8.68s-11.64,9.11-13.72,10.38-10.43,22.23-10.43,22.23l6.08-7.2,15.12-7.84s-13.9,11.65-14.6,13.34-2.26,10.38-2.43,11.22,5.39,23.5,5.39,23.5-39.1,8.05-39.45,7.41S678.34,470.77,678.34,470.77Z"/></g><path class="cls-8" d="M582.6,298.69s-.17-3.33,4.67-4.55a4.48,4.48,0,0,1,4.62,1.3s2.82-6.39,8.11-5.8,8.35,3.24,8.35,7.51c0,0,2.3-1.79,4.61-.85s2.47,3.75,2.47,3.75,3.75,2.05,5.54,2.22,3.41-.34,5.38,0,2.64.86,4.34,1.11S644,304.75,644,304.75s-26.18-.6-28.65,0-10.41,0-13.05,0-7.76.26-7.76.26-14.24.18-14,0S582.6,298.69,582.6,298.69Z"/><path class="cls-2" d="M663,458.71s-1.7-9.14-5.79-12.72-10.24-13.9-14-17.87A128.64,128.64,0,0,1,634,417.39c-3.41-4.37-6.82-9.53-10.23-11.52s-2.73-3.57-5.12-5.16-5.11-3.58-6.14-3.58,0-4.77-6.48-8.74-15-12.71-16-13.5-1-7.15-6.48-12.32-8.86-19.07-14.66-21.85-8.19-6-11.26-9.93-6.14-11.52-9.89-13.5-4.77-8-6.48-12.32-19.1-35-23.53-40.91S509.19,249,505.78,245s-5.46-16.69-9.89-16.69-7.5,7.16-10.92,13.11-9.21,17.48-13.64,26.22-10.23,19.86-14,22.64-5.12-2-8.87,6-6.48,15.1-11.94,19.47-8.87,4.37-15,11.12-7.17,9.14-14,20.26-13.3,20.66-17.74,24.63-8.52,8.74-11.25,9.93-11.94,7.55-18.08,12.71-10.23,15.1-12.62,17.48-5.8,7.15-10.23,10.33-5.79,7.15-10.57,14.3-8.87,11.92-13.3,17.87-8.87,11.53-9.9,13.51,132,0,134.39,0,201.57.89,201.57.89h26.95Z"/><g class="cls-9"><path class="cls-7" d="M497.51,224.19s-.26,11.5,2.56,19.62,6.9,20.18,7.41,23.55,3.08,15.41,6.66,21,9.46,19.06,9.46,19.06-13-14.3-14.33-16.26-4.6-12.05-4.6-12.05,2.56,19.06,7.16,35,4.61,21.95,11.77,27.23,17.39,17.62,19.95,21,7.93,13.17,8.7,14.85,4.09,14.3,4.09,14.3,2.56-17.66,0-21.3-5.11-11.49-5.11-11.49,14.07,16,19.95,21A94.29,94.29,0,0,1,584.23,394a155.12,155.12,0,0,0,14.32,15.42c3.84,3.36,13.81,16.53,13.81,16.53s-1-9.53-5.11-15.13-5.37-14.3-5.37-14.3,9.21,6.73,16.37,10.93,12.53,7.29,15.86,10.38,11,14.85,13.81,16.81,10.49,12.33,11.51,15.14,5.88,11.77,5.88,11.77,7.68-5,7.94-7.11-17.65-38-19.7-39.14S642,404.13,637.18,400.77s-22.51-21.3-26.86-24.11S595.48,366.29,594,364.89s-5.63-16-5.63-16S562.74,301.55,562,300.71,542.53,280,539.2,275.2s-12-29.43-17.9-34.19S497.51,224.19,497.51,224.19Z"/><path class="cls-7" d="M501.35,349.2s3.92,16.07,5.79,20.74,4.61,8.41,9.55,13.82,13.82,17.2,15,18.69,10.57,12.33,11.08,13.27-7.5-21.12-10.4-27.28-8-16.26-9.55-17.75a67.44,67.44,0,0,1-4.77-5.24C515.84,362.84,501.35,349.2,501.35,349.2Z"/></g><path class="cls-10" d="M273.35,311.74s22.17-1.7,26.43-2.38,6.14-1.37,9.21-1.71,1-2.9,5.63-3.07c0,0,.34-6.15,5.46-6.15,5.92,0,6.65,6.66,6.65,6.66s1.71-2.76,4.43-1.88c4,1.29,3.93,4.44,3.93,4.44s3.92-1,6.13,1.19,45.71,2.9,45.71,2.9Z"/><path class="cls-2" d="M-35.33,457.65V370.08l7.94,9.7S27.41,312.46,32,306.83s22.66-30.46,24.05-32a17.09,17.09,0,0,1,3.7-2.81S86.15,302,92.4,309.13A135.79,135.79,0,0,0,107.66,324c4.39,3.84,11.33,9.56,13.41,13.22s7.87,10.33,10.41,14.94S138,363.65,142.81,367s10.64,10,14.11,13.83a40.11,40.11,0,0,0,8.32,6.65s12.49-7.17,16.65-11a33.47,33.47,0,0,1,7.4-5.37s13.19,16.12,19.89,24.57,13.64,16.64,17.81,22,8.78,13.57,13.87,20,13,14.57,13,14.53,3.63,3.83,3.63,3.83L-31.4,457.65Z"/><g class="cls-11"><path class="cls-7" d="M52.35,268.34c0,.77,10.17,20,14.8,24.06s11.79,9.73,11.79,9.73l5.32,6.65s-5.55-2.81-7.86-4.09-11.79-9-11.79-9,3.93,8.7,5.55,10.75,7.17,10.75,9.48,14.59,6.24,10.75,9.25,15.87A162.14,162.14,0,0,0,99.76,352.3c1.15,1.28,6.7,10.49,6.7,10.49s-4.85-14.84-7.63-18.17-5.78-9.47-5.78-10.5.23-6.39.23-6.39,4.4,7.25,7.17,9.38,11.79,11.09,14.57,13.4,11.33,9.21,13.18,13.44S142.31,384,142.31,384l-6.94-14.85s13.18,12,16.88,14.85,10.18,7.68,11.33,9.21,7.63,6.66,7.63,6.66-4.39-9.47-8.78-18.17-9.25-18.43-9.72-19.71S140,334.12,140,334.12s-71.68-68.34-72.38-68.85-7.86-1.79-9-2S52.35,268.34,52.35,268.34Z"/><path class="cls-7" d="M98.37,368.85s12.49,5.29,14.64,7,7.1,9,8.33,10.58,3.39,6.65,5.24,10.24,6.17,13,6.78,14.16,2.63,8.71,2.63,8.71L129.2,409.3s-10.63-13.83-12-14.34-6.17-9-6.79-10.24-7.24-9.21-7.24-9.21Z"/><path class="cls-7" d="M189.33,368.51V374s-.62,7.34,3.08,10.41,4.78,8.19,5.09,8.87,2.93,9.9,2.93,9.9l-15-11.43s8.18,14.33,8.95,15.53,10.32,13,10.94,13.65-1.54-8.7-1.54-8.7,12.64,17.57,14.34,19.28,7.09,7,9.87,8.19,12.17,6.49,13.41,9.05,2.6,5.51,2.6,5.51,12.68-3.67,13.45-3.5,8.92,6.35,8,4.3S247.61,423,239.43,413.22s-35.76-38.05-37.92-39.08-6.63-3.92-8.79-4.95A5.35,5.35,0,0,0,189.33,368.51Z"/></g><path class="cls-10" d="M514.86,248.32,545.08,246l12.63-3.73s2.28-1.45,3.73-1.45a2.79,2.79,0,0,1,3.1-2.28s-.62-5.39,3.93-6.42a7.09,7.09,0,0,1,7,2.07s.23-10.15,10.79-10.15,12.6,7.67,12.6,7.67,3.94-.42,4.76,3.31c0,0,8.49-5.18,11.8,3.73,0,0,10.35,2.07,13.87,4.35s25.26,5.18,25.26,5.18Z"/><path class="cls-8" d="M288.44,342.5s4.87-1,5.76-1.15,2,.19,2.49-.32,1.09-2.3,3.84-2.43c0,0,1-5.51,4.93-5.32s5.62,3.72,6.27,6.28a3.48,3.48,0,0,1,4.28-1.67,4.86,4.86,0,0,1,3.39,4s3-.9,4.22-.51,2.81,2,4.67,2H280.71Z"/><path class="cls-8" d="M156.47,269.75l8.59-2.35s.51-2.21,3.74-1.84c0,0-.08-1.69,2.64-1.25,0,0-1.1-5.51,3.16-5.8a6.09,6.09,0,0,1,6.53,3.82s1.25-8.74,8.67-9.26a10.31,10.31,0,0,1,10.13,5.73,4.56,4.56,0,0,1,5.86,2.6,7.13,7.13,0,0,1,6.1-.83,5.59,5.59,0,0,1,4.18,4.41,24.62,24.62,0,0,1,6.25.65c2.2.74,8.14,3.68,10.72,4.12Z"/><path class="cls-12" d="M-11.28,431.13s45.46-10.91,63.74-7.33,189.25,78.27,209.06,80.64,86.72,0,86.72,0L500.88,533l507.17-202.61V533L533.81,555.74l-42.67,9.63L174.31,536.65s-13.71-10-74.64-9.06-109.12,0-109.12,0Z"/><path class="cls-13" d="M-5.94,495.33l152.36,1.9,106.36,30.36L473.41,544l88.41-11,205.09,11-74.77,39.18-104-6.74-76.89,2s-32.82,32-114.81,21.53S-5.95,604.81-5.95,604.81Z"/><polygon class="cls-3" points="-14.31 568.5 326.93 576.43 486.09 565.37 680.13 560.84 806.27 518.61 1014.05 493.36 1014.05 648 -14.31 648 -14.31 568.5"/><path class="cls-12" d="M854.11,372.68c-.14-3.23-.21-6.33-.42-9.42-.44-6.34-.94-12.67-1.41-19a6.1,6.1,0,0,0-3.75-5.14,8.19,8.19,0,0,0-9.08,1.39,4.69,4.69,0,0,0-1.67,3.43c-.09,2.06-.31,4.11-.44,6.17q-.65,10.84-1.26,21.71c0,.23-.05.47-.08.71a4.89,4.89,0,0,1-2.63-1.27,9.52,9.52,0,0,1-2.73-5.18,32.37,32.37,0,0,1-.62-7.48,3.8,3.8,0,1,0-7.6-.08c0,2.36.12,4.72.36,7.06a18.43,18.43,0,0,0,3,8.56,13.67,13.67,0,0,0,9.59,6.17c.52.08.69.31.71.82a136.62,136.62,0,0,0,2,17.45,54.11,54.11,0,0,0-10,1.73h33.92l0-.24-10.2-1.62c0-.11,0-.23.07-.35.47-2.3,1.1-4.59,1.37-6.92.38-3.3.5-6.63.69-9.95,0-.58.2-.81.79-.89,5.35-.8,9-3.87,11.14-8.7,1.92-4.28,2.23-8.83,2-13.43a3.8,3.8,0,0,0-7.57,0c-.1,1.43,0,2.88-.13,4.31a14.85,14.85,0,0,1-2,7.3A6.19,6.19,0,0,1,854.11,372.68Z"/><path class="cls-12" d="M854.11,372.68a6.19,6.19,0,0,0,4.13-2.83,14.85,14.85,0,0,0,2-7.3c.1-1.43,0-2.88.13-4.31a3.8,3.8,0,0,1,7.57,0c.23,4.6-.08,9.15-2,13.43-2.17,4.83-5.79,7.9-11.14,8.7-.59.08-.76.31-.79.89-.19,3.32-.31,6.65-.69,9.95-.27,2.33-.9,4.62-1.37,6.92,0,.12-.05.24-.07.35l10.2,1.62,0,.24H828.16a54.11,54.11,0,0,1,10-1.73,136.62,136.62,0,0,1-2-17.45c0-.51-.19-.74-.71-.82a13.67,13.67,0,0,1-9.59-6.17,18.43,18.43,0,0,1-3-8.56c-.24-2.34-.34-4.7-.36-7.06a3.8,3.8,0,1,1,7.6.08,32.37,32.37,0,0,0,.62,7.48,9.52,9.52,0,0,0,2.73,5.18,4.89,4.89,0,0,0,2.63,1.27c0-.24.06-.48.08-.71q.63-10.86,1.26-21.71c.13-2.06.35-4.11.44-6.17a4.69,4.69,0,0,1,1.67-3.43,8.19,8.19,0,0,1,9.08-1.39,6.1,6.1,0,0,1,3.75,5.14c.47,6.34,1,12.67,1.41,19C853.9,366.35,854,369.45,854.11,372.68Z"/><path class="cls-12" d="M649.16,457c-.14-3.22-.22-6.32-.43-9.41-.43-6.34-.93-12.68-1.41-19a6.08,6.08,0,0,0-3.74-5.15,8.22,8.22,0,0,0-9.09,1.4,4.74,4.74,0,0,0-1.67,3.43c-.09,2.06-.3,4.11-.43,6.16-.43,7.24-.84,14.48-1.27,21.71,0,.24,0,.47-.07.71a4.91,4.91,0,0,1-2.64-1.26,9.65,9.65,0,0,1-2.73-5.19,32.83,32.83,0,0,1-.61-7.47,3.8,3.8,0,1,0-7.6-.08c0,2.35.12,4.71.35,7.05a18.61,18.61,0,0,0,3,8.56,13.66,13.66,0,0,0,9.6,6.17c.52.08.69.31.71.83a138.47,138.47,0,0,0,2,17.44,54.28,54.28,0,0,0-9.95,1.74h33.93l0-.25L647,482.75c0-.1,0-.22.07-.34.47-2.31,1.1-4.6,1.37-6.93.37-3.3.49-6.63.69-10,0-.57.2-.8.79-.89,5.35-.8,9-3.86,11.14-8.7,1.92-4.27,2.22-8.83,2-13.43a3.8,3.8,0,0,0-7.57,0c-.1,1.44,0,2.88-.13,4.31a14.82,14.82,0,0,1-2,7.31A6.19,6.19,0,0,1,649.16,457Z"/><path class="cls-12" d="M649.16,457a6.19,6.19,0,0,0,4.12-2.82,14.82,14.82,0,0,0,2-7.31c.09-1.43,0-2.87.13-4.31a3.8,3.8,0,0,1,7.57,0c.22,4.6-.08,9.16-2,13.43-2.17,4.84-5.79,7.9-11.14,8.7-.59.09-.76.32-.79.89-.2,3.32-.32,6.65-.69,10-.27,2.33-.9,4.62-1.37,6.93,0,.12,0,.24-.07.34l10.2,1.62,0,.25H623.2a54.28,54.28,0,0,1,9.95-1.74,138.47,138.47,0,0,1-2-17.44c0-.52-.19-.75-.71-.83a13.66,13.66,0,0,1-9.6-6.17,18.61,18.61,0,0,1-3-8.56c-.23-2.34-.34-4.7-.35-7.05a3.8,3.8,0,1,1,7.6.08,32.83,32.83,0,0,0,.61,7.47,9.65,9.65,0,0,0,2.73,5.19,4.91,4.91,0,0,0,2.64,1.26c0-.24.06-.47.07-.71.43-7.23.84-14.47,1.27-21.71.13-2.05.34-4.1.43-6.16a4.74,4.74,0,0,1,1.67-3.43,8.22,8.22,0,0,1,9.09-1.4,6.08,6.08,0,0,1,3.74,5.15c.48,6.33,1,12.67,1.41,19C648.94,450.67,649,453.77,649.16,457Z"/><path class="cls-12" d="M34.22,417.42c-.1-2.11-.15-4.14-.28-6.16-.29-4.15-.61-8.3-.93-12.45a4,4,0,0,0-2.45-3.36,5.36,5.36,0,0,0-5.94.91,3.09,3.09,0,0,0-1.1,2.25c-.06,1.34-.2,2.69-.28,4q-.42,7.11-.83,14.21c0,.16,0,.31-.05.46a3.22,3.22,0,0,1-1.72-.82,6.23,6.23,0,0,1-1.79-3.4,21,21,0,0,1-.4-4.89,2.49,2.49,0,1,0-5-.05c0,1.54.08,3.08.23,4.62a12.24,12.24,0,0,0,2,5.6,9,9,0,0,0,6.28,4c.34,0,.45.2.46.54a90.83,90.83,0,0,0,1.33,11.42,35.17,35.17,0,0,0-6.52,1.13H39.43l0-.16-6.68-1.06c0-.07,0-.15,0-.22.31-1.51.72-3,.9-4.54.24-2.16.32-4.34.45-6.51,0-.38.13-.53.52-.58a9.12,9.12,0,0,0,7.29-5.7,18.84,18.84,0,0,0,1.3-8.79,2.48,2.48,0,0,0-5,0c-.06.94,0,1.88-.09,2.82a9.59,9.59,0,0,1-1.33,4.78A4.08,4.08,0,0,1,34.22,417.42Z"/><path class="cls-12" d="M34.22,417.42a4.08,4.08,0,0,0,2.69-1.85,9.59,9.59,0,0,0,1.33-4.78c.07-.94,0-1.88.09-2.82a2.48,2.48,0,0,1,5,0,18.84,18.84,0,0,1-1.3,8.79,9.12,9.12,0,0,1-7.29,5.7c-.39.05-.5.2-.52.58-.13,2.17-.21,4.35-.45,6.51-.18,1.53-.59,3-.9,4.54,0,.07,0,.15,0,.22l6.68,1.06,0,.16H17.22a35.17,35.17,0,0,1,6.52-1.13A90.83,90.83,0,0,1,22.41,423c0-.34-.12-.49-.46-.54a9,9,0,0,1-6.28-4,12.24,12.24,0,0,1-2-5.6c-.15-1.54-.22-3.08-.23-4.62a2.49,2.49,0,1,1,5,.05,21,21,0,0,0,.4,4.89,6.23,6.23,0,0,0,1.79,3.4,3.22,3.22,0,0,0,1.72.82c0-.15,0-.3.05-.46q.42-7.11.83-14.21c.08-1.34.22-2.69.28-4a3.09,3.09,0,0,1,1.1-2.25,5.36,5.36,0,0,1,5.94-.91A4,4,0,0,1,33,398.81c.32,4.15.64,8.3.93,12.45C34.07,413.28,34.12,415.31,34.22,417.42Z"/><path class="cls-12" d="M789.18,401v-7.6c.64-1.73,1.94-2.32,3.31-1.5a2.22,2.22,0,0,1,1,2.13c0,1.5,0,3,0,4.52h2.44v-.95c0-5,0-10,0-15a2.42,2.42,0,0,1,1.64-2.65h.9c1.4.59,1.68,1,1.68,2.6V395.2h2.47c0-1.56,0-3.07,0-4.58a3.42,3.42,0,0,1,.34-1.48,1.87,1.87,0,0,1,1.9-.91,2.11,2.11,0,0,1,1.93,1.48v8.2a2.38,2.38,0,0,1-2.39,1.53c-.59,0-1.19,0-1.79,0H800.1v1c0,5,0,10.07,0,15.11a2.52,2.52,0,0,1-1.39,2.62h-1.49a2.73,2.73,0,0,1-1.35-2.8c0-3.89,0-7.78,0-11.68v-.85c-1.35,0-2.61,0-3.87,0A2.52,2.52,0,0,1,789.18,401Z"/><path class="cls-12" d="M297.53,487.53V475.61c1-2.71,3.05-3.63,5.19-2.35,1.29.77,1.48,2,1.5,3.33,0,2.36,0,4.73,0,7.1h3.84V482.2c0-7.82,0-15.64,0-23.46,0-2,.61-3.47,2.58-4.16H312c2.2.92,2.63,1.59,2.63,4.08q0,9.21,0,18.42v1.29h3.89c0-2.45-.05-4.81,0-7.17a5.42,5.42,0,0,1,.54-2.33,2.93,2.93,0,0,1,3-1.43,3.32,3.32,0,0,1,3,2.33v12.85a3.76,3.76,0,0,1-3.75,2.41c-.93,0-1.87,0-2.8,0h-3.91v1.57c0,7.9,0,15.8,0,23.7,0,1.84-.44,3.29-2.19,4.12h-2.34c-1.78-.95-2.13-2.53-2.11-4.4,0-6.1,0-12.21,0-18.31v-1.35c-2.12,0-4.1-.07-6.07,0C299.79,490.47,298.24,489.7,297.53,487.53Z"/><path class="cls-12" d="M403.82,470.79v-25.5c2.15-5.8,6.51-7.77,11.1-5,2.76,1.64,3.17,4.33,3.2,7.13.05,5.06,0,10.11,0,15.19h8.2v-3.19c0-16.73.07-33.46,0-50.19,0-4.29,1.3-7.41,5.52-8.9h3c4.7,2,5.63,3.4,5.63,8.73q0,19.7,0,39.4v2.76h8.3c0-5.23-.09-10.29.06-15.34a11.64,11.64,0,0,1,1.16-5c1.28-2.43,3.72-3.18,6.38-3,3.27.17,5.28,2.06,6.46,5v27.5c-1.62,3.34-4.12,5.3-8,5.15-2-.08-4,0-6,0h-8.35v3.34c0,16.9-.06,33.8.05,50.7,0,3.93-.94,7-4.68,8.8h-5c-3.8-2-4.56-5.39-4.52-9.4.12-13.05,0-26.11,0-39.17v-2.88c-4.53,0-8.76-.16-13,0C408.65,477.08,405.33,475.42,403.82,470.79Z"/><path class="cls-13" d="M55.45,500.18a35.18,35.18,0,0,0-6.9,2.41,26.36,26.36,0,0,0-6.31,4.07h46a22.45,22.45,0,0,0-5.79-3.8c-2.08-.93-4.23-1.72-6.25-2.54.28-2.79-.21-5.61-.13-8.44a4.06,4.06,0,0,0,4-3,7.42,7.42,0,0,0,.34-2.08c0-1.63-.11-3.26-.19-4.89a1.42,1.42,0,1,0-2.82.09c0,1,0,2.09,0,3.13a17.49,17.49,0,0,1-.38,2.48c-.15.67-.35.75-1.08.65a2.89,2.89,0,0,1,0-.29c-.11-2.9-.21-5.79-.32-8.69,0-1.16-.08-2.32-.18-3.48a1.66,1.66,0,0,0-1.74-1.48,1.69,1.69,0,0,0-1.7,1.6c-.08,1.77-.14,3.53-.21,5.3l-.21,4.84c-1.42-.12-1.32.24-1.39-1.2-.07-1.19,0-2.39.06-3.58A1.38,1.38,0,0,0,69,479.82a1.33,1.33,0,0,0-1.49,1.05,6,6,0,0,0-.14.74,18.73,18.73,0,0,0-.26,4.73,3.12,3.12,0,0,0,2.57,2.91c.53.12,1.09.14,1.65.21l-.4,9.92L65.65,499l-.91-24.78a8,8,0,0,0,1.56.19,7,7,0,0,0,6.49-4.72,14.25,14.25,0,0,0,.86-5.55c-.09-3.2-.32-6.39-.53-9.58a3.85,3.85,0,0,0-.37-1.5A2.52,2.52,0,0,0,68,454.4a70.11,70.11,0,0,1-.21,10,23,23,0,0,1-.67,2.93.76.76,0,0,1-.68.6c-.64.08-1.28.19-2,.3,0-.66,0-1.36,0-2.07q-.16-4.81-.35-9.64c-.07-2.05-.12-4.11-.22-6.16a3.33,3.33,0,0,0-6.65-.14c-.22,5.33-.41,10.67-.61,16q-.18,5-.34,9.95c0,.78-.07,1.56-.1,2.39a3.19,3.19,0,0,0-2.18-.54c-.38.06-.57,0-.62-.42-.16-1.25-.42-2.49-.48-3.74-.09-1.7,0-3.4,0-5.1a2.59,2.59,0,0,0-2.36-2.63,2.5,2.5,0,0,0-2.7,2.19c-.19,1.5-.36,3-.44,4.52a22.69,22.69,0,0,0,.35,6.83,5.75,5.75,0,0,0,5.91,4.78A4.14,4.14,0,0,0,56,484c0,.31,0,.49,0,.67-.12,3-.24,6-.34,8.94C55.54,495.77,55.5,497.92,55.45,500.18Z"/><path class="cls-13" d="M55.45,500.18c0-2.26.09-4.41.16-6.55.1-3,.22-6,.34-8.94,0-.18,0-.36,0-.67a4.14,4.14,0,0,1-2.36.47,5.75,5.75,0,0,1-5.91-4.78,22.69,22.69,0,0,1-.35-6.83c.08-1.51.25-3,.44-4.52a2.5,2.5,0,0,1,2.7-2.19,2.59,2.59,0,0,1,2.36,2.63c0,1.7-.06,3.4,0,5.1.06,1.25.32,2.49.48,3.74.05.38.24.48.62.42a3.19,3.19,0,0,1,2.18.54c0-.83.07-1.61.1-2.39q.16-5,.34-9.95c.2-5.33.39-10.67.61-16a3.33,3.33,0,0,1,6.65.14c.1,2.05.15,4.11.22,6.16q.18,4.83.35,9.64c0,.71,0,1.41,0,2.07.74-.11,1.38-.22,2-.3a.76.76,0,0,0,.68-.6,23,23,0,0,0,.67-2.93,70.11,70.11,0,0,0,.21-10,2.52,2.52,0,0,1,4.73-1.32,3.85,3.85,0,0,1,.37,1.5c.21,3.19.44,6.38.53,9.58a14.25,14.25,0,0,1-.86,5.55,7,7,0,0,1-6.49,4.72,8,8,0,0,1-1.56-.19L65.65,499l5.28.36.4-9.92c-.56-.07-1.12-.09-1.65-.21a3.12,3.12,0,0,1-2.57-2.91,18.73,18.73,0,0,1,.26-4.73,6,6,0,0,1,.14-.74A1.33,1.33,0,0,1,69,479.82a1.38,1.38,0,0,1,1.13,1.46c0,1.19-.13,2.39-.06,3.58.07,1.44,0,1.08,1.39,1.2l.21-4.84c.07-1.77.13-3.53.21-5.3a1.69,1.69,0,0,1,1.7-1.6,1.66,1.66,0,0,1,1.74,1.48c.1,1.16.13,2.32.18,3.48.11,2.9.21,5.79.32,8.69a2.89,2.89,0,0,0,0,.29c.73.1.93,0,1.08-.65a17.49,17.49,0,0,0,.38-2.48c.06-1,0-2.09,0-3.13a1.42,1.42,0,1,1,2.82-.09c.08,1.63.18,3.26.19,4.89a7.42,7.42,0,0,1-.34,2.08,4.06,4.06,0,0,1-4,3c-.08,2.83.41,5.65.13,8.44,2,.82,4.17,1.61,6.25,2.54a22.45,22.45,0,0,1,5.79,3.8h-46a26.36,26.36,0,0,1,6.31-4.07A35.18,35.18,0,0,1,55.45,500.18Z"/><path class="cls-14" d="M149,588.63a49.91,49.91,0,0,0-9.65,3.37,36.19,36.19,0,0,0-8.81,5.7h64.25a30.94,30.94,0,0,0-8.08-5.31c-2.92-1.32-5.93-2.42-8.76-3.56.4-3.9-.28-7.85-.17-11.81,2.82-.21,4.77-1.48,5.57-4.19a10,10,0,0,0,.46-2.91c0-2.28-.15-4.56-.25-6.84a2,2,0,1,0-4,.12c0,1.46.06,2.93,0,4.38a21.39,21.39,0,0,1-.53,3.47c-.2.94-.49,1.05-1.51.91,0-.13,0-.27-.05-.4q-.22-6.07-.46-12.15c-.06-1.62-.11-3.25-.25-4.86a2.3,2.3,0,0,0-2.43-2.08,2.36,2.36,0,0,0-2.37,2.24c-.12,2.47-.19,4.94-.3,7.41-.09,2.26-.19,4.51-.3,6.77-2-.16-1.83.33-1.94-1.68-.09-1.67,0-3.34.09-5a1.92,1.92,0,0,0-1.58-2,1.84,1.84,0,0,0-2.09,1.46,9.06,9.06,0,0,0-.19,1,26.07,26.07,0,0,0-.36,6.6,4.35,4.35,0,0,0,3.59,4.08c.75.16,1.52.2,2.31.29l-.56,13.87-7.39-.5L162,552.36a11.58,11.58,0,0,0,2.19.27c4-.32,7.39-2.16,9.07-6.6a20.47,20.47,0,0,0,1.21-7.77c-.13-4.47-.46-8.93-.75-13.39a5.49,5.49,0,0,0-.51-2.09,3.53,3.53,0,0,0-6.62,1.84,99.71,99.71,0,0,1-.29,14,34.69,34.69,0,0,1-.94,4.1,1.07,1.07,0,0,1-.95.83c-.9.11-1.79.26-2.82.42,0-.92,0-1.9,0-2.89-.15-4.49-.32-9-.48-13.48-.11-2.87-.17-5.74-.32-8.61a4.66,4.66,0,0,0-9.29-.2c-.31,7.46-.58,14.92-.85,22.38-.17,4.63-.32,9.27-.49,13.91,0,1.08-.09,2.17-.14,3.33a4.47,4.47,0,0,0-3-.75c-.53.09-.79-.05-.86-.58-.23-1.75-.59-3.49-.68-5.24-.12-2.37,0-4.75,0-7.13a3.6,3.6,0,0,0-3.29-3.68,3.5,3.5,0,0,0-3.77,3.07c-.27,2.1-.5,4.2-.62,6.32a31.9,31.9,0,0,0,.49,9.55c1.05,4.23,4,6.72,8.26,6.68a5.86,5.86,0,0,0,3.3-.65c0,.42,0,.68,0,.93-.16,4.17-.33,8.33-.47,12.5C149.09,582.47,149,585.47,149,588.63Z"/><path class="cls-14" d="M149,588.63c.08-3.16.13-6.16.23-9.16.14-4.17.31-8.33.47-12.5,0-.25,0-.51,0-.93a5.86,5.86,0,0,1-3.3.65c-4.27,0-7.21-2.45-8.26-6.68a31.9,31.9,0,0,1-.49-9.55c.12-2.12.35-4.22.62-6.32a3.5,3.5,0,0,1,3.77-3.07,3.6,3.6,0,0,1,3.29,3.68c0,2.38-.07,4.76,0,7.13.09,1.75.45,3.49.68,5.24.07.53.33.67.86.58a4.47,4.47,0,0,1,3,.75c0-1.16.1-2.25.14-3.33.17-4.64.32-9.28.49-13.91.27-7.46.54-14.92.85-22.38a4.66,4.66,0,0,1,9.29.2c.15,2.87.21,5.74.32,8.61.16,4.49.33,9,.48,13.48,0,1,0,2,0,2.89,1-.16,1.92-.31,2.82-.42a1.07,1.07,0,0,0,.95-.83,34.69,34.69,0,0,0,.94-4.1,99.71,99.71,0,0,0,.29-14,3.53,3.53,0,0,1,6.62-1.84,5.49,5.49,0,0,1,.51,2.09c.29,4.46.62,8.92.75,13.39a20.47,20.47,0,0,1-1.21,7.77c-1.68,4.44-5.08,6.28-9.07,6.6a11.58,11.58,0,0,1-2.19-.27L163.22,587l7.39.5.56-13.87c-.79-.09-1.56-.13-2.31-.29a4.35,4.35,0,0,1-3.59-4.08,26.07,26.07,0,0,1,.36-6.6,9.06,9.06,0,0,1,.19-1,1.84,1.84,0,0,1,2.09-1.46,1.92,1.92,0,0,1,1.58,2c-.05,1.67-.18,3.34-.09,5,.11,2,0,1.52,1.94,1.68.11-2.26.21-4.51.3-6.77.11-2.47.18-4.94.3-7.41a2.36,2.36,0,0,1,2.37-2.24,2.3,2.3,0,0,1,2.43,2.08c.14,1.61.19,3.24.25,4.86q.24,6.08.46,12.15c0,.13,0,.27.05.4,1,.14,1.31,0,1.51-.91a21.39,21.39,0,0,0,.53-3.47c.09-1.45,0-2.92,0-4.38a2,2,0,1,1,4-.12c.1,2.28.24,4.56.25,6.84a10,10,0,0,1-.46,2.91c-.8,2.71-2.75,4-5.57,4.19-.11,4,.57,7.91.17,11.81,2.83,1.14,5.84,2.24,8.76,3.56a30.94,30.94,0,0,1,8.08,5.31H130.5a36.19,36.19,0,0,1,8.81-5.7A49.91,49.91,0,0,1,149,588.63Z"/><path class="cls-14" d="M196,616.29a50,50,0,0,0-9.65,3.38,36.15,36.15,0,0,0-8.81,5.69h64.25a31.45,31.45,0,0,0-8.08-5.31c-2.92-1.31-5.93-2.42-8.76-3.55.4-3.9-.28-7.85-.17-11.81,2.82-.22,4.77-1.49,5.57-4.19a10,10,0,0,0,.46-2.91c0-2.28-.15-4.56-.25-6.84a2,2,0,1,0-4,.12c0,1.46.06,2.93,0,4.38a21.56,21.56,0,0,1-.53,3.47c-.2.93-.49,1-1.51.9,0-.12,0-.26-.05-.4q-.22-6.08-.46-12.14c-.06-1.62-.11-3.25-.25-4.87a2.32,2.32,0,0,0-2.43-2.08,2.37,2.37,0,0,0-2.37,2.25c-.12,2.47-.19,4.94-.3,7.41-.09,2.25-.19,4.51-.3,6.76-2-.16-1.83.34-1.94-1.68-.09-1.66,0-3.34.09-5a1.92,1.92,0,0,0-1.58-2,1.84,1.84,0,0,0-2.09,1.47,9.06,9.06,0,0,0-.19,1,26,26,0,0,0-.36,6.6,4.37,4.37,0,0,0,3.59,4.08c.75.16,1.52.19,2.31.29l-.56,13.87-7.39-.5L209,580a10.78,10.78,0,0,0,2.19.26c4-.32,7.39-2.15,9.07-6.6a20.39,20.39,0,0,0,1.21-7.76c-.13-4.47-.46-8.93-.75-13.39a5.59,5.59,0,0,0-.51-2.1,3.53,3.53,0,0,0-6.62,1.84,99.82,99.82,0,0,1-.29,14.05,34.69,34.69,0,0,1-.94,4.1,1,1,0,0,1-.95.82c-.9.12-1.79.27-2.82.43,0-.92,0-1.91,0-2.89-.15-4.49-.32-9-.48-13.48-.11-2.87-.17-5.75-.32-8.62a4.63,4.63,0,0,0-4.66-4.45,4.59,4.59,0,0,0-4.63,4.26c-.31,7.45-.58,14.91-.85,22.37-.17,4.64-.32,9.28-.49,13.91,0,1.09-.09,2.18-.14,3.34a4.53,4.53,0,0,0-3-.76c-.53.09-.79,0-.86-.58-.23-1.74-.59-3.48-.68-5.23-.12-2.37,0-4.76,0-7.13a3.6,3.6,0,0,0-3.29-3.68,3.5,3.5,0,0,0-3.77,3.06c-.27,2.1-.5,4.21-.62,6.32a32,32,0,0,0,.49,9.56c1.05,4.23,4,6.71,8.26,6.67a5.85,5.85,0,0,0,3.3-.64c0,.42,0,.67,0,.93-.16,4.17-.33,8.33-.47,12.5C196.09,610.14,196,613.14,196,616.29Z"/><path class="cls-14" d="M196,616.29c.08-3.15.13-6.15.23-9.15.14-4.17.31-8.33.47-12.5,0-.26,0-.51,0-.93a5.85,5.85,0,0,1-3.3.64c-4.27,0-7.21-2.44-8.26-6.67a32,32,0,0,1-.49-9.56c.12-2.11.35-4.22.62-6.32a3.5,3.5,0,0,1,3.77-3.06,3.6,3.6,0,0,1,3.29,3.68c0,2.37-.07,4.76,0,7.13.09,1.75.45,3.49.68,5.23.07.54.33.67.86.58a4.53,4.53,0,0,1,3,.76c0-1.16.1-2.25.14-3.34.17-4.63.32-9.27.49-13.91.27-7.46.54-14.92.85-22.37a4.59,4.59,0,0,1,4.63-4.26,4.63,4.63,0,0,1,4.66,4.45c.15,2.87.21,5.75.32,8.62.16,4.49.33,9,.48,13.48,0,1,0,2,0,2.89,1-.16,1.92-.31,2.82-.43a1,1,0,0,0,.95-.82,34.69,34.69,0,0,0,.94-4.1,99.82,99.82,0,0,0,.29-14.05,3.53,3.53,0,0,1,6.62-1.84,5.59,5.59,0,0,1,.51,2.1c.29,4.46.62,8.92.75,13.39a20.39,20.39,0,0,1-1.21,7.76c-1.68,4.45-5.08,6.28-9.07,6.6A10.78,10.78,0,0,1,209,580l1.27,34.65,7.39.5.56-13.87c-.79-.1-1.56-.13-2.31-.29a4.37,4.37,0,0,1-3.59-4.08,26,26,0,0,1,.36-6.6,9.06,9.06,0,0,1,.19-1,1.84,1.84,0,0,1,2.09-1.47,1.92,1.92,0,0,1,1.58,2c-.05,1.67-.18,3.35-.09,5,.11,2,0,1.52,1.94,1.68.11-2.25.21-4.51.3-6.76.11-2.47.18-4.94.3-7.41a2.37,2.37,0,0,1,2.37-2.25,2.32,2.32,0,0,1,2.43,2.08c.14,1.62.19,3.25.25,4.87q.24,6.07.46,12.14c0,.14,0,.28.05.4,1,.14,1.31,0,1.51-.9a21.56,21.56,0,0,0,.53-3.47c.09-1.45,0-2.92,0-4.38a2,2,0,1,1,4-.12c.1,2.28.24,4.56.25,6.84a10,10,0,0,1-.46,2.91c-.8,2.7-2.75,4-5.57,4.19-.11,4,.57,7.91.17,11.81,2.83,1.13,5.84,2.24,8.76,3.55a31.45,31.45,0,0,1,8.08,5.31H177.5a36.15,36.15,0,0,1,8.81-5.69A50,50,0,0,1,196,616.29Z"/><path class="cls-3" d="M554.72,567a36.17,36.17,0,0,0-6.91,2.41,26,26,0,0,0-6.3,4.08h46a22.23,22.23,0,0,0-5.78-3.8c-2.08-.94-4.24-1.73-6.26-2.54.28-2.79-.2-5.62-.12-8.45a4,4,0,0,0,4-3,7,7,0,0,0,.33-2.08c0-1.63-.11-3.26-.18-4.89a1.42,1.42,0,1,0-2.82.09c0,1,0,2.09,0,3.13a16,16,0,0,1-.37,2.48c-.15.67-.36.75-1.09.65l0-.29c-.11-2.89-.21-5.79-.33-8.68,0-1.16-.08-2.33-.17-3.48a1.67,1.67,0,0,0-1.75-1.49,1.71,1.71,0,0,0-1.69,1.61c-.08,1.76-.14,3.53-.21,5.3-.07,1.61-.14,3.22-.22,4.83-1.41-.11-1.31.24-1.38-1.2-.07-1.19,0-2.39,0-3.58a1.35,1.35,0,0,0-1.12-1.45,1.32,1.32,0,0,0-1.5,1,6.54,6.54,0,0,0-.13.75,18.65,18.65,0,0,0-.26,4.72A3.11,3.11,0,0,0,569,556a14.58,14.58,0,0,0,1.65.21l-.4,9.92-5.29-.35L564,541a7.25,7.25,0,0,0,1.56.2,7,7,0,0,0,6.49-4.72,14.71,14.71,0,0,0,.86-5.56c-.09-3.19-.32-6.39-.53-9.58a3.85,3.85,0,0,0-.37-1.49,2.52,2.52,0,0,0-4.73,1.31,71.74,71.74,0,0,1-.21,10,24.82,24.82,0,0,1-.67,2.93.77.77,0,0,1-.68.59c-.64.08-1.28.19-2,.3,0-.65,0-1.36,0-2.06-.11-3.22-.24-6.43-.35-9.64-.08-2.06-.12-4.11-.22-6.16A3.33,3.33,0,0,0,559.8,514a3.29,3.29,0,0,0-3.31,3c-.22,5.34-.41,10.67-.61,16-.12,3.31-.23,6.63-.35,9.94,0,.78-.06,1.56-.1,2.39a3.21,3.21,0,0,0-2.17-.54c-.38.06-.57,0-.62-.41-.16-1.25-.42-2.5-.48-3.75-.09-1.69,0-3.4,0-5.1a2.58,2.58,0,0,0-2.35-2.63,2.51,2.51,0,0,0-2.7,2.19c-.19,1.5-.36,3-.44,4.52a22.77,22.77,0,0,0,.35,6.84,5.74,5.74,0,0,0,5.9,4.77,4.2,4.2,0,0,0,2.36-.46c0,.3,0,.48,0,.67-.11,3-.23,6-.33,8.93C554.81,562.57,554.77,564.71,554.72,567Z"/><path class="cls-3" d="M554.72,567c0-2.26.09-4.4.16-6.55.1-3,.22-6,.33-8.93,0-.19,0-.37,0-.67a4.2,4.2,0,0,1-2.36.46,5.74,5.74,0,0,1-5.9-4.77,22.77,22.77,0,0,1-.35-6.84c.08-1.51.25-3,.44-4.52a2.51,2.51,0,0,1,2.7-2.19,2.58,2.58,0,0,1,2.35,2.63c0,1.7,0,3.41,0,5.1.06,1.25.32,2.5.48,3.75.05.38.24.47.62.41a3.21,3.21,0,0,1,2.17.54c0-.83.08-1.61.1-2.39.12-3.31.23-6.63.35-9.94.2-5.34.39-10.67.61-16a3.29,3.29,0,0,1,3.31-3,3.33,3.33,0,0,1,3.34,3.19c.1,2,.14,4.1.22,6.16.11,3.21.24,6.42.35,9.64,0,.7,0,1.41,0,2.06.74-.11,1.38-.22,2-.3a.77.77,0,0,0,.68-.59,24.82,24.82,0,0,0,.67-2.93,71.74,71.74,0,0,0,.21-10,2.52,2.52,0,0,1,4.73-1.31,3.85,3.85,0,0,1,.37,1.49c.21,3.19.44,6.39.53,9.58a14.71,14.71,0,0,1-.86,5.56,7,7,0,0,1-6.49,4.72A7.25,7.25,0,0,1,564,541l.9,24.79,5.29.35.4-9.92A14.58,14.58,0,0,1,569,556a3.11,3.11,0,0,1-2.57-2.91,18.65,18.65,0,0,1,.26-4.72,6.54,6.54,0,0,1,.13-.75,1.32,1.32,0,0,1,1.5-1,1.35,1.35,0,0,1,1.12,1.45c0,1.19-.12,2.39,0,3.58.07,1.44,0,1.09,1.38,1.2.08-1.61.15-3.22.22-4.83.07-1.77.13-3.54.21-5.3a1.71,1.71,0,0,1,1.69-1.61,1.67,1.67,0,0,1,1.75,1.49c.09,1.15.13,2.32.17,3.48.12,2.89.22,5.79.33,8.68l0,.29c.73.1.94,0,1.09-.65a16,16,0,0,0,.37-2.48c.07-1,0-2.09,0-3.13a1.42,1.42,0,1,1,2.82-.09c.07,1.63.18,3.26.18,4.89a7,7,0,0,1-.33,2.08,4,4,0,0,1-4,3c-.08,2.83.4,5.66.12,8.45,2,.81,4.18,1.6,6.26,2.54a22.23,22.23,0,0,1,5.78,3.8h-46a26,26,0,0,1,6.3-4.08A36.17,36.17,0,0,1,554.72,567Z"/><path class="cls-3" d="M847,507.73a35.22,35.22,0,0,0-6.9,2.42,25.81,25.81,0,0,0-6.3,4.07h45.95a22.57,22.57,0,0,0-5.78-3.8c-2.09-.94-4.24-1.73-6.26-2.54.28-2.79-.2-5.61-.13-8.44a4.06,4.06,0,0,0,4-3,7.78,7.78,0,0,0,.33-2.08c0-1.63-.11-3.26-.19-4.89a1.42,1.42,0,1,0-2.82.08c0,1.05,0,2.09,0,3.13a15,15,0,0,1-.38,2.49c-.15.66-.35.74-1.08.64a2.66,2.66,0,0,1,0-.28l-.33-8.69c-.05-1.16-.08-2.32-.18-3.48a1.66,1.66,0,0,0-1.74-1.49,1.71,1.71,0,0,0-1.7,1.61c-.08,1.76-.13,3.53-.21,5.3-.06,1.61-.14,3.22-.21,4.84-1.42-.12-1.31.24-1.39-1.2-.06-1.19,0-2.39.06-3.59a1.37,1.37,0,0,0-1.13-1.45,1.32,1.32,0,0,0-1.49,1.05c-.06.24-.1.49-.14.74a18.67,18.67,0,0,0-.25,4.72,3.11,3.11,0,0,0,2.56,2.92c.54.12,1.09.14,1.65.21l-.39,9.92-5.29-.36-.91-24.78a8,8,0,0,0,1.56.19,7,7,0,0,0,6.49-4.72,14.47,14.47,0,0,0,.87-5.56c-.09-3.19-.33-6.38-.54-9.57a4,4,0,0,0-.36-1.5,2.53,2.53,0,0,0-4.74,1.32,71.59,71.59,0,0,1-.2,10,24.86,24.86,0,0,1-.68,2.93.74.74,0,0,1-.68.59l-2,.31c0-.66,0-1.37,0-2.07-.11-3.21-.23-6.43-.35-9.64-.07-2.05-.12-4.11-.22-6.16a3.33,3.33,0,0,0-6.65-.14c-.22,5.33-.41,10.67-.61,16-.12,3.32-.23,6.63-.34,9.95,0,.78-.07,1.56-.1,2.38a3.3,3.3,0,0,0-2.18-.54c-.38.07-.56,0-.62-.41-.16-1.25-.41-2.49-.48-3.75-.08-1.69,0-3.4,0-5.1a2.58,2.58,0,0,0-2.36-2.62,2.49,2.49,0,0,0-2.69,2.19c-.2,1.5-.36,3-.45,4.52a23.37,23.37,0,0,0,.35,6.83,5.74,5.74,0,0,0,5.91,4.77,4.13,4.13,0,0,0,2.36-.46c0,.3,0,.49,0,.67-.12,3-.24,6-.34,8.93C847.11,503.33,847.08,505.48,847,507.73Z"/><path class="cls-3" d="M847,507.73c.06-2.25.09-4.4.16-6.55.1-3,.22-5.95.34-8.93,0-.18,0-.37,0-.67a4.13,4.13,0,0,1-2.36.46,5.74,5.74,0,0,1-5.91-4.77,23.37,23.37,0,0,1-.35-6.83c.09-1.51.25-3,.45-4.52a2.49,2.49,0,0,1,2.69-2.19,2.58,2.58,0,0,1,2.36,2.62c0,1.7,0,3.41,0,5.1.07,1.26.32,2.5.48,3.75.06.38.24.48.62.41a3.3,3.3,0,0,1,2.18.54c0-.82.07-1.6.1-2.38.11-3.32.22-6.63.34-9.95.2-5.33.39-10.67.61-16a3.33,3.33,0,0,1,6.65.14c.1,2.05.15,4.11.22,6.16.12,3.21.24,6.43.35,9.64,0,.7,0,1.41,0,2.07l2-.31a.74.74,0,0,0,.68-.59,24.86,24.86,0,0,0,.68-2.93,71.59,71.59,0,0,0,.2-10,2.53,2.53,0,0,1,4.74-1.32,4,4,0,0,1,.36,1.5c.21,3.19.45,6.38.54,9.57a14.47,14.47,0,0,1-.87,5.56,7,7,0,0,1-6.49,4.72,8,8,0,0,1-1.56-.19l.91,24.78,5.29.36.39-9.92c-.56-.07-1.11-.09-1.65-.21a3.11,3.11,0,0,1-2.56-2.92,18.67,18.67,0,0,1,.25-4.72c0-.25.08-.5.14-.74a1.32,1.32,0,0,1,1.49-1.05,1.37,1.37,0,0,1,1.13,1.45c0,1.2-.12,2.4-.06,3.59.08,1.44,0,1.08,1.39,1.2.07-1.62.15-3.23.21-4.84.08-1.77.13-3.54.21-5.3a1.71,1.71,0,0,1,1.7-1.61,1.66,1.66,0,0,1,1.74,1.49c.1,1.16.13,2.32.18,3.48l.33,8.69a2.66,2.66,0,0,0,0,.28c.73.1.93,0,1.08-.64a15,15,0,0,0,.38-2.49c.06-1,0-2.08,0-3.13a1.42,1.42,0,1,1,2.82-.08c.08,1.63.18,3.26.19,4.89a7.78,7.78,0,0,1-.33,2.08,4.06,4.06,0,0,1-4,3c-.07,2.83.41,5.65.13,8.44,2,.81,4.17,1.6,6.26,2.54a22.57,22.57,0,0,1,5.78,3.8H833.82a25.81,25.81,0,0,1,6.3-4.07A35.22,35.22,0,0,1,847,507.73Z"/><path class="cls-12" d="M140,471.12a35.27,35.27,0,0,0-6.91,2.41,26.3,26.3,0,0,0-6.3,4.07h45.95a22.23,22.23,0,0,0-5.78-3.8c-2.09-.93-4.24-1.73-6.26-2.54.28-2.79-.2-5.61-.12-8.44a4.06,4.06,0,0,0,4-3,7.06,7.06,0,0,0,.33-2.08c0-1.63-.11-3.26-.18-4.89a1.42,1.42,0,1,0-2.82.09c0,1,0,2.09,0,3.13a16.14,16.14,0,0,1-.37,2.48c-.15.67-.36.74-1.09.65a2.85,2.85,0,0,1,0-.29c-.11-2.9-.21-5.79-.33-8.69,0-1.16-.08-2.32-.18-3.48a1.64,1.64,0,0,0-1.74-1.48,1.68,1.68,0,0,0-1.69,1.6c-.08,1.77-.14,3.53-.21,5.3-.07,1.61-.14,3.23-.22,4.84-1.41-.12-1.31.24-1.39-1.2-.06-1.19,0-2.39.06-3.59a1.37,1.37,0,0,0-1.12-1.45,1.33,1.33,0,0,0-1.5,1.05,6,6,0,0,0-.13.74,18.67,18.67,0,0,0-.26,4.72,3.12,3.12,0,0,0,2.57,2.92c.53.12,1.08.14,1.65.21l-.4,9.92-5.29-.36-.9-24.78a7.9,7.9,0,0,0,1.56.19,7,7,0,0,0,6.49-4.72,14.63,14.63,0,0,0,.86-5.55c-.09-3.2-.33-6.39-.53-9.58a3.85,3.85,0,0,0-.37-1.5,2.45,2.45,0,0,0-2.83-1.22,2.49,2.49,0,0,0-1.9,2.54,73.15,73.15,0,0,1-.21,10,24.82,24.82,0,0,1-.67,2.93.77.77,0,0,1-.68.6c-.64.08-1.28.19-2,.3,0-.66,0-1.36,0-2.07-.11-3.21-.24-6.42-.35-9.64-.08-2.05-.12-4.11-.23-6.16a3.33,3.33,0,0,0-6.64-.14c-.22,5.33-.41,10.67-.61,16-.12,3.32-.23,6.63-.35,9.95,0,.78-.06,1.56-.1,2.39a3.15,3.15,0,0,0-2.17-.54c-.38.06-.57,0-.62-.42-.16-1.25-.42-2.49-.48-3.74-.09-1.7,0-3.4,0-5.1a2.58,2.58,0,0,0-2.35-2.63,2.5,2.5,0,0,0-2.7,2.19c-.19,1.5-.36,3-.44,4.52a22.69,22.69,0,0,0,.35,6.83,5.73,5.73,0,0,0,5.9,4.77,4,4,0,0,0,2.36-.46c0,.31,0,.49,0,.67-.11,3-.23,6-.33,8.94C140.11,466.71,140.07,468.86,140,471.12Z"/><path class="cls-12" d="M140,471.12c0-2.26.09-4.41.16-6.55.1-3,.22-6,.33-8.94,0-.18,0-.36,0-.67a4,4,0,0,1-2.36.46,5.73,5.73,0,0,1-5.9-4.77,22.69,22.69,0,0,1-.35-6.83c.08-1.51.25-3,.44-4.52a2.5,2.5,0,0,1,2.7-2.19,2.58,2.58,0,0,1,2.35,2.63c0,1.7,0,3.4,0,5.1.06,1.25.32,2.49.48,3.74.05.38.24.48.62.42a3.15,3.15,0,0,1,2.17.54c0-.83.08-1.61.1-2.39.12-3.32.23-6.63.35-9.95.2-5.33.39-10.67.61-16a3.33,3.33,0,0,1,6.64.14c.11,2.05.15,4.11.23,6.16.11,3.22.24,6.43.35,9.64,0,.71,0,1.41,0,2.07.74-.11,1.38-.22,2-.3a.77.77,0,0,0,.68-.6,24.82,24.82,0,0,0,.67-2.93,73.15,73.15,0,0,0,.21-10,2.49,2.49,0,0,1,1.9-2.54,2.45,2.45,0,0,1,2.83,1.22,3.85,3.85,0,0,1,.37,1.5c.2,3.19.44,6.38.53,9.58a14.63,14.63,0,0,1-.86,5.55,7,7,0,0,1-6.49,4.72,7.9,7.9,0,0,1-1.56-.19l.9,24.78,5.29.36.4-9.92c-.57-.07-1.12-.09-1.65-.21a3.12,3.12,0,0,1-2.57-2.92,18.67,18.67,0,0,1,.26-4.72,6,6,0,0,1,.13-.74,1.33,1.33,0,0,1,1.5-1.05,1.37,1.37,0,0,1,1.12,1.45c0,1.2-.12,2.4-.06,3.59.08,1.44,0,1.08,1.39,1.2.08-1.61.15-3.23.22-4.84.07-1.77.13-3.53.21-5.3a1.68,1.68,0,0,1,1.69-1.6,1.64,1.64,0,0,1,1.74,1.48c.1,1.16.14,2.32.18,3.48.12,2.9.22,5.79.33,8.69a2.85,2.85,0,0,0,0,.29c.73.09.94,0,1.09-.65a16.14,16.14,0,0,0,.37-2.48c.07-1,0-2.09,0-3.13a1.42,1.42,0,1,1,2.82-.09c.07,1.63.18,3.26.18,4.89a7.06,7.06,0,0,1-.33,2.08,4.06,4.06,0,0,1-4,3c-.08,2.83.4,5.65.12,8.44,2,.81,4.17,1.61,6.26,2.54a22.23,22.23,0,0,1,5.78,3.8H126.81a26.3,26.3,0,0,1,6.3-4.07A35.27,35.27,0,0,1,140,471.12Z"/><path class="cls-3" d="M812.14,518.57a35.45,35.45,0,0,0-6.9,2.42,25.7,25.7,0,0,0-6.3,4.07h45.95a22.4,22.4,0,0,0-5.78-3.8c-2.09-.94-4.24-1.73-6.26-2.54.28-2.79-.2-5.62-.12-8.45a4,4,0,0,0,4-3,7.79,7.79,0,0,0,.33-2.09c0-1.63-.11-3.26-.18-4.89a1.42,1.42,0,1,0-2.83.09c0,1.05.05,2.09,0,3.13a15.78,15.78,0,0,1-.37,2.48c-.15.67-.36.75-1.09.65a2.58,2.58,0,0,1,0-.29l-.33-8.68c-.05-1.16-.08-2.32-.18-3.48a1.66,1.66,0,0,0-1.74-1.49,1.71,1.71,0,0,0-1.7,1.61c-.08,1.76-.13,3.53-.21,5.3-.06,1.61-.14,3.22-.21,4.84-1.42-.12-1.31.23-1.39-1.21-.06-1.19,0-2.39.06-3.58a1.36,1.36,0,0,0-1.13-1.45,1.31,1.31,0,0,0-1.49,1,6,6,0,0,0-.13.74,18.22,18.22,0,0,0-.26,4.72,3.12,3.12,0,0,0,2.57,2.92c.53.11,1.08.14,1.64.2l-.39,9.92-5.29-.35-.9-24.78a7.9,7.9,0,0,0,1.56.19,7,7,0,0,0,6.49-4.72,14.71,14.71,0,0,0,.86-5.56c-.09-3.19-.33-6.38-.53-9.58a4.24,4.24,0,0,0-.37-1.49,2.52,2.52,0,0,0-4.73,1.31,73.29,73.29,0,0,1-.21,10,23,23,0,0,1-.68,2.93.76.76,0,0,1-.67.59c-.65.08-1.28.19-2,.3,0-.65,0-1.36,0-2.06q-.17-4.83-.35-9.64c-.07-2.06-.11-4.11-.22-6.16a3.32,3.32,0,0,0-3.34-3.19,3.28,3.28,0,0,0-3.3,3.05q-.33,8-.61,16c-.13,3.31-.23,6.63-.35,9.95,0,.77-.06,1.55-.1,2.38a3.28,3.28,0,0,0-2.17-.54c-.39.07-.57,0-.62-.41-.17-1.25-.42-2.49-.49-3.75-.08-1.69,0-3.4,0-5.1a2.59,2.59,0,0,0-2.36-2.63,2.49,2.49,0,0,0-2.69,2.19c-.19,1.5-.36,3-.45,4.52a23.1,23.1,0,0,0,.36,6.84,5.73,5.73,0,0,0,5.9,4.77,4.21,4.21,0,0,0,2.36-.46c0,.3,0,.48,0,.67-.11,3-.24,6-.33,8.93C812.23,514.17,812.2,516.32,812.14,518.57Z"/><path class="cls-3" d="M812.14,518.57c.06-2.25.09-4.4.17-6.55.09-3,.22-5.95.33-8.93,0-.19,0-.37,0-.67a4.21,4.21,0,0,1-2.36.46,5.73,5.73,0,0,1-5.9-4.77,23.1,23.1,0,0,1-.36-6.84c.09-1.51.26-3,.45-4.52a2.49,2.49,0,0,1,2.69-2.19,2.59,2.59,0,0,1,2.36,2.63c0,1.7,0,3.41,0,5.1.07,1.26.32,2.5.49,3.75,0,.38.23.48.62.41a3.28,3.28,0,0,1,2.17.54c0-.83.07-1.61.1-2.38.12-3.32.22-6.64.35-9.95q.29-8,.61-16a3.28,3.28,0,0,1,3.3-3.05,3.32,3.32,0,0,1,3.34,3.19c.11,2.05.15,4.1.22,6.16q.18,4.82.35,9.64c0,.7,0,1.41,0,2.06.74-.11,1.37-.22,2-.3a.76.76,0,0,0,.67-.59,23,23,0,0,0,.68-2.93,73.29,73.29,0,0,0,.21-10,2.52,2.52,0,0,1,4.73-1.31,4.24,4.24,0,0,1,.37,1.49c.2,3.2.44,6.39.53,9.58a14.71,14.71,0,0,1-.86,5.56,7,7,0,0,1-6.49,4.72,7.9,7.9,0,0,1-1.56-.19l.9,24.78,5.29.35.39-9.92c-.56-.06-1.11-.09-1.64-.2a3.12,3.12,0,0,1-2.57-2.92,18.22,18.22,0,0,1,.26-4.72,6,6,0,0,1,.13-.74,1.31,1.31,0,0,1,1.49-1,1.36,1.36,0,0,1,1.13,1.45c0,1.19-.12,2.39-.06,3.58.08,1.44,0,1.09,1.39,1.21.07-1.62.15-3.23.21-4.84.08-1.77.13-3.54.21-5.3a1.71,1.71,0,0,1,1.7-1.61A1.66,1.66,0,0,1,832,494.2c.1,1.16.13,2.32.18,3.48l.33,8.68a2.58,2.58,0,0,0,0,.29c.73.1.94,0,1.09-.65a15.78,15.78,0,0,0,.37-2.48c.07-1,0-2.08,0-3.13a1.42,1.42,0,1,1,2.83-.09c.07,1.63.17,3.26.18,4.89a7.79,7.79,0,0,1-.33,2.09,4,4,0,0,1-4,3c-.08,2.83.4,5.66.12,8.45,2,.81,4.17,1.6,6.26,2.54a22.4,22.4,0,0,1,5.78,3.8H798.94a25.7,25.7,0,0,1,6.3-4.07A35.45,35.45,0,0,1,812.14,518.57Z"/><path class="cls-14" d="M-14.28,576.32l-.15-25.59c3.83-.68,3.82,2.24,4.21,4.53.48,2.82.16,5.72.43,9.82.09-6.67-.19-12.1.18-17.52.26-3.7,1.86-6.54,6-6.68s5.16,2.91,5.72,6.14A62.82,62.82,0,0,1,3,559.48c-.2-8.47-.94-19.26-.62-30.06a31,31,0,0,1,.46-6.6c.88-3.57,3-6.12,6.93-6,4.31.1,5.52,3.26,5.76,6.83.51,7.65-.18,15.33.78,23,1.27-3.31.83-6.78.93-10.18.09-2.87-.18-5.76.55-8.57.65-2.51,2-4.73,4.87-4.71a4.54,4.54,0,0,1,4.48,4.27c.87,10.7,3.2,21.84-7.5,29.76-2.7,2-3.75,4.84-4.11,8a17.55,17.55,0,0,1-6.9,12.44c-6,6.91-3.62,15.08-3.3,22.82.14,3.6,3.82,3.1,6.42,3.12q22.55.1,45.11,0c5.11,0,10.26.53,15.49-.46-.47-3.61-3.74-5.17-4.88-8a16.63,16.63,0,0,1-1.38-6.41c0-2.91,0-6.06,3.24-7.4,3-1.26,5,1.08,6.93,2.89.8.75,1.29,1.78,2.57,2.54,1.65-4.59-.61-9.65,1.89-14,3.37-1.72,3.12,1.41,3.67,2.89,1.84,4.91,1.4,10,.06,15.51,4.26-.59,9.35-4.33,11.66.41s-2.4,8.34-5.53,12.09c6.69.13,13,.2,19.25,0,5.74-.19,7.43-3.58,4.38-8.29a7.85,7.85,0,0,0-2.26-2.43c-9.26-5.8-11.9-14.4-10.92-24.59-.17-6.63-.28-13.26,0-19.87.16-3.45.88-7.09,5.37-7s5.08,3.75,5.26,7.17c.31,6,.19,11.92.07,17.86-.06,5.1-1.37,10.47,3.46,15.54,1.85-5.41-.54-11.72,5.51-14.62a7.25,7.25,0,0,1,5,0c5.92,2.91,4,9,5.36,14.75,4-5.61,2-10.91,2.5-15.86a15.13,15.13,0,0,1,.79-6.45c1.9-4.57,4.78-5,8.87-1.31a101,101,0,0,1,1.92,11.71c1.09,8.45-1,15.77-8.63,20.88a28.36,28.36,0,0,0-5.24,4.79,20.42,20.42,0,0,0,10-2.6c13-6.66,26.25-5.88,39.53-1,2.33.86,4.55,2,7.06,2a10.73,10.73,0,0,1,9.54,5.2c2.31,3.67,5.87,4.83,9.93,3.66s21.3.33,23.63-.05c3.73-.6,6.41-3,9.21-5.24,5.68-4.59,7.86-4,9.89,2.93,1,3.52,3.69,2.74,6,2.76,15.54.09,31.08,0,46.62,0,3.16,0,6.46-.52,9.42.42,11,3.47,21.84.85,32.74-.42,3.29-.39,4.94-1.86,4.95-5,.05-9.07.43-18.14-.22-27.19-.38-5.29-3.89-8.83-7.82-11.91a49.8,49.8,0,0,1-10.8-10.89c-3.1-3.77-4.16-8.2-4.17-12.91,0-15.12-.21-30.24.06-45.36a55.34,55.34,0,0,1,.16-8.54c.55-4.54,3.16-7.3,7.77-7.64,5-.38,7.93,2.38,9.05,7a28.2,28.2,0,0,1,.45,8.5c.09,14.14,0,28.28.05,42.42,0,3.32.05,6.7,1.91,9.63,1.43,2.26,3,4.66,6.38,2.95,2-2.32,1.28-5.09,1.3-7.66.17-23.16-.12-46.32-.18-69.47,0-3.3-.22-6.63.5-9.9,1.16-4.05,3.84-6.33,8.18-6.19,4.54.15,7.32,2.64,8.48,6.92a223.33,223.33,0,0,1,.17,30.28,11.68,11.68,0,0,1-.51,2.33c-1.42,16.73-.39,33.49-.52,50.24a3.38,3.38,0,0,0,1.72,2.69c6.82.94,7.8-4.13,8.59-8.58,1.19-6.73.37-13.61.51-20.42.08-4.18-.19-8.36.21-12.53.46-4.76,2.86-8.07,8-8s7.72,3.42,7.8,8.18c.2,12.53.8,25.06-.36,37.58-1.26,7.44-5.59,13-11.68,17.16-6.9,4.68-10,11.08-10.49,19-.46,7.08-.21,14.15-.22,21.22,0,4.18,2.16,5.94,6.28,6q35.81.12,71.61,0c3.87,0,5.82-1.82,5.86-5.65.08-9.5.38-19-.17-28.51a19.53,19.53,0,0,0-5.75-12.47c-6-6.21-8.29-13.4-7.44-21.83.49-4.82-.44-9.72.61-14.54,1.72-3.63,4.51-5.53,8.61-4.37s5.13,4.5,5.39,8.25c.22,3.17-.22,6.39.9,9.52.94-6.95.46-13.94.74-20.9.13-3.13.48-6.23,3.78-7.91a7.12,7.12,0,0,1,10.53,5.48c.83,5.45.1,11,.44,16.47.11,1.9-1.41,4.25,1.08,5.66.81-14.86.32-29.64.22-44.41a96.22,96.22,0,0,1,.32-12.59c.8-4.14,3.14-6.8,7.59-7,3.64-.15,5.81,1.82,6.62,5.26.9,11.63-.07,23.27.26,34.91.07,2.37-.6,4.85.79,7,4.13-.21,3.33-3.49,3.45-5.76.34-6.08.1-12.19.07-18.3-.14-3.31-.35-6.62.64-9.82.76-2.44,2.26-4.48,5.06-4.61,3.2-.15,4.78,2.08,5.61,4.76,1,3.2.66,6.52.59,9.8.15,3.32-.21,6.64,0,9.95.74,11.1-1.55,20.74-12.6,26.43a7.68,7.68,0,0,0-2.6,3c.05,11.74-4.17,21.79-12,30.58-1.92,2.16-2.28,5.26-2.34,8.18-.16,8.85,0,17.7-.07,26.54-.05,4.74,2.09,6.88,6.9,6.81,34.41-.54,68.93,2,103.19-3.29,9-1.39,18-.65,27-.57,5.43,0,7.65-1.75,7.68-7.27,0-6.47-1.76-11.62-7.27-15.47-8.62-6-12-14.51-11.79-24.73.18-11.72,0-23.44.06-35.16,0-3.52-.22-7.14,2.31-10.13,2.87-2.5,5.81-3.15,8.89-.36,2.38,3,2.19,6.63,2.22,10.15.08,12.16,0,24.31,0,36.46,0,4.22.64,8.23,4.48,11.82,1.58-4,.77-7.57,1.05-11,.56-6.69,4.16-10.93,9.4-10.93s8.85,4.26,9.32,11c.24,3.51-.31,7,.52,11.48,3.89-3.3,4.84-7.11,5-11.26.2-6.63-.1-13.26.17-19.89.16-3.89.73-8,5.86-8.15s7,3.52,7.25,7.88a163.56,163.56,0,0,1-.22,23.84,24.5,24.5,0,0,1-9.57,17.61,50.26,50.26,0,0,0-5.1,4.33c-3.46,3.59-5.3,12.75-3.11,16.83,2.48,4.63,7.16,2.73,10.93,2.84,10.3.32,20.73-.85,30.62,3.32,1.84.78,4,.7,6,.71q24,.12,47.94,0c7,0,7.82-.92,8-7.66.15-7.73,0-15.46,0-23.2,0-4.86-1.4-9.24-4.85-12.71-8.57-8.64-7.79-19.29-6.84-29.93.31-3.52,2.71-5.55,6.44-5.47s5.65,2.36,6.2,5.82c.62,3.94.17,7.94.42,12.36.08-6.81-.22-13.17.13-19.51.32-6,3.28-9.54,7.55-9.12,5.42.52,6.79,4.46,7,9,.28,6.31,0,12.63.14,19.55.34-17.82-.34-35.05.32-52.27.64-3.46,2.28-6.26,6.12-6.59,3.27-.28,5.17,1.89,6.34,4.68,1.66,11.57-.26,23.29,1.18,35.62,2.9-2.9,2.29-5.87,2.37-8.61.18-6-.28-11.94.29-17.89.26-2.79,1.28-5.38,4.65-5.6s4.23,2.46,4.58,4.82c1.46,9.63,4.06,20.35-1.2,28.55-5.81,9-12.25,17.36-13.82,28.25a1,1,0,0,1-.32.58c-13.64,12.45-8.37,28.73-9.11,43.77-.17,3.31,1.48,5.6,5.25,5.42,4.17-.21,3.51-3.22,3.29-5.86-.27-3.32-.57-6.64.42-9.88.67-2.17,1.68-4.34,4.2-4.74s4.4,1.47,5.15,3.51c1.86,5.06,4.62,6.38,9.52,3.53,1.62-.94,4-1.55,5.59.37,1.39,1.71.92,3.77.24,5.71a20.31,20.31,0,0,1-5.15,7.57c6.4.1,12-.16,17.6.1s8.67-2,10.43-7.23c3.37-10.09,3.59-10.14,14.17-10,7,.06,14.23-1.32,20.38,4.38,2.45,2.27,7,1,10.55.83,6.09-.25,11,1.47,14.55,6.6,2.76,4,6.74,5.49,11.62,5.43,9.46-.12,18.92-.14,28.38,0,5,.08,7.54-1.65,7.5-6.88-.11-14.81.17-29.62-.13-44.43-.18-8.79-3-16.73-10.53-22-15-10.58-20.77-25-19.14-42.67-.35-22.77-.1-45.53-.13-68.29a23.88,23.88,0,0,1,.25-4c.88-5.45,4.82-9.05,9.89-9.09s9.18,3.52,10,9c.64,4.38.24,8.82.32,13.24.13,7.06-.45,14.15.87,21.16.32,8.15.74,16.3-1,24.36,0,4.68.16,9.35-.06,14A47.21,47.21,0,0,0,919,501.82a19.14,19.14,0,0,0,6.41,9.87c1.18,1,2.5,2.38,4.11,1.85,2.17-.72,1.58-2.9,1.65-4.57.67-17.77,1.82-35.54-.07-53.32-.3-22.3-.11-44.59-.11-66.88,0-3.78.28-7.55,2.66-10.75,2.57-3.43,6-5.48,10.42-4.69s7,3.73,8.1,7.92a25.45,25.45,0,0,1,.64,6.57c0,33.1.17,66.21-.08,99.29-.32,7.65-.19,15.31-.13,23,0,1.46-.31,3.32,1.45,4.05s2.89-.69,4.07-1.64a20.93,20.93,0,0,0,8.26-17.83c-.07-2.41,0-4.82-.1-7.24-.28-12.13-.11-24.25-.11-36.36a23.76,23.76,0,0,1,.72-6.56c1.56-5.39,5.49-8.27,10.85-8s9,3.56,9.87,9.1c.67,4.37.35,8.8.33,13.2-.05,9.7.23,19.39-.14,29.07,1.36,17.46-5,31.45-19.33,42-7.11,5.23-10.47,12.41-10.42,21.22.09,14.8,0,29.59,0,44.39,0,7.44.61,8,8,8.06,8.32.08,16.64,0,25,0,2.91,0,5.9-.19,8.32,1.92v75.66l-1005.13,0c-8.87,0-8.89,0-8.86-8.63q.09-33.5.22-67C-10.88,595.79-11.67,586.05-14.28,576.32Z"/></svg>