<svg id="Layer_1" data-name="Layer 1" xmlns="http://www.w3.org/2000/svg" xmlns:xlink="http://www.w3.org/1999/xlink" viewBox="0 0 197.5 196.4"><defs><style>.cls-1{fill:none;}.cls-2{fill:#510130;}.cls-3{clip-path:url(#clip-path);}.cls-4{fill:#c9223e;}.cls-5{fill:#fed4a0;}.cls-6{fill:#fff;}.cls-7{fill:#f06922;}.cls-8{fill:#829b79;}.cls-9{fill:#ebd063;}.cls-10{fill:#ee3967;}.cls-11{fill:#ffcd39;}.cls-12{isolation:isolate;}</style><clipPath id="clip-path"><ellipse class="cls-1" cx="98" cy="98.5" rx="98" ry="97.5"/></clipPath></defs><title>innovative</title><ellipse id="SVGID" class="cls-2" cx="98" cy="98.5" rx="98" ry="97.5"/><g class="cls-3"><path class="cls-4" d="M136.2,200.48H84.7c.9-5,2-9.65,2.6-14.33,1-7.86-1.1-9.75-8.9-8.56-7,1.1-9.7-1.09-10.1-8.05-.1-1.7-2-3.49-1.7-5,.7-3.38-3.7-5.47-1.6-9.25,1.7-3.19.5-4.38-3.1-3.78-4.6.69-5.8-.8-4-5,1.4-3.08,3.3-5.87,4.7-9,1.6-3.38,2.9-6.87-.9-9.95a2.91,2.91,0,0,1-.5-2.59c3.8-9.75,6.6-20,13.6-28.25,13.7-16.12,39-20,56.4-8.56,18.3,12,24,34.13,13.7,54.12-3.8,7.37-8.4,14.23-12.6,21.49-8.8,15.33-8.3,21.39,2.8,35A5.83,5.83,0,0,1,136.2,200.48Z"/></g><g class="cls-3"><path class="cls-5" d="M23.7,33.43,78.1,141.28,205.3,83s-6.7-66-69.8-85C67.7-22.19,23.7,33.43,23.7,33.43Z"/></g><g class="cls-3"><path class="cls-5" d="M62.6,129.54C51.4,130.73,42.7,117,50.4,107.65c-6.2-3.08-8.3-8.06-7.4-14.43a54.37,54.37,0,0,1-5.4-2.58A14.7,14.7,0,0,1,31.7,82a1.63,1.63,0,0,0-.8-1,13,13,0,0,1-8.5-7.17c-2.3-4.27-2-8.35.2-12.43,1.8-3.39,6-4.38,9.7-2.69a30.41,30.41,0,0,1,4,2.49c-1.2-3.48-6-7-10.7-5.18-.9.3-1.7,1-2.5,1.3a2,2,0,0,1-1.5.1A12.91,12.91,0,0,1,15.8,40c2.1-4,5-6.87,9.6-7.47A13.68,13.68,0,0,1,40.9,45.87V47c5.8-.3,10.2,2.09,13,7.16s2.4,9.95-1,14.73C57.2,71.73,58.4,76,58.3,81c2.4-2,4.8-3.19,7.9-2.49a8.31,8.31,0,0,1,5,3.58c2.4,3.38,1.7,8-1.7,11,.2,1.3.3,2.49.4,3.69.1.79-.3,1.29-1.1,1.69-5.4,2.39-7,8-3.8,13.13a2,2,0,0,0-.1-.8,8,8,0,0,1,2.8-9c2.8-2.29,6-2,9.1-.7a13.45,13.45,0,0,1,7.5,16.32,1.7,1.7,0,0,0,.5,2,12.91,12.91,0,0,1-1.1,20.2C77.6,144,70,142.87,65.2,137a13.54,13.54,0,0,1-2.5-6.07A6.06,6.06,0,0,0,62.6,129.54Z"/><path class="cls-6" d="M68.3,74.72a5.67,5.67,0,0,1-7.7-2.29,5.59,5.59,0,0,1,2.2-7.76,5.73,5.73,0,0,1,5.5,10Z"/><path class="cls-6" d="M76.7,78.2a3.69,3.69,0,0,1,1.4-5.07,3.85,3.85,0,0,1,5.2,1.59,3.92,3.92,0,0,1-1.4,5.17A4.15,4.15,0,0,1,76.7,78.2Z"/><path class="cls-6" d="M88.3,96.51A3.91,3.91,0,0,1,83.1,95a3.76,3.76,0,0,1,1.5-5.08,3.8,3.8,0,0,1,5.2,1.49A3.88,3.88,0,0,1,88.3,96.51Z"/><path class="cls-6" d="M59.8,55.42a3.73,3.73,0,0,1,1.4-5.18,3.8,3.8,0,0,1,5.1,1.5,3.64,3.64,0,0,1-1.4,5.17A3.71,3.71,0,0,1,59.8,55.42Z"/><path class="cls-6" d="M80.6,57.81A2.46,2.46,0,0,1,84,58.9a2.43,2.43,0,0,1-1,3.38,2.51,2.51,0,0,1-3.4-1.09A2.44,2.44,0,0,1,80.6,57.81Z"/><path class="cls-6" d="M96.5,84.07a2.37,2.37,0,0,1,1-3.38,2.48,2.48,0,0,1,3.4,1,2.6,2.6,0,0,1-1,3.49A2.87,2.87,0,0,1,96.5,84.07Z"/><path class="cls-6" d="M86.3,43.38c-.2.5-.4,1.29-.8,1.49a2,2,0,0,1-1.6-.4,1,1,0,0,1,.4-1.69c.5-.2,1.1.1,1.7.1A2.19,2.19,0,0,1,86.3,43.38Z"/></g><g class="cls-3"><path class="cls-5" d="M184.2,104.86c.2,11.25-14.6,19-23.5,10.75-3.7,6-9,7.76-15.5,6.47a37.62,37.62,0,0,1-3.2,5.17c-2.4,3-5.7,4.48-9.4,5.37-.4.1-1,.4-1.1.7-1.4,3.88-4.2,6.37-8.1,8.06a12.83,12.83,0,0,1-12.7-1c-3.3-2-3.9-6.26-1.9-9.85a29.6,29.6,0,0,1,2.9-3.78c-3.7.9-7.6,5.48-6.3,10.35.3.9.8,1.69,1.1,2.59a1.91,1.91,0,0,1-.1,1.49A13.73,13.73,0,0,1,88,145.86c-3.9-2.29-6.6-5.38-6.9-10.05-.5-8.06,6.7-15,15-14.63a5.28,5.28,0,0,1,1.2.1c.2-5.87,3-10,8.5-12.53s10.5-1.8,15,1.89c3.4-4.18,7.8-5,12.9-4.68-1.8-2.49-2.8-5.07-1.8-8.06a8.79,8.79,0,0,1,4.1-4.78c3.7-2.18,8.3-1.19,11.2,2.39,1.3-.1,2.6-.2,3.8-.2a1.71,1.71,0,0,1,1.7,1.2c2,5.47,7.6,7.46,13.1,4.67H165a8.21,8.21,0,0,1-8.9-3.38c-2.1-3-1.5-6.07.1-9.15a14.2,14.2,0,0,1,17.3-6.47,1.65,1.65,0,0,0,2-.4c6.2-5.87,16.4-4.67,20.7,2.39,3.9,6.37,2.1,13.93-4.4,18.31a14,14,0,0,1-6.5,2.09A3.55,3.55,0,0,1,184.2,104.86Z"/><path class="cls-6" d="M136.8,90.24a5.7,5.7,0,0,1-3,7.56,5.65,5.65,0,1,1-4.7-10.25A5.88,5.88,0,0,1,136.8,90.24Z"/><path class="cls-6" d="M141,82.18a3.78,3.78,0,0,1-5.1-1.79,3.85,3.85,0,0,1,2.1-5.07,3.78,3.78,0,0,1,5.1,1.79A4,4,0,0,1,141,82.18Z"/><path class="cls-6" d="M160.8,71.73a3.92,3.92,0,1,1-5.1-1.79A3.87,3.87,0,0,1,160.8,71.73Z"/><path class="cls-6" d="M116.3,97.6a3.84,3.84,0,0,1-5.2-1.79,3.7,3.7,0,0,1,2-5,3.76,3.76,0,0,1,5.2,1.79A3.9,3.9,0,0,1,116.3,97.6Z"/><path class="cls-6" d="M120.6,77a2.41,2.41,0,0,1,1.4-3.29,2.57,2.57,0,0,1,3.4,1.3A2.68,2.68,0,0,1,124,78.4,2.82,2.82,0,0,1,120.6,77Z"/><path class="cls-6" d="M148.8,62.78a2.49,2.49,0,0,1-3.4-1.19,2.55,2.55,0,0,1,1.3-3.39,2.74,2.74,0,0,1,3.5,1.2A2.68,2.68,0,0,1,148.8,62.78Z"/><path class="cls-6" d="M106.1,70.24c.5.3,1.3.4,1.5.9s-.2,1.19-.6,1.59a1.06,1.06,0,0,1-1.7-.5c-.2-.5.1-1.09.2-1.69A.85.85,0,0,0,106.1,70.24Z"/></g><g class="cls-3"><ellipse class="cls-6" cx="181.49" cy="92.76" rx="21.1" ry="20.99"/><path class="cls-7" d="M192.9,99.09A5.11,5.11,0,0,1,188.7,98a3.36,3.36,0,0,0-2.7-.8,8.14,8.14,0,0,1-8.3-5.57,7.2,7.2,0,0,1,3.6-8.26c4.4-2.58,10.4-.89,12.4,3.49a6.64,6.64,0,0,1-1.1,7.36c-1.7,2.09-1.8,2.59.1,4.48C192.7,98.7,192.7,99,192.9,99.09Zm-3.3-8a1.32,1.32,0,0,0,1.3-1.3,1.26,1.26,0,0,0-1.4-1.19,1.18,1.18,0,0,0-1.2,1.29C188.2,90.64,188.9,91.14,189.6,91.14Zm-7.4-2.59a1.21,1.21,0,0,0-1.2,1.39,1.27,1.27,0,0,0,1.4,1.2,1.18,1.18,0,0,0,1.2-1.3A1.49,1.49,0,0,0,182.2,88.55Zm3.7,2.59a1.32,1.32,0,0,0,1.3-1.3,1.24,1.24,0,0,0-1.2-1.29,1.26,1.26,0,0,0-1.3,1.29A1.18,1.18,0,0,0,185.9,91.14Z"/><path class="cls-7" d="M183.4,99a6.83,6.83,0,0,1-3.8,2.09c-2.4.3-4.8.5-6.9,2a5.56,5.56,0,0,1-2.3.4.35.35,0,0,0-.1-.2c.3-.39.7-.79,1-1.19a2,2,0,0,0-.1-3c-2.1-2.18-2.9-4.67-1.9-7.56s3.5-4.47,6.7-5.17c-.4,1.19-.2,2.39-1.7,3a4.85,4.85,0,0,0-2.8,5.58,5.44,5.44,0,0,0,5.1,4.17,7.57,7.57,0,0,0,3-.49,2.75,2.75,0,0,1,2.5,0A2.49,2.49,0,0,1,183.4,99Z"/><path class="cls-6" d="M189.6,91.14a1.32,1.32,0,0,1-1.3-1.3,1.24,1.24,0,0,1,1.2-1.29,1.32,1.32,0,0,1,1.4,1.19A1.35,1.35,0,0,1,189.6,91.14Z"/><path class="cls-6" d="M182.2,88.55a1.26,1.26,0,0,1,1.3,1.29,1.24,1.24,0,0,1-1.2,1.3,1.3,1.3,0,1,1-.1-2.59Z"/><path class="cls-6" d="M185.9,91.14a1.32,1.32,0,0,1-1.3-1.3,1.4,1.4,0,0,1,1.3-1.29,1.24,1.24,0,0,1,1.2,1.29A1.18,1.18,0,0,1,185.9,91.14Z"/></g><path class="cls-1" d="M171.8,8c-.3-.3-.7-.5-1-.8-.2-.1-.3-.2-.5-.3a1.33,1.33,0,0,1,.5.3C171.1,7.46,171.5,7.66,171.8,8Z"/><path class="cls-1" d="M169.5,6.86c-.2,0-.3.1-.5.1q-2.7.9-5.4,2.09L169,7A.9.9,0,0,0,169.5,6.86Z"/><path class="cls-1" d="M141.7,48.35c.1.1.2.1.3.2s.2.2.2.3c-.1-.1-.1-.2-.2-.3S141.8,48.35,141.7,48.35Z"/><path class="cls-1" d="M134,53.83c.2-.3.5-.5.7-.8.8-.8,1.5-1.59,2.3-2.29L134.7,53C134.5,53.33,134.3,53.73,134,53.83Z"/><path class="cls-1" d="M134,53.83a5,5,0,0,1-.7.69A1.2,1.2,0,0,0,134,53.83Z"/><path class="cls-1" d="M142,51.14a2.09,2.09,0,0,0,.4-.6,6.13,6.13,0,0,1-.4.6c-.3.4-.7.7-1,1.09A5.67,5.67,0,0,1,142,51.14Z"/><path class="cls-1" d="M183.3,19.5a.76.76,0,0,1,.2.4A.76.76,0,0,0,183.3,19.5Z"/><path class="cls-1" d="M183.2,19.4c0-.1-.1-.1-.2-.2-1-1.29-2-2.49-3.1-3.68,1.1,1.19,2.1,2.39,3.1,3.68C183.1,19.3,183.2,19.3,183.2,19.4Z"/><path class="cls-1" d="M140.4,21.09c1.2-.79,2.3-1.49,3.5-2.19C142.7,19.6,141.5,20.4,140.4,21.09Z"/><path class="cls-1" d="M154.6,67.16l-5.4,4.47Q152.05,69.4,154.6,67.16Z"/><path class="cls-1" d="M132.2,27.26c.7-.6,1.5-1.19,2.2-1.79A15.76,15.76,0,0,0,132.2,27.26Z"/><path class="cls-1" d="M135.3,24.77c1.3-1,2.7-2,4-2.88C138,22.78,136.6,23.78,135.3,24.77Z"/><path class="cls-1" d="M172.5,45.37c-.6,1-1.3,2.09-1.9,3.08C171.2,47.36,171.9,46.36,172.5,45.37Z"/><path class="cls-1" d="M170.6,48.35l-3,4.48Z"/><path class="cls-1" d="M165.4,55.82l-2.7,3.28C163.6,57.9,164.5,56.81,165.4,55.82Z"/><path class="cls-1" d="M167.5,52.83a31.4,31.4,0,0,1-2.2,2.89A31.4,31.4,0,0,0,167.5,52.83Z"/><path class="cls-1" d="M185.1,3.58a25.92,25.92,0,0,0-4.8.4c-1.9.3-3.7.8-5.5,1.19,3.6,3.59,7.1,7.07,10.7,10.55a33.43,33.43,0,0,0,.8-3.38c.3-2.29.7-4.48.8-6.77C187.1,4,186.6,3.58,185.1,3.58Z"/><path class="cls-1" d="M138.2,54.82c-.8.8-1.6,1.59-2.4,2.29,1.1,1.19,2.3,2.39,3.4,3.68-1.1-1.19-2.3-2.39-3.4-3.68C136.6,56.31,137.4,55.62,138.2,54.82Z"/><path class="cls-6" d="M190.7,5.57C190.6,1.89,188.8.2,185.2,0h-.5a39.74,39.74,0,0,0-10.2,1.49,121.65,121.65,0,0,0-27.1,11.25c-8.6,4.77-16.7,10.14-23.6,17.31a1.88,1.88,0,0,1-2,.59,26.54,26.54,0,0,0-8.8-.2,18.89,18.89,0,0,0-8.8,4.08c-3.8,3.09-7.6,6.37-11.1,9.75A44.43,44.43,0,0,0,83,57.71c-.9,1.79-.2,3,1.8,3.18l15.3,1.19,3.4.3c-.4,2.29-.7,4.38-1,6.37a2.73,2.73,0,0,0,1,2.79l5.7,5.67c.2.2.4.49.7.79-1.1,1.1-2.2,2-3.2,3.09a1.81,1.81,0,0,0-.4,2.19,1.69,1.69,0,0,0,1.9.89,3.13,3.13,0,0,0,1.4-.89c1-.9,1.8-1.8,2.8-2.79,2.1,2.09,4.2,4.08,6.1,6.17a3.37,3.37,0,0,0,3.5,1.09c1.9-.4,3.9-.69,5.9-1a4.55,4.55,0,0,1,.1.49l.6,7.77c.3,3.58.6,7.06.9,10.64.2,1.59,1.3,2.29,2.8,1.59a54.35,54.35,0,0,0,5.8-3.28c6.4-4.48,11.5-10.15,16.5-16s6.8-12.34,5.2-19.8a1.64,1.64,0,0,1,.5-1.29c2.6-3,5.6-5.77,8-9A124.4,124.4,0,0,0,189,16.42,35.74,35.74,0,0,0,190.7,5.57ZM104.1,58.8c-5.2-.5-10.4-.9-15.7-1.29a4.25,4.25,0,0,1-1.1-.2c-.1-.1-.1-.2-.2-.3,1.8-2.39,3.5-5,5.5-7.16a90.87,90.87,0,0,1,12.9-11.94,17.8,17.8,0,0,1,8.7-4,16.93,16.93,0,0,1,5.5.1c-2.2,3-4.5,5.77-6.6,8.75a64.81,64.81,0,0,0-8.2,15.32C104.9,58.7,104.8,58.9,104.1,58.8Zm22.4,2.39c-4.2-3.88-8.6-7.86-13-11.94.9-1.49,2-3.09,3.2-5,4.7,4.38,9.4,8.66,13.9,12.84C129.1,58.6,127.8,59.79,126.5,61.19Zm6.8-1.4c4.3,4.68,8.6,9.26,13,13.93-1.9,1.2-3.5,2.29-5,3.19-4.1-4.38-8-8.66-12-12.94C130.6,62.68,131.8,61.29,133.3,59.79Zm-21,15.53c-2-2-4-4-6-6.07a.94.94,0,0,1-.1-.9,45.16,45.16,0,0,1,5.5-15.92C115.9,56.31,120,60,124,63.58,119.9,67.65,116.2,71.54,112.3,75.32Zm15.9,7.46c-2.1.59-4.3,1-6.4,1.39a1,1,0,0,1-1-.4l-5.7-5.67c3.8-3.78,7.7-7.56,11.7-11.64,3.6,4,7.4,8,11.2,12.14A44.25,44.25,0,0,1,128.2,82.78Zm28.3-6.57c-.5,3.68-2.5,6.67-4.7,9.45a93.56,93.56,0,0,1-13.6,13.83c-1.6,1.3-3.3,2.29-5.2,3.58-.3-4-.7-7.76-1-11.44-.2-1.79-.3-3.68-.4-5.47a.89.89,0,0,1,.5-.8A81,81,0,0,0,156,70.64c.1-.1.2-.1.4-.2A16.06,16.06,0,0,1,156.5,76.21ZM183.5,22c-.8,2.29-1.7,4.47-2.6,6.76a20.33,20.33,0,0,1-1,2.19c-.6,1.49-1.3,2.89-2,4.38-1.4,2.89-2.9,5.67-4.5,8.46-.3.49-.6,1-.9,1.59-.6,1-1.3,2.09-1.9,3.08l-3,4.48a32.82,32.82,0,0,1-2.2,2.89l-2.7,3.28c-.3.4-.6.69-.9,1.09-.6.7-1.3,1.4-1.9,2.09l-3,3c-.7.69-1.4,1.29-2.1,1.89l-5.4,4.47c-1.7-1.79-3.3-3.58-5-5.37s-3.3-3.58-5-5.37c-1.1-1.19-2.3-2.39-3.4-3.68.8-.8,1.6-1.49,2.4-2.29l1.2-1.19,1.2-1.2a1.38,1.38,0,0,1,.4-.3,5.19,5.19,0,0,0,1-1.09,2.09,2.09,0,0,0,.4-.6c0-.1.1-.2.1-.3v-.69a.86.86,0,0,0-.3-.6c-.1-.1-.1-.2-.2-.3s-.2-.2-.3-.2-.2-.1-.3-.2a.9.9,0,0,0-.5-.1h-.3a1.56,1.56,0,0,0-1.2.6c-.8.8-1.6,1.49-2.3,2.29L135,53.33a5.44,5.44,0,0,0-.7.79,4.62,4.62,0,0,1-.7.7L130,51.54c-.7-.6-1.3-1.2-2-1.89-1.7-1.6-3.4-3.19-5.2-4.78-.7-.7-1.4-1.29-2.1-2-.6-.5-1.2-1.09-1.7-1.59,2.6-2.89,5.2-5.87,7.9-8.76l1.2-1.19a54.51,54.51,0,0,1,4.4-4c.7-.6,1.5-1.19,2.2-1.79a2.7,2.7,0,0,0,.8-.7c1.3-1,2.7-2,4-2.88.3-.2.7-.5,1-.7,1.2-.79,2.3-1.49,3.5-2.19.9-.49,1.8-1.09,2.7-1.59.5-.3.9-.5,1.4-.8.8-.49,1.7-.89,2.5-1.39,4.3-2.29,8.6-4.28,13.1-6.17l5.4-2.09a.9.9,0,0,1,.5-.1h.2a.75.75,0,0,1,.5.1,1.33,1.33,0,0,1,.5.3c.3.3.7.5,1,.8s.7.5,1,.79a10.63,10.63,0,0,1,1.1.9,6.47,6.47,0,0,1,.9.8c.4.29.7.69,1.1,1,.7.7,1.5,1.39,2.2,2.09h0c.6.6,1.3,1.29,1.9,2,1.1,1.19,2.1,2.39,3.1,3.68.1.1.1.2.2.2a.1.1,0,0,0,.1.1.76.76,0,0,1,.2.4c0,.1.1.2.1.3s.1.19.1.29A3.92,3.92,0,0,1,183.5,22Zm3.6-16.42c-.1,2.29-.5,4.48-.8,6.77a33.43,33.43,0,0,1-.8,3.38c-3.6-3.58-7.1-7.06-10.7-10.55,1.8-.39,3.6-.89,5.5-1.19a25.92,25.92,0,0,1,4.8-.4C186.6,3.58,187.1,4,187.1,5.57Z"/><path class="cls-7" d="M103,89.74a11.21,11.21,0,0,0,1.1-1.49,2,2,0,0,0-1.3-2c-1-.3-1.6.2-2.3.8L75,112.43a4.24,4.24,0,0,0-.6.69,1.64,1.64,0,0,0,.1,2.09,1.45,1.45,0,0,0,1.9.5,4.12,4.12,0,0,0,1.3-1l12.9-12.83C94.9,98,99,93.92,103,89.74Z"/><path class="cls-7" d="M105.8,96.51c-.5-.5-.8-1.2-1.3-1.49-.8-.5-1.6,0-2.3.59-4.7,4.78-9.5,9.45-14.2,14.23a1.86,1.86,0,0,0-.2,2.79,1.88,1.88,0,0,0,2.8-.2L105,98.1C105.3,97.6,105.4,97.1,105.8,96.51Z"/><path class="cls-7" d="M80.4,102.18,94.8,87.85a3.88,3.88,0,0,0,.8-1.39,1.86,1.86,0,0,0-1.2-1.69,2,2,0,0,0-2.3.59c-4.7,4.78-9.5,9.46-14.2,14.23a1.94,1.94,0,0,0-.2,2.79A1.85,1.85,0,0,0,80.4,102.18Z"/><path class="cls-7" d="M116,91.73l-14.5,14.43a5.67,5.67,0,0,0-.8,1.39,8.33,8.33,0,0,0,1.2,1.49c.8.6,1.5.4,2.5-.59l7.8-7.76c2.2-2.19,4.3-4.28,6.4-6.47a1.82,1.82,0,0,0,.2-2.69A2.3,2.3,0,0,0,116,91.73Z"/><path class="cls-7" d="M82.5,89.24a2.82,2.82,0,0,0,1.8-.89c4.7-4.58,9.3-9.25,14-13.83.2-.2.4-.3.4-.5a3.69,3.69,0,0,0,.1-1.79c-.2-.5-.9-.79-1.5-1.29A8.35,8.35,0,0,0,95.6,72c-4.7,4.58-9.3,9.26-14,13.93a4.35,4.35,0,0,0-.6.7A1.67,1.67,0,0,0,82.5,89.24Z"/><path class="cls-2" d="M156.1,70.74c-7.2,6.07-15,11.34-23.9,14.72a1.37,1.37,0,0,0-.5.8c.1,1.79.3,3.68.4,5.47.3,3.68.6,7.46,1,11.44,1.9-1.29,3.6-2.38,5.2-3.58a89,89,0,0,0,13.6-13.83c2.3-2.78,4.2-5.77,4.7-9.45a16.58,16.58,0,0,0-.1-5.87C156.2,70.64,156.1,70.64,156.1,70.74Z"/><path class="cls-2" d="M119.9,34a16.87,16.87,0,0,0-5.5-.1,17.8,17.8,0,0,0-8.7,4A91.31,91.31,0,0,0,92.8,49.85c-2,2.18-3.7,4.77-5.5,7.16.1.1.1.2.2.3.4.1.7.1,1.1.2,5.2.39,10.4.79,15.7,1.29.6.1.8-.2,1-.7a68.66,68.66,0,0,1,8.2-15.32C115.4,39.9,117.7,37,119.9,34Z"/><path class="cls-2" d="M111.6,52.43a49.53,49.53,0,0,0-5.5,15.92,2.48,2.48,0,0,0,.1.9c2,2,4,4,6,6.07,3.9-3.88,7.7-7.76,11.6-11.74C119.9,60.09,115.8,56.31,111.6,52.43Z"/><path class="cls-2" d="M126.8,66.56,115.1,78.2c1.8,1.79,3.7,3.78,5.7,5.67a1.78,1.78,0,0,0,1,.4c2.1-.4,4.3-.8,6.4-1.39A51.62,51.62,0,0,0,138,78.8C134.2,74.62,130.5,70.54,126.8,66.56Z"/><path class="cls-2" d="M113.5,49.25c4.5,4.08,8.8,8.06,13,11.94l4.1-4.08c-4.6-4.18-9.2-8.46-13.9-12.84C115.5,46.16,114.4,47.86,113.5,49.25Z"/><path class="cls-2" d="M146.3,73.72c-4.4-4.67-8.7-9.25-13-13.93-1.4,1.5-2.7,2.79-3.9,4.18,3.9,4.28,7.9,8.56,12,12.94C142.8,76,144.4,74.82,146.3,73.72Z"/><path class="cls-8" d="M183.6,20.1c0-.1-.1-.2-.1-.3s-.1-.3-.2-.4a.1.1,0,0,0-.1-.1c0-.1-.1-.1-.2-.2-1-1.29-2-2.48-3.1-3.68-.6-.7-1.2-1.29-1.9-2h0c-.7-.7-1.4-1.39-2.2-2.09-.4-.3-.7-.69-1.1-1s-.6-.5-.9-.8-.7-.6-1.1-.89-.7-.5-1-.8-.7-.5-1-.8c-.2-.1-.3-.2-.5-.29a1.09,1.09,0,0,0-.5-.1h-.2c-.2,0-.3.1-.5.1-1.8.59-3.6,1.29-5.4,2.08A124.45,124.45,0,0,0,150.5,15c-.9.5-1.7.9-2.5,1.4-.5.29-.9.49-1.4.79-.9.5-1.8,1.1-2.7,1.59-1.2.7-2.3,1.5-3.5,2.19-.3.2-.7.5-1,.7-1.4.89-2.7,1.89-4,2.88a2.7,2.7,0,0,0-.8.7c-.8.6-1.5,1.2-2.2,1.79-1.5,1.3-3,2.59-4.4,4l-1.2,1.2c-2.8,2.88-5.3,5.87-7.9,8.75.6.5,1.2,1.1,1.7,1.59.7.7,1.4,1.3,2.1,2,1.7,1.59,3.5,3.19,5.2,4.78.7.6,1.3,1.19,2,1.89l3.6,3.28a4.17,4.17,0,0,1,.7-.69c.2-.3.5-.5.7-.8.8-.8,1.5-1.59,2.3-2.29s1.6-1.49,2.3-2.29a2.25,2.25,0,0,1,1.2-.59h.3c.2,0,.3.1.5.1s.2.09.3.19.2.1.3.2.2.2.2.3l.3.6V50c0,.09-.1.19-.1.29a2.09,2.09,0,0,1-.4.6c-.3.4-.7.7-1,1.09a1.38,1.38,0,0,1-.4.3l-1.2,1.2-1.2,1.19c-.8.8-1.6,1.59-2.4,2.29,1.1,1.19,2.3,2.39,3.4,3.68,1.7,1.79,3.4,3.58,5,5.37s3.3,3.59,5,5.38c1.8-1.4,3.7-2.89,5.4-4.48.7-.6,1.4-1.29,2.1-1.89l3-3c.7-.69,1.3-1.39,1.9-2.09.3-.39.6-.69.9-1.09l2.7-3.28c.7-1,1.5-1.89,2.2-2.89q1.65-2.24,3-4.48a31.75,31.75,0,0,0,1.9-3.08c.3-.5.6-1,.9-1.59,1.6-2.79,3.1-5.57,4.5-8.46.7-1.39,1.4-2.88,2-4.38a22.27,22.27,0,0,1,1-2.19c.9-2.18,1.8-4.47,2.6-6.76a2.94,2.94,0,0,0,.2-1.59C183.7,20.4,183.6,20.3,183.6,20.1ZM168.3,45.77a17,17,0,0,1-22.7.39,16.83,16.83,0,0,1-2.8-22.48c4.7-6.67,14.1-9.25,20.7-5.57-1.1,2.09-2,2.58-4.3,2.09a13.74,13.74,0,0,0-15.8,10.05,13.52,13.52,0,0,0,9.7,16.21c7,1.79,14.5-2.29,16.3-9.25a18.79,18.79,0,0,0,.3-6.27c-.3-2.58-.3-2.88,2-4.47C174.7,30.54,174.7,39.8,168.3,45.77Zm5.6-27a15.87,15.87,0,0,1-6.1,4.48,4.44,4.44,0,0,0-1.1.8c-.8.69-1.5,1.49-2.2,2.19a10.6,10.6,0,0,1,2.9,7.36,10.77,10.77,0,0,1-10.7,10.74,10.89,10.89,0,0,1-10.9-10.84,10.69,10.69,0,0,1,10.7-10.65,10.24,10.24,0,0,1,6.6,2.29,11.84,11.84,0,0,1,1.2-1.09,13,13,0,0,0,2.8-3.78,12.41,12.41,0,0,1,2.1-3c1-1.09,2.1-2.19,3.2-3.28h.3c0,1.79.8,2.78,3,2.78A17,17,0,0,0,173.9,18.8Z"/><path class="cls-9" d="M178.1,13.53c.6.6,1.3,1.29,1.9,2A12,12,0,0,0,178.1,13.53Z"/><path class="cls-9" d="M183.2,19.4h0C183.3,19.5,183.2,19.5,183.2,19.4Z"/><path class="cls-9" d="M156.7,65.17c-.7.69-1.4,1.29-2.1,1.89C155.3,66.36,156.1,65.76,156.7,65.17Z"/><path class="cls-9" d="M134.5,25.37a2.7,2.7,0,0,0,.8-.7C135,25,134.7,25.07,134.5,25.37Z"/><path class="cls-9" d="M127.9,31.24a54.51,54.51,0,0,1,4.4-4A41.59,41.59,0,0,0,127.9,31.24Z"/><path class="cls-9" d="M149.2,71.54c-1.7-1.8-3.3-3.59-5-5.38C145.9,67.85,147.6,69.74,149.2,71.54Z"/><path class="cls-9" d="M144.2,66.16c-1.7-1.79-3.3-3.58-5-5.37C140.9,62.58,142.6,64.27,144.2,66.16Z"/><path class="cls-9" d="M179.9,30.94c-.6,1.49-1.3,2.89-2,4.38C178.6,33.93,179.2,32.43,179.9,30.94Z"/><path class="cls-9" d="M126.7,32.43c-2.8,2.89-5.3,5.87-7.9,8.76.6.5,1.2,1.09,1.7,1.59-.6-.5-1.2-1.09-1.7-1.59C121.3,38.4,123.9,35.32,126.7,32.43Z"/><path class="cls-9" d="M139.4,48.45c-.8.8-1.6,1.5-2.3,2.29a12.44,12.44,0,0,0,2.3-2.29,2.25,2.25,0,0,1,1.2-.59A6.65,6.65,0,0,0,139.4,48.45Z"/><path class="cls-9" d="M141,52.13a1.38,1.38,0,0,1-.4.3l-1.2,1.2,1.2-1.2A1.38,1.38,0,0,1,141,52.13Z"/><path class="cls-9" d="M183.5,22c-.8,2.29-1.7,4.47-2.6,6.76C181.8,26.46,182.7,24.28,183.5,22Z"/><path class="cls-9" d="M172.8,8.66a9.44,9.44,0,0,1,1.1.89A7.8,7.8,0,0,1,172.8,8.66Z"/><path class="cls-9" d="M176,11.44c-.4-.3-.7-.69-1.1-1s-.6-.5-.9-.8a6.47,6.47,0,0,1,.9.8A8.85,8.85,0,0,1,176,11.44Z"/><path class="cls-7" d="M169.9,30.94a18.79,18.79,0,0,1-.3,6.27c-1.8,7-9.3,11-16.3,9.25a13.48,13.48,0,0,1,6.1-26.26c2.3.49,3.2,0,4.3-2.09-6.6-3.58-16-1.1-20.7,5.57a16.83,16.83,0,0,0,2.8,22.48,17.15,17.15,0,0,0,22.7-.39c6.5-6,6.4-15.13,3.7-19.3C169.6,28,169.7,28.36,169.9,30.94Z"/><path class="cls-6" d="M161.9,27.86c0-.4-.1-1,.1-1.3a9,9,0,0,1,1.3-1.39,10.83,10.83,0,0,0-6.6-2.29A10.63,10.63,0,0,0,146,33.53a10.8,10.8,0,0,0,21.6.1,10.6,10.6,0,0,0-2.9-7.36l-1.4,1.39A3.64,3.64,0,0,1,161.9,27.86Zm.6,5-1.2.5a4.18,4.18,0,0,0-1.1-2.09,1.71,1.71,0,0,0-2.5-.3c-.7.7-.6,1.49,0,3.09.7,1.89.7,3.28-.5,4.37a3.2,3.2,0,0,1-4.3,0l-1.4,1.3-.8-.9,1.4-1.29a6.63,6.63,0,0,1-1.4-2.59l1.2-.5a4.3,4.3,0,0,0,1.3,2.49,1.91,1.91,0,0,0,2.8.4c.7-.7.7-1.69.2-3-.8-1.89-.9-3.28.2-4.37a3,3,0,0,1,4.1,0l1.4-1.3.8.8-1.3,1.19A7.56,7.56,0,0,1,162.5,32.83Z"/><path class="cls-10" d="M161.8,28.45l-1.4,1.3a3.06,3.06,0,0,0-4.1,0c-1.2,1.09-1,2.49-.2,4.38.5,1.39.6,2.28-.2,3a1.9,1.9,0,0,1-2.8-.4,6,6,0,0,1-1.3-2.48l-1.2.49a4.78,4.78,0,0,0,1.4,2.59l-1.4,1.29.8.9,1.4-1.3a3.2,3.2,0,0,0,4.3,0c1.2-1.09,1.2-2.48.5-4.37-.6-1.59-.7-2.49,0-3.09a1.72,1.72,0,0,1,2.5.3,4.6,4.6,0,0,1,1.1,2.09l1.2-.5a4.05,4.05,0,0,0-1.2-2.19l1.3-1.19Z"/><path class="cls-7" d="M172.8,14h-.3c-1.1,1.09-2.2,2.09-3.2,3.28a12.41,12.41,0,0,0-2.1,3,11.75,11.75,0,0,1-2.8,3.78c-.4.4-.8.69-1.2,1.09a6.28,6.28,0,0,1,1.2,1.1c.8-.7,1.5-1.5,2.2-2.19a4.44,4.44,0,0,1,1.1-.8,17,17,0,0,0,6.1-4.48c.5-.59,1.1-1.09,1.9-2C173.7,16.91,172.8,15.92,172.8,14Z"/><path class="cls-11" d="M161.9,26.46c-.2.3-.1.9-.1,1.3.4-.1.9,0,1.2-.2.5-.4.9-.9,1.4-1.39a12,12,0,0,0-1.2-1.1C162.8,25.57,162.3,26,161.9,26.46Z"/><ellipse class="cls-6" cx="37.4" cy="98.5" rx="14.5" ry="14.43"/><path class="cls-7" d="M41.7,106.06c-2.2,0-3.3-1-3.6-3.18a5.47,5.47,0,0,0-.9-1.9c-.7-1.19-1.6-2.38-2.2-3.58a6.81,6.81,0,0,1,.4-6.76,5.9,5.9,0,0,1,6.5-2.29,6,6,0,0,1,4.2,5.27c0,.6-.2,1-.8,1.1s-.9-.2-1.1-.8c-.1-.3-.1-.6-.2-.89a3.71,3.71,0,0,0-4-3,4,4,0,0,0-3.8,3.28,6.91,6.91,0,0,0,1.3,5.18c.4.59.8,1.09,1.2,1.69a4.87,4.87,0,0,1,1.1,2.88c0,.9.5,1.2,1.7,1.2.9,0,1.1-.2,1.2-1.2,0-.29-.1-.59.1-.79s.6-.7.9-.7a1.27,1.27,0,0,1,.9.7C45.3,104.47,44,106.06,41.7,106.06Z"/><path class="cls-7" d="M42.9,96c-.8-.1-1.2.1-1.4.7a1.42,1.42,0,0,0,.6,1.69,9.09,9.09,0,0,1,1.3.69c.2.2.2.6.4.8a2,2,0,0,1-.8-.1,4.67,4.67,0,0,1-1-.5,2.39,2.39,0,0,1-1.4-2.48,2,2,0,0,1,2-1.79c.1,0,.3-.1.4-.1a2,2,0,0,0-2.1-1.8A2.07,2.07,0,0,0,39,95.21a13.07,13.07,0,0,0,.9,2.59c.1.4.8.8.3,1.1s-.8-.3-1-.7A6.12,6.12,0,0,1,38.1,95a3,3,0,0,1,3.1-2.79,2.83,2.83,0,0,1,2.7,3.08,4.87,4.87,0,0,1-1,1.89c-.1.1-.4,0-.6,0a1.23,1.23,0,0,1,.1-.59C42.5,96.51,42.7,96.21,42.9,96Z"/><path class="cls-7" d="M34.5,101.58a6.59,6.59,0,0,1-1.9,4.48c-.4.4-.8.79-1.3.3s-.2-.9.1-1.3a5.77,5.77,0,0,0,0-7.76c-.4-.39-.6-.89-.1-1.29s.9-.1,1.3.3A7.54,7.54,0,0,1,34.5,101.58Z"/><path class="cls-7" d="M31.5,101.08A4.53,4.53,0,0,1,30.4,104c-.3.3-.7.6-1,.2a1,1,0,0,1,.1-.9,3.43,3.43,0,0,0,0-4.28c-.2-.19-.1-.59-.1-1,.3.1.7,0,.9.2A4.13,4.13,0,0,1,31.5,101.08Z"/><path class="cls-7" d="M29.3,101.08c-.3.6-.5,1.1-.7,1.6-.1.1-.4.1-.6.2,0-.2-.1-.5,0-.6A1.94,1.94,0,0,0,28,100c-.1-.1,0-.4,0-.6.2,0,.5,0,.6.2A9.55,9.55,0,0,0,29.3,101.08Z"/><ellipse class="cls-6" cx="74.2" cy="28.45" rx="21.1" ry="20.99"/><g class="cls-12"><path class="cls-7" d="M88.1,31.84c-1.6.69-3.2,1.29-4.8,2-2.2-5.38-4.5-10.75-6.7-16.12,1.6-.7,3.2-1.29,4.8-2C83.6,21,85.8,26.37,88.1,31.84Z"/><path class="cls-7" d="M81.2,34.52c-1.6.7-3.2,1.3-4.8,2-1.6-3.78-3.1-7.56-4.7-11.34,1.6-.69,3.2-1.29,4.8-2C78.1,27,79.6,30.84,81.2,34.52Z"/><path class="cls-7" d="M68.1,41.79c.1,0,.2-.1.3-.1,6.7-2.79,13.4-5.47,20.1-8.26.1,0,.2-.1.3-.1.3-.1.5,0,.7.3a.6.6,0,0,1-.2.69.37.37,0,0,1-.3.1c-6.9,2.79-13.8,5.68-20.6,8.46-.1,0-.2.1-.3.1a.45.45,0,0,1-.6-.3c-.1-.2-.1-.3-.2-.5L58.9,21.89c0-.1-.1-.2-.1-.3a.42.42,0,0,1,.3-.6c.3-.1.5,0,.7.3,0,.1.1.2.1.3,2.8,6.67,5.5,13.33,8.3,20C68,41.49,68,41.69,68.1,41.79Z"/><path class="cls-7" d="M69.6,39.4c-1-2.29-1.9-4.68-2.9-7,1.6-.69,3.2-1.29,4.8-2,1,2.29,1.9,4.68,2.9,7C72.8,38,71.2,38.8,69.6,39.4Z"/><path class="cls-7" d="M71.5,17.81c0,.1-.1.2-.1.3-1.6,3.78-3.2,7.66-4.7,11.44a1,1,0,0,1-.4.5.56.56,0,0,1-.7-.6c0-.1.1-.2.1-.3,1.6-3.88,3.2-7.66,4.8-11.54,0-.1.1-.1.1-.3-.1,0-.2.1-.3.1-.6.3-1.2.5-1.8.8a.53.53,0,0,1-.8-.3.48.48,0,0,1,.2-.6.31.31,0,0,1,.2-.1c1-.4,2.1-.89,3.1-1.29a1.09,1.09,0,0,1,.5-.1.45.45,0,0,1,.3.3c.5,1.09.9,2.19,1.4,3.28a.54.54,0,1,1-1,.4c-.3-.6-.5-1.29-.8-1.89l-.1-.1Z"/></g><path class="cls-2" d="M174.3,5s10.8-3,12.6-1.29-1.3,12.74-1.3,12.74Z"/></svg>