<svg id="Layer_1" data-name="Layer 1" xmlns="http://www.w3.org/2000/svg" xmlns:xlink="http://www.w3.org/1999/xlink" viewBox="0 0 191.8 192"><defs><style>.cls-1,.cls-10,.cls-11,.cls-9{fill:none;}.cls-2{fill:#510130;}.cls-3{clip-path:url(#clip-path);}.cls-4{fill:#c9223e;}.cls-5{fill:#fed4a0;}.cls-6{fill:#fed60a;}.cls-7{fill:#829b79;}.cls-8{fill:#f06922;}.cls-10,.cls-11,.cls-14,.cls-9{stroke:#fff;stroke-miterlimit:10;}.cls-9{stroke-width:0.59px;}.cls-10{stroke-width:0.71px;}.cls-11{stroke-width:0.57px;}.cls-12{fill:#3b5874;}.cls-13{fill:#fff;}.cls-14{fill:#f2c900;stroke-width:3px;}</style><clipPath id="clip-path"><circle class="cls-1" cx="95.9" cy="95.9" r="95.9"/></clipPath></defs><title>insightful</title><circle id="SVGID" class="cls-2" cx="95.9" cy="95.9" r="95.9"/><g class="cls-3"><g id="_Group_" data-name="&lt;Group&gt;"><g id="_Group_2" data-name="&lt;Group&gt;"><polygon id="_Path_" data-name="&lt;Path&gt;" class="cls-4" points="155.4 82.2 174.4 66.1 184.5 74.2 202.7 59.1 202.7 102.3 153.4 102.3 155.4 82.2"/><polygon id="_Path_2" data-name="&lt;Path&gt;" class="cls-5" points="174.4 66.1 181.3 76.8 184.5 74.2 174.4 66.1"/></g><g id="_Group_3" data-name="&lt;Group&gt;"><polygon id="_Path_3" data-name="&lt;Path&gt;" class="cls-4" points="26.9 52.1 86.3 106.6 -3.1 106.6 -3.1 80 26.9 52.1"/><polygon id="_Path_4" data-name="&lt;Path&gt;" class="cls-5" points="26.9 52.1 32.3 66.1 28.2 66.1 38.7 77.6 48.4 71.8 26.9 52.1"/></g><g id="_Group_4" data-name="&lt;Group&gt;"><path id="_Path_5" data-name="&lt;Path&gt;" class="cls-4" d="M-3.1,96.3S14.5,94,57.4,66.1h7.7L67.7,62l36.5-20.5L202.7,94v39.9H-3.1V96.3Z"/><g id="_Group_5" data-name="&lt;Group&gt;"><polygon id="_Path_6" data-name="&lt;Path&gt;" class="cls-5" points="104.2 41.6 132.8 68.4 111.4 64.4 153.1 92.2 202.7 94.1 104.2 41.6"/></g><polygon id="_Path_7" data-name="&lt;Path&gt;" class="cls-6" points="65.1 66.1 55.5 76.8 61.5 66.1 65.1 66.1"/></g></g><path id="_Compound_Path_" data-name="&lt;Compound Path&gt;" class="cls-4" d="M-3.1,106.4v58H202.7V111.3h-49l-13.2-3.6v-.2a2.1,2.1,0,0,0-.4-1.1,9.65,9.65,0,0,1-1.2-2.5c-.1-.5-.2-.9-.3-1.4,0-.1-.1-.6-.1-.8.1-.4.5.5.6.7s.4.4.5.2a.76.76,0,0,0,.2-.5,1.27,1.27,0,0,0-.1-.6,2.09,2.09,0,0,0-.4-.6,4.73,4.73,0,0,1-.7-1.2,3.89,3.89,0,0,1-.2-1.5v-.1c0-.1.1,0,.1,0,.2.1.2.4.3.6.1.4.3.7.6.7a.56.56,0,0,0,.5-.6.75.75,0,0,0-.1-.5c-.3-.8-.8-1.4-1.1-2.1a6.61,6.61,0,0,1-.5-1.5c0-.2-.1-.6,0-.7s.1-.1.2,0l.1.1c.3.4.6.9,1,.7l.1-.1v-.1a2.45,2.45,0,0,0-.4-1.2,8.17,8.17,0,0,1-.6-2.7c-.2-1.1-.4-2.1-.5-3.2a.76.76,0,0,0-.2-.5c-.4-.4-.4,1-.4,1.3-.1.6-.1,1.3-.2,1.9a10.79,10.79,0,0,1-1.1,3.6c-.2.5-.4,1.3,0,1.5s1-1.6,1.4-1a7.49,7.49,0,0,1-.5,1.6c-.2.5-.4.9-.6,1.4a3.26,3.26,0,0,0-.4,1.4c0,.2,0,.3.1.4s.1.1.2.1a.67.67,0,0,0,.7-.4c.1-.1.1-.3.2-.4s.2-.2.3-.1c.5.2-.2,1.9-.3,2.1s-.3.5-.4.7a8.79,8.79,0,0,0-.6,1,2.66,2.66,0,0,0-.3,1.2.78.78,0,0,0,.3.7c.1.1.3,0,.4-.1s.2-.3.3-.4a4.88,4.88,0,0,0,.3-.7c.1-.1.2-.5.4-.2,0,.1-.1.5-.1.7a5,5,0,0,1-.5,1.3,7.56,7.56,0,0,0-1.1,2.2l-.6-.2H108.5l-6.4,4.9H96.3c0-.1.1-.2.1-.3a2.1,2.1,0,0,0-.4-1.1,9.65,9.65,0,0,1-1.2-2.5c-.1-.5-.2-.9-.3-1.4,0-.1-.1-.6-.1-.8.1-.4.5.5.6.7s.4.4.5.2a.76.76,0,0,0,.2-.5,1.27,1.27,0,0,0-.1-.6,2.09,2.09,0,0,0-.4-.6,4.73,4.73,0,0,1-.7-1.2,3.89,3.89,0,0,1-.2-1.5v-.1c0-.1.1,0,.1,0,.2.1.2.4.3.6.1.4.3.7.6.7a.56.56,0,0,0,.5-.6.75.75,0,0,0-.1-.5c-.3-.8-.8-1.4-1.1-2.1a6.61,6.61,0,0,1-.5-1.5c0-.2-.1-.6,0-.7s.1-.1.2,0l.1.1c.3.4.6.9,1,.7l.1-.1v-.1a2.45,2.45,0,0,0-.4-1.2,8.17,8.17,0,0,1-.6-2.7c-.2-1.1-.4-2.1-.5-3.2a.76.76,0,0,0-.2-.5c-.4-.4-.4,1-.4,1.3-.1.6-.1,1.3-.2,1.9a10.79,10.79,0,0,1-1.1,3.6c-.2.5-.4,1.3,0,1.5s1-1.6,1.4-1a7.49,7.49,0,0,1-.5,1.6c-.2.5-.4.9-.6,1.4a3.26,3.26,0,0,0-.4,1.4c0,.2,0,.3.1.4s.1.1.2.1a.67.67,0,0,0,.7-.4c.1-.1.1-.3.2-.4s.2-.2.3-.1c.5.2-.2,1.9-.3,2.1s-.3.5-.4.7a8.79,8.79,0,0,0-.6,1,2.66,2.66,0,0,0-.3,1.2.78.78,0,0,0,.3.7c.1.1.3,0,.4-.1s.2-.3.3-.4a4.88,4.88,0,0,0,.3-.7c.1-.1.2-.5.4-.2,0,.1-.1.5-.1.7a5,5,0,0,1-.5,1.3,7.74,7.74,0,0,0-1.2,2.6,2,2,0,0,0,.1.8H72.7L70,115.6v-.1c-.1-.5-.2-.9-.3-1.4,0-.1-.1-.6-.1-.8.1-.4.5.5.6.7s.4.4.5.2a.76.76,0,0,0,.2-.5,1.27,1.27,0,0,0-.1-.6,2.09,2.09,0,0,0-.4-.6,4.73,4.73,0,0,1-.7-1.2,3.89,3.89,0,0,1-.2-1.5v-.1c0-.1.1,0,.1,0,.2.1.2.4.3.6.1.4.3.7.6.7a.56.56,0,0,0,.5-.6.75.75,0,0,0-.1-.5c-.3-.8-.8-1.4-1.1-2.1a6.61,6.61,0,0,1-.5-1.5c0-.2-.1-.6,0-.7s.1-.1.2,0l.1.1c.3.4.6.9,1,.7l.1-.1v-.1a2.45,2.45,0,0,0-.4-1.2,8.17,8.17,0,0,1-.6-2.7c-.2-1.1-.4-2.1-.5-3.2a.76.76,0,0,0-.2-.5c-.4-.4-.4,1-.4,1.3-.1.6-.1,1.3-.2,1.9a10.79,10.79,0,0,1-1.1,3.6c-.2.5-.4,1.3,0,1.5s1-1.6,1.4-1a7.49,7.49,0,0,1-.5,1.6c-.2.5-.4.9-.6,1.4a3.26,3.26,0,0,0-.4,1.4c0,.2,0,.3.1.4s.1.1.2.1a.67.67,0,0,0,.7-.4c.1-.1.1-.3.2-.4s.2-.2.3-.1c.5.2-.2,1.9-.3,2.1s-.3.5-.4.7a8.79,8.79,0,0,0-.6,1,2.66,2.66,0,0,0-.3,1.2.78.78,0,0,0,.3.7c.1.1.3,0,.4-.1s.2-.3.3-.4a4.88,4.88,0,0,0,.3-.7c.1-.1.2-.5.4-.2,0,.1-.1.5-.1.7a5,5,0,0,1-.5,1.3,10.54,10.54,0,0,1-.7,1.1h-2l.1-.1a1.7,1.7,0,0,0,.1-.7,5,5,0,0,0-1.4-2.7,4.15,4.15,0,0,1-1.1-2.3v-.4c0-.1.2-.2.2-.1a4.67,4.67,0,0,0,.5,1c.1.2.2.4.4.4s.3.1.5-.1.1-.7.1-1.1a5.64,5.64,0,0,0-.4-1.2,1.79,1.79,0,0,0-.5-.7c-.3-.5-.7-1-1-1.5l-.3-.6c-.1-.7.3-.5.5-.2a7.26,7.26,0,0,0,.5.9c.3.4.9.5,1,0,.1-.2,0-.5,0-.7-.4-1.9-1.9-3.2-2-5.2a.75.75,0,0,1,.1-.5c.1-.1.3,0,.3.2.2.3.7,1.6,1,.8a.6.6,0,0,0,.1-.4,8.42,8.42,0,0,0-.8-2.7c-.1-.4-.7-1.7,0-1.7.4,0,.7.9,1.1.7s.3-.8.2-1.2c-.2-.9-.6-1.7-.8-2.6a15.52,15.52,0,0,1-.4-2.1,21.84,21.84,0,0,1-.3-5.7v-.7c-.1-.2-.3-.3-.4-.2a.37.37,0,0,0-.1.3c-.7,2.8-.7,6.1-1.8,8.6a3.58,3.58,0,0,0-.4,1.1c0,.4.2.9.5.8s.3-.5.5-.7a.19.19,0,0,1,.3,0v.2a2.92,2.92,0,0,1-.2.9,22.4,22.4,0,0,0-1.1,3.4c0,.3,0,.6.1.7s.4-.2.5-.4.3-.5.5-.3a.37.37,0,0,1,.1.3c.2,1.6-.9,2.8-1.4,4.1a1.88,1.88,0,0,0-.2.8,1,1,0,0,0,.4.8c.3.2.3-.1.5-.5.1-.2.2-.3.3-.2a.37.37,0,0,1,.1.3,3.64,3.64,0,0,1-.5,2.1,10.42,10.42,0,0,0-1,1.8,5.85,5.85,0,0,0-.2,1.3v.6c.1.5.4.5.6.3a6.42,6.42,0,0,0,1-1.3A7.28,7.28,0,0,1,60,114a2.94,2.94,0,0,0-.8,2.5.82.82,0,0,0,1,.5,2.84,2.84,0,0,0,1-.9,5,5,0,0,1-.2,1.2H56.1a2,2,0,0,1-.4-.8,3.89,3.89,0,0,1-.2-1.5v-.1c0-.1.1,0,.1,0,.2.1.2.4.3.6.1.4.3.7.6.7a.56.56,0,0,0,.5-.6.75.75,0,0,0-.1-.5c-.3-.8-.8-1.4-1.1-2.1a6.61,6.61,0,0,1-.5-1.5c0-.2-.1-.6,0-.7s.1-.1.2,0l.1.1c.3.4.6.9,1,.7l.1-.1v-.1a2.45,2.45,0,0,0-.4-1.2,8.17,8.17,0,0,1-.6-2.7c-.2-1.1-.4-2.1-.5-3.2a.76.76,0,0,0-.2-.5c-.4-.4-.4,1-.4,1.3-.1.6-.1,1.3-.2,1.9a10.79,10.79,0,0,1-1.1,3.6c-.2.5-.4,1.3,0,1.5s1-1.6,1.4-1a7.49,7.49,0,0,1-.5,1.6c-.2.5-.4.9-.6,1.4a3.26,3.26,0,0,0-.4,1.4c0,.2,0,.3.1.4s.1.1.2.1a.67.67,0,0,0,.7-.4c.1-.1.1-.3.2-.4s.2-.2.3-.1c.5.2-.2,1.9-.3,2.1s-.1.2-.2.3H39.7l-2.9-2.4a3.07,3.07,0,0,0-1.1-1.8,3.67,3.67,0,0,1-1.2-2.1c.4-.5,1,.3,1.3,1s.9,1.3,1.3.8a1.7,1.7,0,0,0,.1-.7,5,5,0,0,0-1.4-2.7,4.15,4.15,0,0,1-1.1-2.3v-.4c0-.1.2-.2.2-.1a4.67,4.67,0,0,0,.5,1c.1.2.2.4.4.4s.3.1.5-.1.1-.7.1-1.1a5.64,5.64,0,0,0-.4-1.2,1.79,1.79,0,0,0-.5-.7c-.3-.5-.7-1-1-1.5l-.3-.6c-.1-.7.3-.5.5-.2a7.26,7.26,0,0,0,.5.9c.3.4.9.5,1,0,.1-.2,0-.5,0-.7-.4-1.9-1.9-3.2-2-5.2a.75.75,0,0,1,.1-.5c.1-.1.3,0,.3.2.2.3.7,1.6,1,.8a.6.6,0,0,0,.1-.4,8.42,8.42,0,0,0-.8-2.7c-.1-.4-.7-1.7,0-1.7.4,0,.7.9,1.1.7s.3-.8.2-1.2c-.2-.9-.6-1.7-.8-2.6a15.52,15.52,0,0,1-.4-2.1,21.84,21.84,0,0,1-.3-5.7v-.7c-.1-.2-.3-.3-.4-.2a.37.37,0,0,0-.1.3c-.7,2.8-.7,6.1-1.8,8.6a3.58,3.58,0,0,0-.4,1.1c0,.4.2.9.5.8s.3-.5.5-.7a.19.19,0,0,1,.3,0V92a2.92,2.92,0,0,1-.2.9A22.4,22.4,0,0,0,32,96.3c0,.3,0,.6.1.7s.4-.2.5-.4.3-.5.5-.3a.37.37,0,0,1,.1.3c.2,1.6-.9,2.8-1.4,4.1a1.88,1.88,0,0,0-.2.8,1,1,0,0,0,.4.8c.3.2.3-.1.5-.5.1-.2.2-.3.3-.2a.37.37,0,0,1,.1.3,3.64,3.64,0,0,1-.5,2.1,10.42,10.42,0,0,0-1,1.8,5.85,5.85,0,0,0-.2,1.3v.6c.1.5.4.5.6.3a6.42,6.42,0,0,0,1-1.3,7.28,7.28,0,0,1-1.3,3.1,5.58,5.58,0,0,0-.5.8l-4.2-3.4H21.1a1.27,1.27,0,0,0,.1-.6,5,5,0,0,0-1.4-2.7,4.15,4.15,0,0,1-1.1-2.3v-.4c0-.1.2-.2.2-.1a4.67,4.67,0,0,0,.5,1c.1.2.2.4.4.4s.3.1.5-.1.1-.7.1-1.1a5.64,5.64,0,0,0-.4-1.2,1.79,1.79,0,0,0-.5-.7c-.3-.5-.7-1-1-1.5l-.3-.6c-.1-.7.3-.5.5-.2a7.26,7.26,0,0,0,.5.9c.3.4.9.5,1,0,.1-.2,0-.5,0-.7-.4-1.9-1.9-3.2-2-5.2a.75.75,0,0,1,.1-.5c.1-.1.3,0,.3.2.2.3.7,1.6,1,.8a.6.6,0,0,0,.1-.4,8.42,8.42,0,0,0-.8-2.7c-.1-.4-.7-1.7,0-1.7.4,0,.7.9,1.1.7s.3-.8.2-1.2c-.2-.9-.6-1.7-.8-2.6a15.52,15.52,0,0,1-.4-2.1,21.84,21.84,0,0,1-.3-5.7v-.7c-.1-.2-.3-.3-.4-.2a.37.37,0,0,0-.1.3c-.7,2.8-.7,6.1-1.8,8.6A3.58,3.58,0,0,0,16,86c0,.4.2.9.5.8s.3-.5.5-.7a.19.19,0,0,1,.3,0v.2a2.92,2.92,0,0,1-.2.9A22.4,22.4,0,0,0,16,90.6c0,.3,0,.6.1.7s.4-.2.5-.4.3-.5.5-.3a.37.37,0,0,1,.1.3c.2,1.6-.9,2.8-1.4,4.1a1.88,1.88,0,0,0-.2.8,1,1,0,0,0,.4.8c.3.2.3-.1.5-.5.1-.2.2-.3.3-.2a.37.37,0,0,1,.1.3,3.64,3.64,0,0,1-.5,2.1,6.37,6.37,0,0,0-1,1.8,5.85,5.85,0,0,0-.2,1.3v.6c.1.5.4.5.6.3a6.42,6.42,0,0,0,1-1.3,7.28,7.28,0,0,1-1.3,3.1,2.94,2.94,0,0,0-.8,2.5.74.74,0,0,0,.6.5H-3.1v-.7Zm141.8.6h0a.54.54,0,0,1,.3.4l-.4-.1v-.1C138.6,107.1,138.6,107,138.7,107Zm-44.2,3.5c0-.1.1,0,0,0a2,2,0,0,1,.5.9h-.5c0-.2-.1-.4-.1-.6S94.4,110.5,94.5,110.5Zm-2,.8c.2-.3.4-.8.7-.9a2.77,2.77,0,0,1-.1.9Zm-29.6,3.5c.4-.5,1,.3,1.3,1a1.7,1.7,0,0,0,.6.8h-1A2.27,2.27,0,0,1,62.9,114.8ZM33,111.2Zm-14.2-6.4c.4-.5,1,.3,1.3,1a2.09,2.09,0,0,0,.4.6h-1A2.18,2.18,0,0,1,18.8,104.8ZM16,106.4h.2a2.84,2.84,0,0,0,1-.9,2.92,2.92,0,0,1-.2.9Z"/><path id="_Compound_Path_2" data-name="&lt;Compound Path&gt;" class="cls-7" d="M46,129.2h0m-2.8,3.7-.6.6-.1.1H31l-10.8-3.9a3.81,3.81,0,0,1-.9-1.3c-.1-.3-.2-.5-.3-.8a2.27,2.27,0,0,0-.1-.4c.1-.2.5.3.6.4s.4.2.5.1.2-.2.2-.3a.37.37,0,0,0-.1-.3c-.1-.1-.2-.3-.4-.4a2.34,2.34,0,0,1-.7-.7,1.49,1.49,0,0,1-.2-.9h.1c.2.1.2.2.3.4a.68.68,0,0,0,.6.4c.2,0,.5-.1.5-.3a.37.37,0,0,0-.1-.3,13.07,13.07,0,0,0-1.1-1.2,4.05,4.05,0,0,1-.5-.9c0-.1-.1-.3,0-.4h.2l.1.1c.3.2.6.5,1,.4a.1.1,0,0,0,.1-.1v-.1a1,1,0,0,0-.4-.7,3.14,3.14,0,0,1-.6-1.6,13.32,13.32,0,0,1-.5-1.9c0-.1-.1-.3-.2-.3-.4-.2-.4.6-.4.7-.1.4-.1.8-.2,1.1a4.75,4.75,0,0,1-1.1,2.1c-.2.3-.4.8,0,.9s1-.9,1.4-.6a4.67,4.67,0,0,1-.5,1,5.55,5.55,0,0,1-.6.8,1.23,1.23,0,0,0-.4.8.37.37,0,0,0,.1.3h.2a.78.78,0,0,0,.7-.3c.1-.1.1-.2.2-.2a.37.37,0,0,1,.3-.1c.5.1-.2,1.1-.3,1.3l-.4.4-.6.6a1.08,1.08,0,0,0-.3.7c0,.2.1.3.3.4h.4c.1,0,.2-.2.3-.3s.2-.3.3-.4.2-.3.4-.1c0,.1-.1.3-.1.4a1.79,1.79,0,0,1-.5.7l-.1.1L14,127.8c-.3-.3-.6-.5-.8-.7a2.88,2.88,0,0,1-.9-2.1c.9.6.8,2.1,2.2,2.3H15a.71.71,0,0,0,.3-.6c0-.2-.2-.4-.3-.6-.6-.9-1.3-1.8-2-2.7-.2-.2-.7-.6-.7-.9s.6-.4.9-.2a2.51,2.51,0,0,1,.4.7c.1.2.3.5.6.5a.71.71,0,0,0,.6-.3.64.64,0,0,0,0-.6,2.38,2.38,0,0,0-.6-1.1c-.7-.7-1.7-1.2-2-2.1,0-.1-.1-.2,0-.3s.1-.2.3-.2.2.1.3.1c.3.2.7.7,1.1.4s.2-.5.1-.7c-.4-.9-1.6-1.4-2.2-2.3a1.45,1.45,0,0,1-.2-.7.59.59,0,0,1,.9-.3c.3.2.5.8,1.1.6.4-.1.3-.5.2-.9a6.25,6.25,0,0,0-1.3-2c-.5-.5-1.2-.9-1.1-1.6s1,.7,1.2.9.6.5.9.4a.55.55,0,0,0,.3-.5c.1-1.3-1.2-2.3-2.2-3.3-.2-.2-.7-1.3.1-1.2.2,0,.3.2.4.3a2,2,0,0,0,.6.7.92.92,0,0,0,1,.1.55.55,0,0,0,.3-.5c0-.2-.1-.4-.1-.6a4,4,0,0,0-1.3-1.6c-.5-.4-1.1-.8-1.1-1.4a.37.37,0,0,1,.1-.3.45.45,0,0,1,.5,0c.4.2.4.5.9.5a.63.63,0,0,0,.6-.5.88.88,0,0,0-.1-.7,11.33,11.33,0,0,0-1.3-2,2.93,2.93,0,0,1-.8-2.1.37.37,0,0,1,.1-.3c.2-.2.4.1.5.2a.75.75,0,0,0,.8.1.68.68,0,0,0,.4-.6c0-.2-.2-.4-.4-.6-1.4-1.4-1.6-3.4-1.7-5.2,0-.2,0-1.2-.5-1.2s-.4,1.1-.4,1.3a9.66,9.66,0,0,1-.1,2.4,5.67,5.67,0,0,1-1.2,2.3,1.79,1.79,0,0,0-.5.7.57.57,0,0,0,.2.7.64.64,0,0,0,.6,0c.2-.1.1-.4.3-.5a.37.37,0,0,1,.3.1c.1.1,0,.2,0,.3a3.91,3.91,0,0,1-1,1.6,2.34,2.34,0,0,0-.7,1.7v.1h0c.1.1.2.1.4,0s.7-.7,1.1-.5c.6.2-.2,1.2-.6,1.3a3,3,0,0,0-.8.4,1,1,0,0,0-.4.5c-.1.2-.1.4.1.5.5.5,1.2-.8,1.6-.5.6.3-.7,1.7-1,1.9a2.34,2.34,0,0,0-1,1.2.37.37,0,0,0,.1.3.75.75,0,0,0,.5.1.91.91,0,0,0,.7-.3c.1-.1.2-.2.3-.2s.2-.1.4-.1.2.2.2.4a3.17,3.17,0,0,1-.8,1.2,13.44,13.44,0,0,1-1.1,1.4.76.76,0,0,0-.2.5c0,.2,0,.4.2.4a.88.88,0,0,0,.7-.1c.2-.1.3-.3.5-.5a.62.62,0,0,1,.7-.1c.3.2.2.5.1.7-.3.7-.8.9-1.4,1.4a5.5,5.5,0,0,0-1.3,1.8c0,.1-.1.2,0,.4s.6.3.9.2.8-.7,1.3-.7.6.7.4,1A7,7,0,0,1,8.3,117a3.23,3.23,0,0,0-.8,2.1v.2c.3.5,1-.4,1.2-.6a1.38,1.38,0,0,1,.4-.3.45.45,0,0,1,.5,0l.2.2c.2.6-.5,1.1-.9,1.5a4.19,4.19,0,0,0-1.1,1.6c-.1.3-.1.7.2.8a.66.66,0,0,0,.7-.2c.2-.2.3-.4.5-.5a.37.37,0,0,1,.3-.1c.8,0,0,1.1-.2,1.2a5.5,5.5,0,0,0-.9.7,3.35,3.35,0,0,0-1,1.7v.3a.22.22,0,0,0,.2.2H5a.35.35,0,0,0-.1-.2,2.27,2.27,0,0,0-.1-.4c.1-.2.5.3.6.4s.4.2.5.1.2-.2.2-.3a.37.37,0,0,0-.1-.3c-.1-.1-.2-.3-.4-.4a2.34,2.34,0,0,1-.7-.7,1.49,1.49,0,0,1-.2-.9h.1c.2.1.2.2.3.4a.68.68,0,0,0,.6.4c.2,0,.5-.1.5-.3a.37.37,0,0,0-.1-.3A13.07,13.07,0,0,0,5,122.1a4.05,4.05,0,0,1-.5-.9c0-.1-.1-.3,0-.4h.2l.1.1c.3.2.6.5,1,.4a.1.1,0,0,0,.1-.1v-.1a1,1,0,0,0-.4-.7,3.14,3.14,0,0,1-.6-1.6,13.32,13.32,0,0,1-.5-1.9c0-.1-.1-.3-.2-.3-.4-.2-.4.6-.4.7-.1.4-.1.8-.2,1.1a4.75,4.75,0,0,1-1.1,2.1c-.2.3-.4.8,0,.9s1-.9,1.4-.6a4.67,4.67,0,0,1-.5,1,5.55,5.55,0,0,1-.6.8,1.23,1.23,0,0,0-.4.8.37.37,0,0,0,.1.3h.2a.78.78,0,0,0,.7-.3c.1-.1.1-.2.2-.2s.2-.1.3-.1c.5.1-.2,1.1-.3,1.3l-.4.4-.6.6-.3.6H-2.8v38.2H156V146.5l-63.6-8.4H86.2l-8.6-1.6-11.9,1.6-15.8-4.8s-3.8-.2-3.8-.3C46,133.1,43.3,132.7,43.2,132.9ZM3.9,126.2H3.5c0-.1.1-.1.1-.2s.2-.3.4-.1C3.9,125.9,3.9,126.1,3.9,126.2Zm5.2-.3c-.1.1-.1.2-.2.3H8c.2-.1.3-.1.4-.2s.3-.3.5-.4C9.4,125.3,9.3,125.7,9.1,125.9Z"/><path id="_Compound_Path_3" data-name="&lt;Compound Path&gt;" class="cls-8" d="M-7,144.2,16.4,200H222.2V123.1h-5.5a2.35,2.35,0,0,1-.2-.8c0-.1-.1-.4-.1-.5s.5.4.6.4a1.06,1.06,0,0,0,.5.2c.1-.1.2-.2.2-.3a.6.6,0,0,0-.1-.4.78.78,0,0,0-.4-.4,5,5,0,0,1-.7-.8,1.8,1.8,0,0,1-.2-1v-.1h.1c.2.1.2.3.3.4a.63.63,0,0,0,.6.5c.2,0,.5-.1.5-.4a.76.76,0,0,0-.1-.4c-.3-.5-.8-.9-1.1-1.4a3.13,3.13,0,0,1-.5-1c0-.1-.1-.4,0-.5h.2l.1.1c.3.3.6.6,1,.5a.1.1,0,0,0,.1-.1V117a1,1,0,0,0-.4-.8,4.26,4.26,0,0,1-.6-1.8,17.42,17.42,0,0,1-.5-2.2.76.76,0,0,0-.2-.4c-.4-.3-.4.7-.4.9-.1.4-.1.9-.2,1.3a5.28,5.28,0,0,1-1.1,2.4c-.2.3-.4.9,0,1s1-1.1,1.4-.7a3.7,3.7,0,0,1-.5,1.1l-.6.9a1.8,1.8,0,0,0-.4.9.37.37,0,0,0,.1.3c.1,0,.1.1.2.1a.78.78,0,0,0,.7-.3c.1-.1.1-.2.2-.3a.37.37,0,0,1,.3-.1c.5.2-.2,1.3-.3,1.5s-.3.3-.4.5a4.35,4.35,0,0,0-.6.7,1.14,1.14,0,0,0-.3.8.6.6,0,0,0,.1.4h-2.5a4.17,4.17,0,0,1-.8-1.8c0-.1,0-.2.1-.2h.1c.4.3.3.7.8.9.3.1.9-.1.9-.5a1,1,0,0,0-.4-.7,6.57,6.57,0,0,1-1.2-1.7c-.1-.3-.2-.6-.3-1,0-.1-.1-.4-.1-.5s.5.4.6.4a1.06,1.06,0,0,0,.5.2c.1-.1.2-.2.2-.3a.6.6,0,0,0-.1-.4.78.78,0,0,0-.4-.4,5,5,0,0,1-.7-.8,1.8,1.8,0,0,1-.2-1v-.1h.1c.2.1.2.3.3.4a.63.63,0,0,0,.6.5c.2,0,.5-.1.5-.4a.76.76,0,0,0-.1-.4c-.3-.5-.8-.9-1.1-1.4a3.13,3.13,0,0,1-.5-1c0-.1-.1-.4,0-.5h.2a.1.1,0,0,1,.1.1c.3.3.6.6,1,.5a.1.1,0,0,0,.1-.1v-.1a1,1,0,0,0-.4-.8,4.26,4.26,0,0,1-.6-1.8,17.42,17.42,0,0,1-.5-2.2.76.76,0,0,0-.2-.4c-.4-.3-.4.7-.4.9-.1.4-.1.9-.2,1.3a5.28,5.28,0,0,1-1.1,2.4c-.2.3-.4.9,0,1s1-1.1,1.4-.7a3.7,3.7,0,0,1-.5,1.1l-.6.9a1.8,1.8,0,0,0-.4.9.37.37,0,0,0,.1.3c.1,0,.1.1.2.1a.78.78,0,0,0,.7-.3c.1-.1.1-.2.2-.3a.37.37,0,0,1,.3-.1c.5.2-.2,1.3-.3,1.5s-.3.3-.4.5a4.35,4.35,0,0,0-.6.7,1.14,1.14,0,0,0-.3.8.55.55,0,0,0,.3.5c.1.1.3,0,.4-.1l.3-.3a2.19,2.19,0,0,0,.3-.5c.1-.1.2-.3.4-.2,0,.1-.1.4-.1.5a4.05,4.05,0,0,1-.5.9c-.4.5-1.1,1.1-1.2,1.8-.1.3.1.8.4.8.5,0,.6-.8,1.1-.8a2.27,2.27,0,0,1-.9,1.8c0,.1-.1.1-.1.2h-1.7a3.74,3.74,0,0,0-1.3-1.5,2.61,2.61,0,0,1-1.1-1.6v-.3c0-.1.2-.1.2-.1a2.65,2.65,0,0,0,.5.6,1.38,1.38,0,0,0,.4.3.45.45,0,0,0,.5,0c.2-.2.1-.5.1-.7a2,2,0,0,0-.4-.8c-.1-.2-.3-.3-.5-.5l-1-1a1.38,1.38,0,0,1-.3-.4c-.1-.5.3-.3.5-.1s.3.4.5.6.9.4,1,0c.1-.2,0-.3,0-.5-.4-1.3-1.9-2.1-2-3.5,0-.1,0-.3.1-.3a.19.19,0,0,1,.3.1c.2.2.7,1.1,1,.5a.37.37,0,0,0,.1-.3c0-.7-.5-1.2-.8-1.8-.1-.3-.7-1.1,0-1.2.4,0,.7.6,1.1.5s.3-.5.2-.8c-.2-.6-.6-1.1-.8-1.8a13.35,13.35,0,0,1-.7-5.3v-.5c0-.2-.3-.2-.4-.1s-.1.1-.1.2c-.7,1.9-.7,4.2-1.8,5.9a2.51,2.51,0,0,0-.4.7.56.56,0,0,0,.5.6c.3,0,.3-.3.5-.5a.19.19,0,0,1,.3,0v.1a1.42,1.42,0,0,1-.2.6,12,12,0,0,0-1.1,2.3.75.75,0,0,0,.1.5c.2.1.4-.1.5-.3a.37.37,0,0,1,.5-.2c.1.1.1.1.1.2.2,1.1-.9,1.9-1.4,2.8-.1.2-.2.3-.2.5a.82.82,0,0,0,.4.6c.3.1.3-.1.5-.3s.2-.2.3-.2.1.1.1.2a2.26,2.26,0,0,1-.5,1.5,4.12,4.12,0,0,0-1,1.3,2.92,2.92,0,0,0-.2.9v.4c.1.3.4.4.6.2a9,9,0,0,0,1-.9,4.65,4.65,0,0,1-1.3,2.1,2.8,2.8,0,0,0-.9,1.3H185.4c-.5-.8-1-1.6-1.5-2.3-.1-.2-.5-.5-.5-.8s.4-.3.6-.1.2.4.3.6.2.4.5.4.3-.1.4-.3a.45.45,0,0,0,0-.5,4.18,4.18,0,0,0-.4-1c-.5-.6-1.2-1-1.5-1.8,0-.1-.1-.2,0-.3a.22.22,0,0,1,.2-.2.35.35,0,0,1,.2.1c.2.2.5.6.8.3.2-.1.2-.4.1-.6-.3-.8-1.2-1.2-1.6-2a.66.66,0,0,1-.1-.6.43.43,0,0,1,.7-.2c.2.2.4.7.8.6s.3-.5.2-.7a5.56,5.56,0,0,0-.9-1.7c-.4-.4-.9-.7-.8-1.4s.8.6.9.8.4.4.7.3.2-.3.2-.5c.1-1.1-.9-2-1.6-2.9-.1-.2-.5-1.1,0-1,.1,0,.2.2.3.3s.2.5.4.6a.49.49,0,0,0,.7.1.76.76,0,0,0,.2-.4,1.09,1.09,0,0,0-.1-.5,4.19,4.19,0,0,0-.9-1.4,1.64,1.64,0,0,1-.8-1.2.37.37,0,0,1,.1-.3.3.3,0,0,1,.4,0c.3.1.3.5.7.4a.43.43,0,0,0,.4-.4.66.66,0,0,0-.1-.6,7.54,7.54,0,0,0-1-1.7,2.47,2.47,0,0,1-.6-1.8.37.37,0,0,1,.1-.3c.2-.2.3.1.4.2a.61.61,0,0,0,.6.1.55.55,0,0,0,.3-.5.85.85,0,0,0-.3-.5,7.68,7.68,0,0,1-1.3-4.5c0-.2,0-1-.3-1s-.3.9-.3,1.1a14.72,14.72,0,0,1,0,2.1,4,4,0,0,1-.9,2c-.1.2-.3.4-.4.6a.48.48,0,0,0,.2.6.45.45,0,0,0,.5,0c.1-.1,0-.4.2-.4s.2,0,.2.1v.3a3.69,3.69,0,0,1-.7,1.4,1.87,1.87,0,0,0-.5,1.4v.1h0a.19.19,0,0,0,.3,0c.2-.1.5-.6.8-.5.5.2-.2,1-.4,1.1l-.6.3c-.1.1-.2.3-.3.4a.45.45,0,0,0,0,.5c.4.4.9-.6,1.2-.5.5.2-.5,1.4-.7,1.6s-.7.6-.7,1a.37.37,0,0,0,.1.3c.1.1.2.1.4.1a.76.76,0,0,0,.5-.2l.2-.2a.19.19,0,0,1,.3,0,.37.37,0,0,1,.1.3,3.88,3.88,0,0,1-.6,1.1c-.3.4-.5.8-.8,1.2a.52.52,0,0,0-.2.4.6.6,0,0,0,.1.4.44.44,0,0,0,.5-.1c.1-.1.2-.3.4-.4s.4-.2.5-.1.2.4.1.6c-.2.6-.6.8-1,1.2a3.19,3.19,0,0,0-.9,1.6c0,.1-.1.2,0,.3a.42.42,0,0,0,.7.1c.3-.2.6-.6,1-.6s.4.6.3.9a12.13,12.13,0,0,1-1,1.4,2.79,2.79,0,0,0-.6,1.8v.2c.2.4.7-.4.9-.5l.3-.3a.3.3,0,0,1,.4,0c.1,0,.1.1.1.2.2.6-.4.9-.7,1.3a3.92,3.92,0,0,0-.8,1.4c-.1.2-.1.6.1.7a.37.37,0,0,0,.5-.2c.1-.1.2-.3.4-.4s.1-.1.2-.1c.6,0,0,.9-.1,1s-.5.4-.7.6a2.1,2.1,0,0,0-.7,1.4v.2h-2.6a2,2,0,0,1-.3-1.1c0-.1,0-.2.1-.2h.1c.4.3.3.7.8.9.3.1.9-.1.9-.5a1,1,0,0,0-.4-.7,6.57,6.57,0,0,1-1.2-1.7c-.1-.3-.2-.6-.3-1,0-.1-.1-.4-.1-.5s.5.4.6.4a1.06,1.06,0,0,0,.5.2c.1-.1.2-.2.2-.3a.6.6,0,0,0-.1-.4.78.78,0,0,0-.4-.4,5,5,0,0,1-.7-.8,1.8,1.8,0,0,1-.2-1v-.1h.1c.2.1.2.3.3.4a.63.63,0,0,0,.6.5c.2,0,.5-.1.5-.4a.76.76,0,0,0-.1-.4c-.3-.5-.8-.9-1.1-1.4a3.13,3.13,0,0,1-.5-1c0-.1-.1-.4,0-.5h.2l.1.1c.3.3.6.6,1,.5a.1.1,0,0,0,.1-.1v-.1a1,1,0,0,0-.4-.8,4.26,4.26,0,0,1-.6-1.8,17.42,17.42,0,0,1-.5-2.2.76.76,0,0,0-.2-.4c-.4-.3-.4.7-.4.9-.1.4-.1.9-.2,1.3a5.28,5.28,0,0,1-1.1,2.4c-.2.3-.4.9,0,1s1-1.1,1.4-.7a3.7,3.7,0,0,1-.5,1.1l-.6.9a1.8,1.8,0,0,0-.4.9.37.37,0,0,0,.1.3c.1,0,.1.1.2.1a.78.78,0,0,0,.7-.3c.1-.1.1-.2.2-.3a.37.37,0,0,1,.3-.1c.5.2-.2,1.3-.3,1.5s-.3.3-.4.5a4.35,4.35,0,0,0-.6.7,1.14,1.14,0,0,0-.3.8.55.55,0,0,0,.3.5c.1.1.3,0,.4-.1l.3-.3a2.19,2.19,0,0,0,.3-.5c.1-.1.2-.3.4-.2,0,.1-.1.4-.1.5a4.05,4.05,0,0,1-.5.9c-.4.5-1.1,1.1-1.2,1.8-.1.3.1.8.4.8.5,0,.6-.8,1.1-.8a1.29,1.29,0,0,1-.4,1.2h-1l-16.6,5.2H146.9a1.61,1.61,0,0,0-.4-.7c-.5-.6-1.2-1-1.5-1.8,0-.1-.1-.2,0-.3a.22.22,0,0,1,.2-.2.35.35,0,0,1,.2.1c.2.2.5.6.8.3.2-.1.2-.4.1-.6-.3-.8-1.2-1.2-1.6-2a.66.66,0,0,1-.1-.6.43.43,0,0,1,.7-.2c.2.2.4.7.8.6s.3-.5.2-.7a5.56,5.56,0,0,0-.9-1.7c-.4-.4-.9-.7-.8-1.4s.8.6.9.8.4.4.7.3.2-.3.2-.5c.1-1.1-.9-2-1.6-2.9-.1-.2-.5-1.1,0-1,.1,0,.2.2.3.3s.2.5.4.6a.49.49,0,0,0,.7.1.76.76,0,0,0,.2-.4,1.09,1.09,0,0,0-.1-.5,4.19,4.19,0,0,0-.9-1.4,1.64,1.64,0,0,1-.8-1.2.37.37,0,0,1,.1-.3.3.3,0,0,1,.4,0c.3.1.3.5.7.4a.43.43,0,0,0,.4-.4.66.66,0,0,0-.1-.6,7.54,7.54,0,0,0-1-1.7,2.47,2.47,0,0,1-.6-1.8.37.37,0,0,1,.1-.3c.2-.2.3.1.4.2a.61.61,0,0,0,.6.1.55.55,0,0,0,.3-.5.85.85,0,0,0-.3-.5,7.68,7.68,0,0,1-1.3-4.5c0-.2,0-1-.3-1s-.3.9-.3,1.1a14.72,14.72,0,0,1,0,2.1,4,4,0,0,1-.9,2c-.1.2-.3.4-.4.6a.48.48,0,0,0,.2.6.45.45,0,0,0,.5,0c.1-.1,0-.4.2-.4s.2,0,.2.1v.3a3.69,3.69,0,0,1-.7,1.4,1.87,1.87,0,0,0-.5,1.4v.1h0a.19.19,0,0,0,.3,0c.2-.1.5-.6.8-.5.5.2-.2,1-.4,1.1l-.6.3c-.1.1-.2.3-.3.4a.45.45,0,0,0,0,.5c.4.4.9-.6,1.2-.5.5.2-.5,1.4-.7,1.6s-.7.6-.7,1a.37.37,0,0,0,.1.3c.1.1.2.1.4.1a.76.76,0,0,0,.5-.2l.2-.2a.19.19,0,0,1,.3,0,.37.37,0,0,1,.1.3,3.88,3.88,0,0,1-.6,1.1c-.3.4-.5.8-.8,1.2a.52.52,0,0,0-.2.4c0,.2,0,.3.1.4a.44.44,0,0,0,.5-.1c.1-.1.2-.3.4-.4s.4-.2.5-.1.2.4.1.6c-.2.6-.6.8-1,1.2a3.19,3.19,0,0,0-.9,1.6c0,.1-.1.2,0,.3a.42.42,0,0,0,.7.1c.3-.2.6-.6,1-.6s.4.6.3.9a12.13,12.13,0,0,1-1,1.4,2.79,2.79,0,0,0-.6,1.8v.2c.2.4.7-.4.9-.5l.3-.3a.3.3,0,0,1,.4,0c.1,0,.1.1.1.2.2.6-.4.9-.7,1.3a9.13,9.13,0,0,0-.8,1.3h-2.6l-2.4.9a1.86,1.86,0,0,1-.7-1.3V127c0-.1.2-.1.2-.1a2.65,2.65,0,0,0,.5.6,1.38,1.38,0,0,0,.4.3.45.45,0,0,0,.5,0c.2-.2.1-.5.1-.7a2,2,0,0,0-.4-.8c-.1-.2-.3-.3-.5-.5l-1-1a1.38,1.38,0,0,1-.3-.4c-.1-.5.3-.3.5-.1s.3.4.5.6.9.4,1,0c.1-.2,0-.3,0-.5-.4-1.3-1.9-2.1-2-3.5,0-.1,0-.3.1-.3a.19.19,0,0,1,.3.1c.2.2.7,1.1,1,.5a.37.37,0,0,0,.1-.3c0-.7-.5-1.2-.8-1.8-.1-.3-.7-1.1,0-1.2.4,0,.7.6,1.1.5s.3-.5.2-.8c-.2-.6-.6-1.1-.8-1.8a13.35,13.35,0,0,1-.7-5.3V110c0-.2-.3-.2-.4-.1s-.1.1-.1.2c-.7,1.9-.7,4.2-1.8,5.9a2.51,2.51,0,0,0-.4.7.56.56,0,0,0,.5.6c.3,0,.3-.3.5-.5a.19.19,0,0,1,.3,0v.1a1.42,1.42,0,0,1-.2.6,12,12,0,0,0-1.1,2.3.75.75,0,0,0,.1.5c.2.1.4-.1.5-.3a.37.37,0,0,1,.5-.2c.1.1.1.1.1.2.2,1.1-.9,1.9-1.4,2.8-.1.2-.2.3-.2.5a.82.82,0,0,0,.4.6c.3.1.3-.1.5-.3s.2-.2.3-.2.1.1.1.2a2.26,2.26,0,0,1-.5,1.5,4.12,4.12,0,0,0-1,1.3,2.92,2.92,0,0,0-.2.9v.4c.1.3.4.4.6.2a9,9,0,0,0,1-.9,4.65,4.65,0,0,1-1.3,2.1,2.84,2.84,0,0,0-.8,1.1l-3.7,1.4-.1-.1a5,5,0,0,1-.7-.8,1.8,1.8,0,0,1-.2-1v-.1h.1c.2.1.2.3.3.4a.63.63,0,0,0,.6.5c.2,0,.5-.1.5-.4a.76.76,0,0,0-.1-.4c-.3-.5-.8-.9-1.1-1.4a3.13,3.13,0,0,1-.5-1c0-.1-.1-.4,0-.5h.2l.1.1c.3.3.6.6,1,.5a.1.1,0,0,0,.1-.1v-.1a1,1,0,0,0-.4-.8,4.26,4.26,0,0,1-.6-1.8,17.42,17.42,0,0,1-.5-2.2.76.76,0,0,0-.2-.4c-.4-.3-.4.7-.4.9-.1.4-.1.9-.2,1.3a5.28,5.28,0,0,1-1.1,2.4c-.2.3-.4.9,0,1s1-1.1,1.4-.7a3.7,3.7,0,0,1-.5,1.1l-.6.9a1.8,1.8,0,0,0-.4.9.37.37,0,0,0,.1.3c.1,0,.1.1.2.1a.78.78,0,0,0,.7-.3c.1-.1.1-.2.2-.3a.37.37,0,0,1,.3-.1c.5.2-.2,1.3-.3,1.5s-.3.3-.4.5a4.35,4.35,0,0,0-.6.7l-.3.6-8.1,3L102,137.6a2.22,2.22,0,0,1-.8-1.3V136c0-.1.2-.1.2-.1a2.65,2.65,0,0,0,.5.6,1.38,1.38,0,0,0,.4.3.45.45,0,0,0,.5,0c.2-.2.1-.5.1-.7a2,2,0,0,0-.4-.8c-.1-.2-.3-.3-.5-.5l-1-1a1.38,1.38,0,0,1-.3-.4c-.1-.5.3-.3.5-.1s.3.4.5.6.9.4,1,0c.1-.2,0-.3,0-.5-.4-1.3-1.9-2.1-2-3.5,0-.1,0-.3.1-.3a.19.19,0,0,1,.3.1c.2.2.7,1.1,1,.5a.37.37,0,0,0,.1-.3c0-.7-.5-1.2-.8-1.8-.1-.3-.7-1.1,0-1.2.4,0,.7.6,1.1.5s.3-.5.2-.8c-.2-.6-.6-1.1-.8-1.8a13.35,13.35,0,0,1-.7-5.3V119c-.1-.1-.3-.2-.4-.1s-.1.1-.1.2c-.7,1.9-.7,4.2-1.8,5.9a2.51,2.51,0,0,0-.4.7.56.56,0,0,0,.5.6c.3,0,.3-.3.5-.5a.19.19,0,0,1,.3,0v.1a1.42,1.42,0,0,1-.2.6,12,12,0,0,0-1.1,2.3.75.75,0,0,0,.1.5c.2.1.4-.1.5-.3a.37.37,0,0,1,.5-.2c.1.1.1.1.1.2.2,1.1-.9,1.9-1.4,2.8-.1.2-.2.3-.2.5a.82.82,0,0,0,.4.6c.3.1.3-.1.5-.3s.2-.2.3-.2.1.1.1.2a2.26,2.26,0,0,1-.5,1.5,4.12,4.12,0,0,0-1,1.3,2.92,2.92,0,0,0-.2.9v.4c.1.3.4.4.6.2a9,9,0,0,0,1-.9,4.45,4.45,0,0,1-1.2,2.1l-71.5,8.4v-.1a1,1,0,0,0-.4-.7A6.57,6.57,0,0,1,25,144c-.1-.3-.2-.6-.3-1,0-.1-.1-.4-.1-.5s.5.4.6.4a1.06,1.06,0,0,0,.5.2c.1-.1.2-.2.2-.3a.6.6,0,0,0-.1-.4.78.78,0,0,0-.4-.4,5,5,0,0,1-.7-.8,1.8,1.8,0,0,1-.2-1v-.1h.1c.2.1.2.3.3.4a.63.63,0,0,0,.6.5c.2,0,.5-.1.5-.4a.76.76,0,0,0-.1-.4c-.3-.5-.8-.9-1.1-1.4a3.13,3.13,0,0,1-.5-1c0-.1-.1-.4,0-.5h.2l.1.1c.3.3.6.6,1,.5a.1.1,0,0,0,.1-.1v-.1a1,1,0,0,0-.4-.8,4.26,4.26,0,0,1-.6-1.8,17.42,17.42,0,0,1-.5-2.2.76.76,0,0,0-.2-.4c-.4-.3-.4.7-.4.9-.1.4-.1.9-.2,1.3a5.28,5.28,0,0,1-1.1,2.4c-.2.3-.4.9,0,1s1-1.1,1.4-.7a3.7,3.7,0,0,1-.5,1.1l-.6.9a1.8,1.8,0,0,0-.4.9.37.37,0,0,0,.1.3c.1,0,.1.1.2.1a.78.78,0,0,0,.7-.3c.1-.1.1-.2.2-.3a.37.37,0,0,1,.3-.1c.5.2-.2,1.3-.3,1.5s-.3.3-.4.5a4.35,4.35,0,0,0-.6.7,1.14,1.14,0,0,0-.3.8.55.55,0,0,0,.3.5c.1.1.3,0,.4-.1l.3-.3a2.19,2.19,0,0,0,.3-.5c.1-.1.2-.3.4-.2,0,.1-.1.4-.1.5a4.05,4.05,0,0,1-.5.9c-.4.5-1.1,1.1-1.2,1.8-.1.3.1.8.4.8.5,0,.6-.8,1.1-.8a1,1,0,0,1-.2.9Zm188.2-21.1h-.5l.3-.3C181.4,122.6,181.3,122.9,181.2,123.1Zm2.9,0h-.4a2.92,2.92,0,0,1-.2-.9C183.8,122.4,183.9,122.8,184.1,123.1Zm21,0h-.9c0-.1-.1-.2-.1-.4C204.4,122.5,204.8,122.8,205.1,123.1Zm10.2,0h-.7l.2-.2a2.19,2.19,0,0,0,.3-.5c.1-.1.2-.3.4-.2,0,.1-.1.4-.1.5S215.4,123,215.3,123.1Zm-70.1,5.2h-.5A.45.45,0,0,1,145.2,128.3Zm-120.5,19-.5.1a.9.9,0,0,1-.1-.5c0-.1,0-.2.1-.2h.1A2.09,2.09,0,0,1,24.7,147.3Z"/></g><g class="cls-3"><line class="cls-9" x1="60" y1="162.3" x2="78.8" y2="162.3"/></g><g class="cls-3"><line class="cls-10" x1="35.9" y1="153.8" x2="63.6" y2="153.8"/></g><g class="cls-3"><line class="cls-10" x1="12.6" y1="164.8" x2="40.3" y2="164.8"/></g><g class="cls-3"><line class="cls-11" x1="47" y1="170.5" x2="64.6" y2="170.5"/></g><g class="cls-3"><line class="cls-10" x1="162" y1="134.6" x2="177.3" y2="134.6"/><line class="cls-10" x1="146.7" y1="145.9" x2="162" y2="145.9"/><line class="cls-10" x1="126" y1="168" x2="141.3" y2="168"/><line class="cls-10" x1="169.6" y1="164.1" x2="184.9" y2="164.1"/><line class="cls-10" x1="124.1" y1="154.8" x2="139.4" y2="154.8"/><line class="cls-10" x1="166.8" y1="149.6" x2="182.1" y2="149.6"/><line class="cls-10" x1="159.2" y1="157.9" x2="174.5" y2="157.9"/><line class="cls-10" x1="182.1" y1="164.2" x2="197.4" y2="164.2"/></g><g class="cls-3"><polygon class="cls-12" points="86.3 157.8 105.5 157.8 105.3 159.9 86.5 159.9 86.3 157.8"/></g><g class="cls-3"><path class="cls-2" d="M107.4,144.6H86.8a3.07,3.07,0,0,0-2.2,3.3c.1.5.2,1.5.3,2.7.5,5,1.4,14.3,1.4,14.3s1,2.7,5.5,3.1a2.77,2.77,0,0,1,1.4,1.7c.2,1.1,1.9,1.4,4,1.4s3.8-.3,4-1.4a2.77,2.77,0,0,1,1.4-1.7c4.5-.4,5.5-3.1,5.5-3.1s1.4-14.4,1.6-17A3.2,3.2,0,0,0,107.4,144.6Z"/><polygon class="cls-4" points="109.3 150.8 85 150.8 85.2 153.4 109.1 153.4 109.3 150.8"/><polygon class="cls-4" points="85.9 161 108.4 161 108.1 163.8 86.1 163.8 85.9 161"/><polygon class="cls-4" points="85.4 155.9 108.9 155.9 108.6 158.6 85.7 158.6 85.4 155.9"/><path class="cls-13" d="M56.9,26.9c2.3,3.3,4.6,6.7,7,10,2,2.9,6.7.1,4.7-2.7-2.3-3.3-4.6-6.7-7-10-2-2.9-6.7-.2-4.7,2.7Z"/><path class="cls-13" d="M91.8,8.1V29c0,3.5,5.4,3.5,5.4,0V8.1c0-3.5-5.4-3.5-5.4,0Z"/><path class="cls-13" d="M129.8,24.9c-2.4,3-4.8,6.1-7.1,9.2a2.67,2.67,0,0,0,1,3.7,2.74,2.74,0,0,0,3.7-1c2-2.8,4.1-5.5,6.2-8.1a2.69,2.69,0,0,0-3.8-3.8Z"/><path class="cls-14" d="M115.4,119.1c-.2-.1,7-10.9,7.8-12,8.9-12.7,12.8-31.3,6-45.7-9-19.1-39.5-21.4-55.3-10.3C61.1,60,60.5,77.4,64,91.2c0,.2.1.3.1.5,2,7.7,6.7,14.3,10.9,20.9,3.9,6.2,10,15.6,8.2,23.3-1.1,4.9,4.3,7.1,4.3,7.1h19.4s5.4-2.3,4.3-7.1.8-9.5,2.7-13.7a29,29,0,0,1,1.5-3.1"/><ellipse class="cls-2" cx="97.3" cy="176.6" rx="6.1" ry="1.3"/></g><path class="cls-13" d="M69.4,65.7A27.74,27.74,0,0,1,71.6,62,24.14,24.14,0,0,1,90.1,51.8,4,4,0,0,1,93.9,55a3.88,3.88,0,0,1-3.2,4A36.26,36.26,0,0,0,85,60.3a16.19,16.19,0,0,0-8.5,7.4,3.91,3.91,0,0,1-3.3,2.2,3.39,3.39,0,0,1-3.6-4.1C69.5,65.8,69.4,65.8,69.4,65.7Z"/></svg>