<svg id="Layer_1" data-name="Layer 1" xmlns="http://www.w3.org/2000/svg" viewBox="0 0 204 116"><defs><style>.cls-1,.cls-3{fill:#fff;}.cls-1,.cls-2{stroke:#000;stroke-miterlimit:10;stroke-width:0.84px;}.cls-2{fill:none;}</style></defs><title>logo</title><path class="cls-1" d="M26.5,36.8s7.1-15.7,21.7-9.1C63.1,34.3,55.8,50,55.8,50Z"/><path class="cls-1" d="M48.5,26.3s-.8-4.1,3-4.9C51.5,21.4,52.9,27.8,48.5,26.3Z"/><path class="cls-1" d="M49.4,27.7s-1.9-3.4,1.8-3.9,2.8-.3,2.8-.3S52.3,29.8,49.4,27.7Z"/><path class="cls-1" d="M48.5,20.5s3.3,5.4.8,7.3a3.34,3.34,0,0,1-3.1-3.3A4,4,0,0,1,48.5,20.5Z"/><ellipse class="cls-1" cx="51" cy="34" rx="0.7" ry="1.3" transform="translate(-3.13 5.24) rotate(-5.71)"/><ellipse class="cls-1" cx="52.18" cy="38.89" rx="1.3" ry="0.7" transform="translate(9.17 87.73) rotate(-85.33)"/><ellipse class="cls-1" cx="52.27" cy="44.01" rx="1.3" ry="0.7" transform="translate(-7.04 77.94) rotate(-69.87)"/><ellipse class="cls-1" cx="42.3" cy="30.08" rx="1.3" ry="0.7" transform="translate(-9.6 30.35) rotate(-35.71)"/><ellipse class="cls-1" cx="37.77" cy="32.42" rx="1.3" ry="0.7" transform="translate(-11.78 37.15) rotate(-46.09)"/><ellipse class="cls-1" cx="34.09" cy="35.76" rx="1.3" ry="0.7" transform="translate(-13.59 48.7) rotate(-61.55)"/><ellipse class="cls-1" cx="46.75" cy="31.89" rx="1.3" ry="0.7" transform="translate(-2.67 59.46) rotate(-63.46)"/><ellipse class="cls-1" cx="44.93" cy="35.99" rx="1.3" ry="0.7" transform="translate(-6.36 62.13) rotate(-65.71)"/><ellipse class="cls-1" cx="43.23" cy="39.76" rx="1.3" ry="0.7" transform="translate(-10.8 62.81) rotate(-65.71)"/><circle class="cls-1" cx="41.8" cy="25.3" r="0.7"/><circle class="cls-1" cx="36.6" cy="26.1" r="0.7"/><circle class="cls-1" cx="31.9" cy="28.7" r="0.7"/><circle class="cls-1" cx="28.5" cy="32.4" r="0.7"/><circle class="cls-1" cx="54.2" cy="30.8" r="0.7"/><circle class="cls-1" cx="57" cy="35.1" r="0.7"/><circle class="cls-1" cx="58.3" cy="40.5" r="0.7"/><circle class="cls-1" cx="57.6" cy="45.5" r="0.7"/><polygon class="cls-1" points="51.6 58.9 24.7 46.9 22.5 45.9 26.4 37.1 55.5 50.2 51.6 58.9"/><polygon class="cls-1" points="37 52.5 24.7 46.9 19.4 67.1 28.6 71.2 37.8 75.3 49.3 58 37 52.5"/><line class="cls-2" x1="42.2" y1="60.8" x2="37.1" y2="68.5"/><polygon class="cls-1" points="49.2 69.7 19.7 69.7 17.3 69.7 17.3 60.1 49.2 60.1 49.2 69.7"/><polygon class="cls-1" points="33.2 69.7 19.7 69.7 23.2 90.3 33.2 90.3 43.3 90.3 46.8 69.7 33.2 69.7"/><line class="cls-2" x1="41.4" y1="75.3" x2="39.9" y2="84.4"/><path class="cls-3" d="M73.8,59.5H91.9v6.9H65.1V21.9h8.5V59.5Z"/><path class="cls-3" d="M104.9,66.4h-6v-29h6Z"/><path class="cls-3" d="M121.2,59.2l6.6-21.8h6.7l-10.1,29h-6.2l-10.1-29h6.6Z"/><path class="cls-3" d="M143.5,66.4h-6v-29h6Z"/><path class="cls-3" d="M172.7,66.4h-6L155,47.3V66.4h-6v-29h6l11.7,19.1V37.3h6Z"/><path class="cls-3" d="M179.2,46.3l-2.7-1.6a11.57,11.57,0,0,0,1.8-5.6V35.7h4.6v3.1a8.68,8.68,0,0,1-1,3.9A12.16,12.16,0,0,1,179.2,46.3Z"/><path class="cls-3" d="M77.5,84.5a2.2,2.2,0,0,0-.8-1.8,11,11,0,0,0-3-1.3A21,21,0,0,1,70.2,80c-2.3-1.3-3.5-2.9-3.5-5.1a4.76,4.76,0,0,1,.9-2.9,5.66,5.66,0,0,1,2.7-2,10,10,0,0,1,3.9-.7,9.35,9.35,0,0,1,3.9.8,7.29,7.29,0,0,1,2.7,2.2,6.29,6.29,0,0,1,.9,3.3H77.5a2.79,2.79,0,0,0-.9-2.2,3.74,3.74,0,0,0-2.5-.8,3.61,3.61,0,0,0-2.4.7,2,2,0,0,0,.1,3.4A13.54,13.54,0,0,0,74.7,78a12,12,0,0,1,5.2,2.7,5.35,5.35,0,0,1,1.6,4,5.17,5.17,0,0,1-2,4.2,8.67,8.67,0,0,1-5.4,1.5,10,10,0,0,1-4.3-.9,6.38,6.38,0,0,1-2.9-2.4,6,6,0,0,1-1-3.5h4.2c0,2.2,1.3,3.4,4,3.4a3.71,3.71,0,0,0,2.3-.6A2.28,2.28,0,0,0,77.5,84.5Z"/><path class="cls-3" d="M99.9,72.8H93.7v17H89.5v-17H83.3V69.4H99.9v3.4Z"/><path class="cls-3" d="M118.6,80.1a12.53,12.53,0,0,1-1.1,5.3,7.94,7.94,0,0,1-3,3.5,9,9,0,0,1-9,0,8.15,8.15,0,0,1-3.1-3.5,12.07,12.07,0,0,1-1.1-5.2v-1a12.53,12.53,0,0,1,1.1-5.3,7.56,7.56,0,0,1,3.1-3.5,9,9,0,0,1,9,0,8.84,8.84,0,0,1,3.1,3.5,12.53,12.53,0,0,1,1.1,5.3l-.1.9Zm-4.2-.9a9.35,9.35,0,0,0-1.1-4.9,3.9,3.9,0,0,0-3.3-1.7,3.82,3.82,0,0,0-3.3,1.6,8.1,8.1,0,0,0-1.2,4.8v1a9,9,0,0,0,1.1,4.8,3.9,3.9,0,0,0,3.3,1.7,3.61,3.61,0,0,0,3.2-1.7,8.13,8.13,0,0,0,1.1-4.8v-.8Z"/><path class="cls-3" d="M138.3,89.8h-4.2l-8.2-13.4V89.8h-4.2V69.4h4.2l8.2,13.4V69.4h4.2V89.8Z"/><path class="cls-3" d="M154.2,81h-8.1v5.5h9.5v3.4H141.9V69.5h13.6v3.4h-9.4v4.9h8.1V81Z"/><path class="cls-3" d="M168.6,84.5a2.2,2.2,0,0,0-.8-1.8,11,11,0,0,0-3-1.3,21,21,0,0,1-3.5-1.4c-2.3-1.3-3.5-2.9-3.5-5.1a4.76,4.76,0,0,1,.9-2.9,5.66,5.66,0,0,1,2.7-2,10,10,0,0,1,3.9-.7,9.35,9.35,0,0,1,3.9.8,7.29,7.29,0,0,1,2.7,2.2,6.29,6.29,0,0,1,.9,3.3h-4.2a2.79,2.79,0,0,0-.9-2.2,3.74,3.74,0,0,0-2.5-.8,3.61,3.61,0,0,0-2.4.7,2,2,0,0,0,.1,3.4,13.54,13.54,0,0,0,2.9,1.3,12,12,0,0,1,5.2,2.7,5.35,5.35,0,0,1,1.6,4,5.17,5.17,0,0,1-2,4.2,8.67,8.67,0,0,1-5.4,1.5,10,10,0,0,1-4.3-.9,6.38,6.38,0,0,1-2.9-2.4,6,6,0,0,1-1-3.5h4.2c0,2.2,1.3,3.4,4,3.4a3.71,3.71,0,0,0,2.3-.6A2.28,2.28,0,0,0,168.6,84.5Z"/><path class="cls-3" d="M101.1,23.3H97.6V21.9h8.5v1.4h-3.5v9.5h-1.5Z"/><path class="cls-3" d="M130.8,21.9h1.5v4.5H138V21.9h1.5V32.8H138v-5h-5.7v5h-1.5Z"/><path class="cls-3" d="M165.4,21.9h7v1.4h-5.6v3.3H172V28h-5.2v3.5h5.8v1.4h-7.3l.1-11Z"/></svg>